<svg xmlns="http://www.w3.org/2000/svg" version="1.0" viewBox="0 0 1190 1280">
  <path d="M708 1c-14 2-30 10-50 22-15 9-19 13-24 19l-9 26v5l3-2 3-1v12c0 15-1 17-5 17-2 0-3 0-2 1 2 0 2 0 1 1s-1 1 1 2l2 1-11 13c-5 3-8 6-8 8l4 5c7 7 7 8 6 10l-2 2c-2 0-4 3-4 6s5 8 7 8v2c-2 4-1 7 3 9 5 3 6 4 3 8-2 2-2 4-2 7 1 6 3 8 6 10 5 1 12 1 22-1 15-3 20-4 25-1 6 2 10 8 14 22a214 214 0 0 0 10 25l-6 8a1011 1011 0 0 0-15 16c-6 3-11 10-11 15 0 3-6 12-21 32-17 24-19 30-12 42a404 404 0 0 0 44 43l2 1-4 18c-5 21-10 33-14 39a738 738 0 0 0-47 35c-23 18-36 27-49 33-15 8-16 8-16 4s-3-9-7-11h-22l-19 2-4-4c-12-12-29-16-42-10-6 3-10 8-11 13 0 2 0 3 3 6l3 3h-11c-22 2-42 6-53 10-11 5-21 18-25 31-3 10-3 22 0 30s7 13 21 22c14 10 18 13 21 17 2 4 1 8-3 17-3 6-4 7-6 7l-7 2c-3 2-5 3-7 8-4 8-5 12-3 18l2 4-36 77-38 80-2 3-13-5c-23-7-37-9-63-10-41-1-70 6-106 23A220 220 0 0 0 1 1086a223 223 0 0 0 381 129 222 222 0 0 0-39-348l-9-6 14-28 14-29c1-1 10 9 47 47l45 48 53 56a22034 22034 0 0 0 77 82l-6 20-11 33-6 18c-4 9-15 16-29 21-8 3-14 8-14 12s6 8 36 23l15 8v8c0 6 0 7 3 10l3 3 33 1 36-1 5-4c2-3 2-5 2-14-1-9-1-10-3-12-1-2-4-3-6-4-2 0-3-1-3-2l1-8 1-7 8-1c32-2 57-23 64-53l1-7h11l15-1h4v6a233 233 0 0 0 85 147 227 227 0 0 0 166 45 227 227 0 0 0 193-190 221 221 0 0 0-183-252 219 219 0 0 0-165 36l-11 7-5-5-9-10-4-5 8-3c17-5 32-19 48-42l8-13-2-5c-3-5-12-15-34-35-14-13-20-20-25-30-7-15-6-32 4-40 2-2 4-2 21-2l23-1c15-5 25-15 27-26 0-3 0-6-2-11l-2-6 5-7c18-28 18-59 1-84l-15-19a337 337 0 0 1-84-203c0-18 0-18 2-18 9 4 12 5 17 5 13-1 23-14 20-26-2-8-8-12-16-12s-12 3-13 8c0 5 3 9 7 9 3-1 4-3 1-3-4-1-1-7 4-7 5 1 5 7-1 13-1 2-4 3-5 3-4 0-9-5-11-9-3-7-1-13 8-22l7-9v-2l4 2c5 4 11 4 15 0 3-3 5-10 4-13 0-4-4-8-8-9-7-1-13 8-6 11 3 1 5 0 3-1s0-4 2-4 3 1 4 3c1 5-4 10-10 8-4-1-4-3-3-13 1-18 1-21-6-28l-4-5 5 1c6 0 11-1 15-6 8-9 3-23-10-23-4 0-6 0-8 3-3 3-4 6-2 8h5l-2-1c-2 0-1-2 1-3 3 0 5 2 5 4 0 6-6 6-10 2-3-3-3-4-3-7 1-7 6-11 23-18 30-12 51-39 61-76 2-9 2-12 2-27 0-18-1-26-8-39-4-9-15-20-22-24-15-7-34-7-52 1-6 3-9 4-14 10l-10 8c-4 2-8 0-13-7-11-14-38-22-62-18zm92 55 4 8c4 7 4 16 1 32-4 18-8 27-18 42-5 7-7 9-18 18-8 6-16 12-19 16-5 6-11 17-11 20 0 2-2-1-6-7l-2-5 3-4 13-9c19-12 32-21 36-26 11-12 17-33 16-57 0-12 0-15-2-20l-2-8c0-3 2-3 5 0zm-25 130c7 2 9 12 4 22l-3 4 1-5c8-11-3-25-15-19-4 2-4 3 0 3 2 0 6 2 6 4l-2 4c-2 2-3 3-5 3-5 0-7-3-7-8 0-9 10-13 21-8zm-61 278 5 19 8 24c10 24 12 33 10 41l-1 9c0 4 0 5-2 6s-4 2-5 1c-2 0-4 0-6 2-5 3-16 7-25 8-7 1-8 2-15 8-10 7-24 15-48 24a2338 2338 0 0 0-86 36l-27 9c-28 9-45 17-57 25l-5 3 1 9c1 25 10 44 28 60l5 7a3166 3166 0 0 1-101-16c0-1 17-38 19-39 8-4 10-5 12-11 4-7 5-15 1-20l-2-3 3-9c6-12 7-19 5-28-3-12-10-20-31-34-12-8-15-11-14-19 2-9 7-17 14-21 11-5 53-11 59-7l16 1 17-2c2 0 3 0 4 3 3 7 8 11 16 11 18 0 115-38 160-63 13-8 26-17 29-21l6-12 4-7 3 6zM407 766l42 7 79 13a545 545 0 0 0 27 4l1 7c2 7 5 14 12 24 5 9 10 18 10 21l-3 7c-3 7-2 8 4 13 3 1 11 9 18 17l14 14-2 30-5 41c-2 14-9 41-10 41l-54-58a24598 24598 0 0 0-160-169l-4-4 2-6 5-5 24 3zM247 868c10 1 23 3 27 5l-1 6-16 53c-12 44-14 49-21 64s-7 16-10 16l-3-1a2484 2484 0 0 1-15-144h39zm750 0 9 2-6 30a5855 5855 0 0 0-25 110h-11l-6-35-12-71-6-36c2-2 43-2 57 0zm-797 3 15 136v6l-4 1-7 2c-2 0-3-2-14-22a65485 65485 0 0 0-57-103c-1-4 32-17 52-21 13-3 14-3 14 1zm509 4-51 126-3-11-6-21c-4-15-4-34 1-60l1-9 12-6c7-3 19-10 27-16l15-10 2 3 2 4zm225 11a11221 11221 0 0 0 22 123l-5 3c-5 2-5 2-7 0-3-2-76-117-76-118a149 149 0 0 1 63-24l3 16zm92-10a250 250 0 0 1 45 22l-8 12-38 55c-40 57-35 51-39 49-2 0-3-1-3-2l12-55 15-70 4-15 12 4zm-739 1 5 2-29 60 7-26a945 945 0 0 0 11-38l6 2zm505 19 7 7 2 3-5 6-6 5c-3-5-5-26-3-26l5 5zm-462 2 8 6c1 0-9 14-23 31l-37 46a918 918 0 0 1 43-88l9 5zm-172 52 35 64 3 6-3 3-4 3-113-90a189 189 0 0 1 50-43l32 57zm705-48a3636 3636 0 0 0 41 65l-21-25-27-30-6-7 5-3 6-4 2 4zm231 13c9 9 17 17 25 28 6 7 6 8 5 8a24674 24674 0 0 0-121 77l-4-4-3-4 37-53 41-59 4-6 4 3 12 10zm-359 3 15 33 9 21-4 10c-6 19-11 40-13 66v8h-8l-14 1h-8l-1-4c-3-11-13-25-21-32l-6-5 44-110 7 12zm-383-2a200 200 0 0 1 61 115l1 4h-4l-127 14c-14 2-13 2-15-5l-1-6a4828 4828 0 0 1 123-69c2-1 0-5-2-5l-42 22-62 34-21 12-3-3-3-5a1514 1514 0 0 1 88-114l7 6zm489 16 64 74-11-7-25-17c-8-5-12-8-11-9l-14-25c-12-18-15-24-14-25l2-1 9 10zm-5 18c17 21 16 21 11 17l-33-24 8-11 14 18zm-707 37 55 45-5 9-16-4a9443 9443 0 0 0-121-36l6-18c7-18 22-42 24-40l57 44zm728-3a10564 10564 0 0 0 67 46l2 2-2 4-2 5-49-11-49-11-1-3-14-46-6-13 3-4c2-4 2-4 4-2l47 33zm278-17c6 12 11 25 15 38 4 15 5 14-6 16l-51 9a19466 19466 0 0 0-82 14c-2-3-3-9-2-10a5635 5635 0 0 1 120-77l6 10zM62 1013l109 32 7 2-1 6c0 5-1 6-2 7l-141 15-1-23c1-16 1-24 3-31 3-14 3-14 5-14l21 6zm915 16c7 3 14 10 16 17 2 6 3 12 0 19-2 7-10 16-17 18-8 3-16 2-22 0-5-3-14-11-14-13l14-1c16-1 19-2 22-8 3-7 2-10-9-22l-9-11c0-3 13-2 19 1zm179-1a305 305 0 0 1-2 62l-31-6-69-15-39-9c-2 0-2-1-2-4v-5l47-8a6212 6212 0 0 0 94-17l2 2zm-289 8c48 10 45 9 37 10-7 1-96 6-97 5a194 194 0 0 1 21-24l39 9zm-647-8-6 13c-6 13-7 17-3 23 3 5 7 8 13 8 8 0 11-3 18-17l6-12c2 1 4 9 4 15 0 9-2 14-10 21-8 8-17 10-28 6-7-2-16-10-18-18-6-16 2-32 18-37l6-2zm557 6h-1l1-2v2zm-96 7c5 6 11 16 9 16l-12 1c-8 1-10 1-10-1-1-1 7-21 8-21l5 5zm-266 14a190 190 0 0 1-6 51 2246 2246 0 0 1-129-37l-10-3v-4l1-5 10-2 132-15c2 0 2 1 2 15zm-236 16 1 5-14 9a7704 7704 0 0 0-111 60c-2 0-11-23-15-38l-6-24 140-16c4 0 4 0 5 4zm858 2a5133 5133 0 0 0 115 25 222 222 0 0 1-24 60l-2 2-10-7a59964 59964 0 0 1-108-78c2-5 3-7 5-7l24 5zm-114 1v5a11373 11373 0 0 1-121 76c-2-2-13-26-16-36-4-10-8-25-7-25l55-10 61-11 17-2h10l1 3zm-589 18c79 23 72 21 72 24-4 13-19 42-30 56-1 2-2 2-56-42l-56-44c-2-2-2-2 1-7 2-5 4-6 5-6l64 19zm500-17-54 10 2-4 3-3 20-2 29-1zm-142 10c-2 6-8 16-12 21l-12 8-4-10-4-9 4-3 5-6c1-3 2-3 11-3l11-1 1 3zm-505 2c3 3 3 4 2 5l-88 110a180 180 0 0 1-42-49c0-1 18-12 41-24l62-34 21-12 4 4zm745 1 3 4-25 37-40 58-16 22c-3 3-31-24-43-41l-4-6 15-9 54-35 46-29 6-4 4 3zm109 23 59 41 22 15-5 6c-6 9-26 29-35 36l-8 5-2-2-68-107-9-13 4-3 5-4 37 26zm-727 24 56 44-4 5a188 188 0 0 1-49 38l-68-123c0-2 1-3 4-6l5-3 56 45zm310-31-4 8-3-2c-3-2-2-6 5-11l5-4-3 9zm-422-5 6 4-10 33-30 102-11-3c-16-6-33-15-46-24l-5-4 42-53 48-58 6 3zm747 0 6 3-10 48a14142 14142 0 0 0-21 92c-1 1-23-6-35-11l-29-16 9-14 38-55 32-45 3-4 7 2zm67 40 39 61 12 19-4 2a213 213 0 0 1-56 22 2998 2998 0 0 1-26-143l7-3 28 42zm-364-29c4 9 3 10-3 10-4 0-4 0-4-2 0-5 2-18 3-17l4 9zm-379 48a8868 8868 0 0 0 38 69l-22 9c-15 6-40 11-40 9l-3-21-7-64-6-51v-6l3-1 5-1 32 57zm703-42 13 71 9 57a206 206 0 0 1-66 1l3-13 27-125c1-4 3-5 9-5 2 0 3 1 5 14zm-750-11a10678 10678 0 0 0 15 139v3h-17a172 172 0 0 1-48-6l7-28 31-106c1-3 2-3 7-3l5 1zm386 28-4 14c-4 9-6 12-7 12-2 0-1-1 2-10l4-11 3-6 2 1zm24 13-1 9v4h-10l3-6 3-9 3-3c2 0 2 0 2 5z"/>
</svg>
