<svg xmlns="http://www.w3.org/2000/svg" version="1.0" viewBox="0 0 1244 1280">
  <path d="M693 2c-12 2-20 9-24 17-3 7-4 19-5 91 0 67 1 90 7 109 3 8 14 32 21 43 13 21 31 47 52 72 14 18 17 25 20 44a494 494 0 0 1-3 109c-1 25-5 39-11 46-3 4-4 5-12 6-13 2-28 11-46 29-15 14-21 18-27 19s-9 0-20-7c-22-15-50-25-93-33a504 504 0 0 0-196 15c-18 5-18 5-30 11a708 708 0 0 0-205 187c-9 18-18 53-23 93-5 41-8 97-6 123 1 19 1 24-2 30-5 9-12 8-23-5-8-9-19-12-27-9-2 1-4 3-8 14-8 19-11 29-11 39 0 9 2 20 5 28l1 5-9 8c-10 10-17 19-18 24-1 7 4 17 23 37l21 23c23 25 66 53 89 58l12 1c10-2 36-1 48 0 17 3 26 5 39 12 20 9 43 16 70 21 19 3 25 4 98 8a2486 2486 0 0 0 201 7c11-3 19-7 27-14 17-14 17-20-3-46-15-21-18-29-12-35 4-4 8-5 25-6l20-2 25-10c25-12 38-16 49-17 10 0 15 1 23 11 12 15 19 20 29 25l43 28c36 26 52 35 69 38a375 375 0 0 0 129-7c29-8 37-25 20-45-5-6-16-13-47-33-46-29-55-36-61-53-5-16-3-30 8-41 7-9 15-12 34-16 27-7 39-14 49-30 11-16 16-33 17-62 1-30 5-46 12-59 4-6 7-15 9-24 4-20 6-60 4-73-2-8-6-17-13-27-10-13-11-16-11-24 1-7 4-13 10-19 6-7 10-9 23-10 31-3 80-14 95-22 10-4 25-21 43-47 24-33 24-33 25-37a72 72 0 0 0-1-33c-5-15-13-27-24-34-12-8-17-15-26-39-9-20-13-28-23-41l-22-34c-29-47-36-54-55-64-25-13-49-20-74-21-15-1-19-2-22-7l-5-68a706 706 0 0 0-83-234c-8-13-10-15-16-18-7-4-29-2-43 5-10 4-13 13-14 40-1 23-2 26-4 29-5 7-16-5-37-39-9-15-16-25-27-35a98 98 0 0 0-31-21c-14-6-30-7-42-4z"/>
</svg>
