<svg xmlns="http://www.w3.org/2000/svg" version="1.0" viewBox="0 0 826 1280">
  <path d="M329.7 1.1a67 67 0 0 0-8 10.7 234.4 234.4 0 0 1-25.5 31.7c-7.1 7.6-11.8 14.2-10.9 15.1 1.1 1.1 4.5-1.6 8.4-6.8A296 296 0 0 1 308.4 35a208 208 0 0 0 16.9-21.2c3.4-5.4 6.5-9.8 6.8-9.8.3 0 1.6 1.9 2.9 4.2 4.7 8.3 2.4 23.9-3.9 27.3-2.6 1.4-2.6 1.4 1.7 1.5 2.7 0 4.2.4 4.2 1.3 0 2.4-2.4 3.7-6.6 3.7-10.8 0-15 6.1-5.3 7.6 3.3.6 3.7.9 2.9 2.8-.5 1.1-1.1 3.4-1.5 5-.6 2.7-.7 2.8-5.3 2.1-4.7-.7-4.7-.7-2.9 1.3 1.2 1.3 1.6 2.6 1 3.5-.4.7-5.7 6.9-11.8 13.6a203 203 0 0 0-30 40.4c-2.7 5-7.1 12.5-9.8 16.5-5.8 8.8-10.1 17.6-8.6 18 2.2.8 4.1-1 6.3-6 1.3-2.9 3.3-6.1 4.3-7.1 1.1-.9 4.8-7.2 8.2-14 3.3-6.7 9.1-16.5 12.8-21.7 9-12.6 30.9-34.5 44.7-44.6l10.9-7.9-3.6-.3c-3.3-.3-3.5-.5-2.7-2.5 3.1-7.5 5.2-37.4 3-42.7-2-4.9-8.9-7.5-13.3-4.9z"/>
  <path d="M408.5 2.6c-2.2 1.5-9.2 7.7-15.5 13.8a135 135 0 0 1-24.5 19.3c-15.5 9.8-17.8 11.4-17.2 11.9 1.5 1.5 18-7.5 31.1-16.9 4.3-3.1 8.3-5.7 8.7-5.7.5 0 1.5 1.3 2.4 2.9 1.5 2.9 1.5 3-3.7 7.2a26.5 26.5 0 0 0-6.4 7.5c-.7 1.7-3.7 5.3-6.6 7.9-5.3 4.8-7.7 7.9-7.8 10.3 0 .9.7 1.1 2 .7 1.1-.4 2-.2 2 .4 0 1.8-3.7 3.1-8.8 3.1-5.5 0-6.7.9-10.1 7.8a16.3 16.3 0 0 1-5.1 6c-2.8 1.6-6 7.7-6 11.5 0 1.1-1.2 2.2-3 2.8-3.3 1.2-3.8 3-1.5 4.9 2.3 1.9 1.8 2.8-2.4 4-5.4 1.4-8.3 4-13.1 11.8-5.1 8-9.8 13.2-12.1 13.2-2.8 0-4.1 2.4-2.9 5.4 1.5 3.9 1.3 4.6-1.3 4.6-3.5 0-6.2 2.5-7.6 7-.7 2.5-2 4.4-3.1 4.7-1 .3-2 1.7-2.3 3.2-.4 1.8-3.1 5-7.7 9.1a47.2 47.2 0 0 0-8.5 9.4c-.8 1.7-2 3.9-2.7 4.9-1.1 1.5-1 2 .6 3.3 2.8 2 5.6 1.8 8.2-.7 1.2-1.1 4.8-2.7 8-3.6 4.2-1.1 6.6-2.4 8.5-4.6 1.4-1.7 6.3-5.6 10.9-8.6 4.5-3.1 9-6.9 9.9-8.4 1.5-2.6 1.5-2.9-.1-3.8-2.2-1.2-2.3-2.3-.2-4.4 1.2-1.2 2.7-1.4 6-.9 3.8.5 4.4.4 4.4-1.2 0-1-2.1-4-4.7-6.6-4.7-4.7-4.5-6.3.2-3.2 5.4 3.5 10.1-1.4 9.8-10.4-.1-4.1-.1-4.2 2-2.7 2.5 1.7 6.7 2 6.7.5 0-.6-.7-2.1-1.5-3.4-1.5-2.3-1.5-2.4 2.2-3.1 7.9-1.4 13-6.2 13.5-12.5.4-4.8-1.9-4.9-3.8-.1-1.9 4.7-3 5.1-4.5 1.7-1-2-.8-3.1.9-5.8 1.1-1.8 3.2-4.4 4.6-5.7 3.4-3.2 3.3-3.9-.6-4.3l-3.3-.3 3.3-1.8c4.1-2.2 6-1.7 7.3 2.3 1.4 3.8 2.9 3.9 2.9 0 0-1.8 1.1-4.2 2.9-6.2 1.5-1.8 3.3-4.3 4-5.6 1.1-2 1-2.2-1.6-2.3-1.5 0-3.7-.4-4.8-.9l-2-.8 2-.7c11.5-4.3 15.9-8 25.6-21.6a62.9 62.9 0 0 0 13.4-29.7c2.1-8.9 3.2-11.6 5-12.8 4-2.6 6-.4 11.6 13.6a63.8 63.8 0 0 1-.6 29.5c-1 2.2-2.7 7.7-3.7 12.3a45.6 45.6 0 0 1-13.1 25c-5.5 5.5-6 6.4-4.4 7.3 2.8 1.6 2 2.6-3.3 4.4-4.8 1.6-6.2 2.9-3.9 3.7 1.9.6-.6 4.3-9.7 14-4.6 5-8.4 9.4-8.4 10 0 .5-1.4 1.4-3 2-2 .6-3.8 2.4-5 4.8a20.6 20.6 0 0 1-3.7 5.2c-1 .7-2.7 3.1-3.8 5.3a33.4 33.4 0 0 1-17.3 12.8c-3 .8-4.1 1.5-3.7 2.6.3.7-.1 2.4-.9 3.7a43.7 43.7 0 0 1-17.7 8.8 23 23 0 0 0-8.8 5.1 22.2 22.2 0 0 1-6.7 4.5c-2.7 0-27.8 11.2-30.4 13.5l-8.2 6.4c-6.4 4.6-9.2 8.9-8.6 13.1.4 2.5.1 2.7-2.6 2.6-2.6-.1-3.1.3-3.4 2.5-.4 3.1 3.2 7.9 6 7.9 1.6 0 1.9.5 1.4 3l-1.2 5.9c-.3 1.6-1.2 3.5-2 4.1-1.8 1.6-.9 3 2 3s7.6-4.6 7.6-7.4c0-1.1-.7-3-1.5-4-2-2.7-1.9-7.5.2-8.3 2.3-.9 16.2 1.2 17.6 2.7.8.7 1.1 4 1 8.8-.4 11.6-.1 12.2 5.2 12.2 5.5 0 5.8 1.4.8 3.7-6.1 2.9-5.4 4.3 2.1 4.3 7 0 7.8.6 4.7 3.4a18 18 0 0 0-3.5 6.4c-1.8 5.2-2 7.6-.5 4.9 1-1.6 1.2-1.6 3 .5l2 2.3-.5-2.6c-.3-1.5 0-3.4.9-4.5 1.3-1.9 1.4-1.9 2.1 0 1.4 3.7.9 10.1-1 13.1-1.9 2.9-1.9 2.9-2.7.7-1.1-3-4.1-3-3.5 0l1.1 6.2c.4 2.1 1.6 5.1 2.7 6.6 5.4 7.4-1.3 10.6-34.7 17.1-6 1.1-12.1 2.7-13.5 3.4l-2.5 1.4h3.5c3.1.1 19.2-2.6 44.6-7.3 4.4-.8 10.5-2.4 13.5-3.5 9.2-3.4 12.4-3.6 14.9-1.1 2 2 2 2.3.6 3.9-2 2.2-2 4.8-.1 8.1 2.1 3.6 1.8 6.8-.6 8.1-1.8.9-2.4.8-3.1-.5-1.4-2.6-5.7-1.9-8.6 1.3-6.7 7.4-8.4 10.1-7.3 11.5.6.7 2.2 1.1 3.5.9 2-.4 3 .3 5.1 3.5 3.8 5.8 7.5 6.7 7.5 1.9 0-2.7 2.4-6.3 5.1-7.8 3.1-1.6 5.9 1.4 5.9 6.4 0 3.4-.6 4.5-4.5 8-5.8 5.3-6 9.3-.4 12.1 3.7 1.8 3.6 5.7-.1 9.5-4.3 4.2-7 4.2-7-.3 0-3-.6-3.7-5.7-6.7a25.4 25.4 0 0 1-7.3-6.1c-1.4-2.6-1.4-2.8 2.3-6.1 4.2-3.9 4.3-4.4 2.1-7.6-3.7-5.2-15.2-7.9-17.6-4.1-.7 1.1-2.3 2-3.5 2-1.2 0-5.2 1.7-9 3.7l-12.4 6.4c-3.1 1.5-8.5 4.5-12 6.6-14.6 8.8-16.3 8.3-6.4-1.8 8.3-8.3 19.6-17.9 21.2-17.9 2.3 0 9.7-7.8 12.4-13.1 1.6-3.3 2.7-5.9 2.4-5.9-2.2 0-28.3 21.2-47.5 38.6-8 7.2-18.5 16.3-23.5 20.2l-13.2 10.7c-2.3 2-8 5.3-12.6 7.4a41.3 41.3 0 0 0-10.3 6.2c-1.2 1.6-2.7 2.3-4.4 2.1-1.6-.2-4.3 1-7.4 3.3-2.7 1.9-5.1 3.3-5.4 3-.2-.2.7-2.4 2.1-4.9 2.8-5.1 2.3-5.9-1.3-2.1-4 4.3-6.1 2.9-7.4-5-1.1-6.4-1.6-7.5-3.5-7.5-1 0-2.8-1.1-4-2.4-1.8-1.9-2.4-4.2-3.2-12.2-.5-5.4-1.2-11.4-1.5-13.4-.8-4-.1-3.6 3.2 1.7 1.5 2.4 2.3 3.2 2.4 2 0-2.5.8-2.2 6.1 2.8 5.4 5.1 6.4 5.3 8.1 2.5 1.5-2.4 3.6-2.6 4.4-.5.9 2.2 2.4 1.8 2.4-.5 0-4.6 4.9-.5 7.3 6.1.9 2.4 2.3 7 3.2 10.1.8 3.2 2 5.8 2.5 5.8s1.4-2.5 2.1-5.6c1.1-4.7 1-10-.6-32.3-1-14.6-1.9-28-1.9-29.6l-.1-3 7.3-.7c20.1-1.7 37.6-4.2 34.7-4.9-4.9-1.1-17.2-.9-30.4.5-14 1.4-16.1 2.6-16.1 9.5-.1 6.8-1.6 11.6-4.8 14.9-5.1 5.4-5.3 15.2-.4 15.2 2.5 0 4.2 1.9 4.2 4.7 0 3-3.7 3.1-7.4.2-3.5-2.8-4.8-6.2-3.6-9.4.7-1.9.6-2.5-.4-2.5-.8 0-2.2 2-3.1 4.4l-1.7 4.3-5.1-2.6c-6-3.1-10.6-9-11.4-14.7-.4-3.4-.1-4.3 2.5-6.7 1.7-1.7 6-3.8 10.3-5.2l7.4-2.4-5.7.6c-9 .9-14.3-1.4-7.1-3.1 8.1-1.9 10.9-4.9 5.7-6.2-1.7-.4-4.5.1-7.8 1.5-7.4 3.1-9.6 2.8-9.6-1 0-3.7-1.4-6.5-4-7.9-2.6-1.4-7.5.8-12 5.5-1.9 1.9-4.2 3.5-5.2 3.5-1.1 0-3 1.1-4.3 2.5-3.5 3.4-3.4 8.6.1 11.4 3.3 2.6 5.5 2.6 13.3 0a19 19 0 0 1 6.8-1.6c.2.3.1 3.4-.4 6.8-1.1 8.6-3.4 10.1-17.5 11.9-9.4 1.1-10.7 1.1-13.7-.4-3.8-2-7.1-7-7.1-10.9 0-2.6 1.4-4.5 6.4-8.5 3.5-2.8.1-14.2-4.3-14.2-1.4 0-2.1.9-2.6 3.2-.9 4.1-2.2 5.8-4.6 5.8-2.3 0-3.3-3.6-2.6-8.9.6-4.6 1-5.4 10.9-21.3a199.2 199.2 0 0 0 20.9-42.8c2.3-8.8 10.1-25.3 13.8-29.4 1.4-1.5 5.9-4.3 10-6.2 4-1.9 9.6-5 12.3-7.1 6.8-5 15.5-7.9 31.9-10.8 13.3-2.3 20.2-4.5 21.6-6.8 1.1-1.9-11.6 0-27.4 4.1-20.9 5.4-42.2 15.3-50.2 23.2-6.3 6.3-11.8 16.4-17.4 32.5a233 233 0 0 1-21.4 46.3 61.7 61.7 0 0 0-9.3 28.3c0 7.5 4.5 16.5 11.9 23.9 6.2 6.2 11.3 8.5 28.1 12.6 12.2 3.1 14.1 4.9 16.9 16.3a71.6 71.6 0 0 0 20 35.9c5.4 4.6 8.1 9.4 8.1 14.5 0 6.2-5.8 8.9-10 4.7-3.5-3.5-10-1.9-10 2.3 0 3.1 1.8 4.7 5.2 4.7 4 0 6.6 3.1 7.3 8.7.8 6.7 3.4 15.3 4.6 15.3.6 0 1.9-.5 3-1 2.3-1.3 2.6-4 .4-4-.8 0-1.5-.9-1.5-2.1 0-1.6.4-1.9 2.3-1.4 1.2.4 3.4 1.8 4.8 3.2 1.7 1.6 2.9 2.1 3.3 1.4 1-1.5 3.6-1.4 6.9.3 3.1 1.7 3.3 1.4 1.1-2-2.6-3.9-1.4-11.1 2.5-14.6 6.4-5.7 11.3-2.1 9 6.5-.6 2.3-2.1 6.2-3.4 8.7-1.2 2.5-3 6.9-3.9 9.7-1 2.9-2 5.3-2.3 5.3-.3 0-1.6-.9-3-2-3.5-2.7-5.3-2.5-5.3.5 0 3.1-.3 3.1-4.4 0a12.9 12.9 0 0 0-4.4-2.5c-1.3 0 3.2 8 8.4 15.1a22 22 0 0 1 3.4 5.7c0 1.3-9.9 12.2-11 12.2-.5 0-1.7-2.7-2.6-6-1.1-4-2.4-6.5-3.8-7.3A90 90 0 0 0 145 489c-18.7-.8-19.5-1.1-32.7-13.3-5-4.7-11.2-9.4-13.7-10.5-6.8-3.1-7.3-8-1.9-19.2l2.7-5.4-1.7-6.6a64.5 64.5 0 0 0-13.6-25.9c-7.8-8-35.6-20.6-51-23-4.3-.7-5.3-.5-6.7 1-.9 1-3.3 2.1-5.3 2.5-7.2 1.2-11.1 2.5-11.1 3.7 0 .7-1.6 3.4-3.5 6.1a28.2 28.2 0 0 0-3.5 5.8c0 1.8 2.8.6 4.8-2.2 1.2-1.6 3.6-3.7 5.3-4.5a20.8 20.8 0 0 1 15.3-.4c5 2.4 4.2 3.6-3.1 4.4-9.3 1-12.7 2.6-15.8 7.5-2.3 3.6-3 4.1-5.8 3.8l-3.2-.3.1 17c0 15.8 1.5 32 3.5 37.2a6.8 6.8 0 0 0 3 3.3c1.7 1 17.1 4 20.1 4 1.4 0 7.8 6.2 7.8 7.6 0 .7 1.6 6 3.6 11.6 2 5.7 3.8 12.3 4.1 14.7.2 2.5 2.2 7.9 4.3 12.1 2.1 4.2 4.2 9.4 4.6 11.6.4 2.1 1.6 5.2 2.6 6.7a66 66 0 0 1 5 10.5c1.6 4.2 3.8 8.6 4.8 9.7 1 1.1 4.4 6.3 7.5 11.5 3.1 5.2 6.7 10.6 7.9 12 1.3 1.4 2.8 3.9 3.5 5.6.7 1.8 3.1 4.2 5.9 6 6.1 3.8 11.2 8.3 11.2 9.9 0 2.7 4.4 6.5 11.3 9.8 4 1.9 8.7 4.6 10.4 6.1 3.3 2.8 8.3 4.9 14.4 6 2 .3 5.4 2 7.4 3.6a45 45 0 0 0 20.2 8.8c6.8.9 9.3.6 9.3-1.3 0-.7 1.8-2 4-2.9 3-1.2 4-2.1 4-3.8a8 8 0 0 1 .9-3.7c1.4-2.2 3.9.2 6.7 6.3 1.3 2.9 2.5 4.4 2.8 3.5a193 193 0 0 1 9.7-28.2c1.6-3.1 3.5-5.7 4.3-5.7 1.5 0 3.6 4.1 3.6 7.3.1 2 .1 2.1 1.1.4 1.1-1.9-1.2-15-3.2-19-1.5-2.6-2.7-2-3.1 1.5-.4 4.7-2 4.4-4.9-1l-5.3-9.5c-4.6-7.8-4.6-14.2-.1-28.6 3.6-11.7 3.7-12.2 2.4-17.3-.9-3.3-1.3-10-1.3-17.5.2-11.3 0-12.2-1.7-12.5-1.1-.2-2.1-.7-2.2-1.2-.4-1.5 2.9-2.9 5.4-2.3 2 .5 3.1 2.2 5.3 7.9a246.8 246.8 0 0 0 35.3 60.1 165.9 165.9 0 0 1 23.3 33.5l6.1 11.2-8.9 9.8c-14.3 15.5-16.3 18.2-12.9 18.2 2.7 0 39.7-34.2 39.7-36.7 0-1-.4-1.1-1.9-.3-6.3 3.3-3.2-1.8 11.5-18.9a110.2 110.2 0 0 1 25.6-23.5c4.2-2.1 8.5-6.3 7.5-7.3-.4-.3-1.6.2-2.7 1.2-2 1.9-2.2 1.9-5.6 0-2-1.1-3.8-1.5-4.2-.9a978 978 0 0 1-27.5 31.3c-4.7 3.8-9.4-2.4-12.2-16.1a32.4 32.4 0 0 1 1.9-21.7c1.9-3.7 7-7.9 10.4-8.7 1.5-.4 3.4-1.3 4.2-2 6.2-5.4 19-7 26.5-3.4 4.3 2.1 8.5 5.5 8.5 6.9a23 23 0 0 1-3.5 5.2c-2.5 2.9-3.3 4.5-2.5 5.3 1.4 1.4 6.8-4 20.3-20.4 19.6-23.9 25.6-30.1 28.6-29.8 2.1.2 2.7.9 2.9 3.6.4 3.8-.7 5.4-6.3 9.4a40.3 40.3 0 0 0-7 6.7 420.1 420.1 0 0 1-19.9 24.1c-1 .8-2.2 2.4-2.7 3.6-.5 1.6-1.8 2.4-4.1 2.6-2.8.3-3.3.7-3.5 3.1-.3 3.7-2.9 7.9-11.8 18.4a92.6 92.6 0 0 0-9.6 13.2c-2.5 5.4-18.8 22.3-33.4 34.6-23.2 19.6-25.6 21.4-30.8 23.1-6.7 2.1-7.7 3-7.7 6.5 0 3.4 1.9 4.8 3.5 2.6 1.7-2.4 2.7-2.1 2.3.5-.3 2.1-.8 2.3-5.5 2l-5.2-.3-6.3 7.8c-3.5 4.3-8.4 10.1-11 12.9-5.3 5.6-6.4 9.1-2.5 7.9 5.8-1.8 6.7-1.8 6.1-.1-.3.9-1.7 1.6-3 1.6-5.7 0-13.2 6.1-22.9 18.5a379 379 0 0 1-15 16.7c-6 6.5-12.7 14.4-14.8 17.5a30.2 30.2 0 0 1-5.3 6.6 21 21 0 0 0-4 4.9c-1.4 2.2-3.4 4.3-4.5 4.5-1 .3-1.9 1.2-1.9 1.9 0 .8-1.9 2.7-4.2 4.4-6.8 5-18.8 19-18.8 22 0 3.3 3.1 3.1 7.9-.4 6-4.5 12-10.8 34-35.9 18.8-21.4 30.5-32.4 34.9-32.9 1.8-.2 2.8-1.2 3.6-3.4a26 26 0 0 1 3.8-6.5l2.8-3.4 2.2 2.6a28 28 0 0 1 3.4 4.5c.8 1.4 1 .4.6-4.4-.5-7.5.8-10 10.8-21.1a1444 1444 0 0 0 13.2-14.8c20-22.7 33.2-36.3 35.3-36.3 2.7 0 4.7 2.2 7.2 8 1.1 2.5 5.5 9.2 9.7 14.9a95 95 0 0 1 7.6 11.2c0 .4-1.2.9-2.7 1.1-4.2.5-3.5 3.1 1 4a31 31 0 0 1 6.7 2.3c3.1 1.6 14 12.1 14 13.5 0 1.6-15.7 15.6-19.5 17.5-2.2 1-5.8 2-8.1 2.1-2.3.1-5.2.9-6.6 1.8-2 1.3-3.1 1.4-5.6.5-4.8-1.6-4.3-5.1 1.1-7.9 2.9-1.5 3.9-2.7 6.9-9.3 1.7-3.6 1.7-3.7-.1-2.7a141 141 0 0 0-16.9 15.1c-.3.7 3.9 7.8 9.6 16.2 3 4.5 9.7 8.7 13.8 8.7 1.6 0 4-.9 5.4-2 6.2-4.9 11.9.4 7.4 6.9-1.6 2.2-8.6 6-11.2 6.1-2.2 0 .8-3.5 5.7-6.6 3.1-1.9 4-3 2.9-3.2-1.9-.4-7.1 2.3-14 7.3a74.8 74.8 0 0 1-14.5 6.6 42 42 0 0 1-17.8 3c-12.5-.3-22.5-3.5-26.6-8.5-2.8-3.2-2.3-.2 1 6.4a98.8 98.8 0 0 0 19.1 25.5c14.9 16.1 25.9 34.8 26 43.9 0 2.5.6 4.3 1.7 5.1 1.7 1.3 1.7 1.4 0 3.2-2.4 2.7-2.2 3.1 1.6 3.5l3.2.3-3.5 1.9-3.5 2 3.5.7c4.7 1 7.4 4.5 10.1 13 1.2 3.9 3.3 8.7 4.6 10.6 1.3 1.9 3.1 6.7 4.1 10.6 1.3 5.6 2.2 7.4 4 8.2 1.2.5 2.2 1.6 2.2 2.5 0 .8 1.5 4 3.4 7 1.9 3.1 3.8 6.8 4.2 8.4.3 1.5 1.3 3 2 3.3 1.9.7 1.8 3.7-.1 5.3-2.1 1.8-1.9 2.9.9 3.6 3.1.7 7.1 5 9 9.5 1.8 4.4 1.1 5.5-2.1 3.3-2.4-1.5-2.4-1.5-2.1 1.3.2 2.4 1 3 4.8 4.2 8.5 2.6 9 2.9 9 5.6 0 3.3 1.7 3.1 5.9-.5 1.9-1.6 3.6-2.8 3.7-2.7.8.8-11.3 22.8-14.2 25.7-3 3.2-3.4 4.2-3.4 9 0 3 .7 8.9 1.6 13 .8 4.1 1.3 8.7 1 10.2-.5 2.6-.3 2.8 2.5 2.8 3.8 0 9.8 2.5 11.5 4.8.7.9 1.4 3.8 1.4 6.4 0 4.3.3 4.9 4.6 8.4l4.5 3.7-2.9 1.3c-1.6.6-5.4 2.9-8.3 4.9-4.3 2.9-6 3.6-8.6 3.2l-3.1-.5 1.6 2.9c1.4 2.5 1.5 3.1.3 3.8-2 1.3-.5 2.9 3.2 3.6 2.7.5 15.4-.8 16.2-1.7.2-.2.5-1.2.7-2.3.4-2.4-1.3-2.4-8.4-.4-2.6.7-5.1.9-5.5.5-.4-.5-.2-1.1.6-1.4.8-.3 3.3-2.2 5.6-4.3 5-4.6 8.4-5 12.7-1.4 1.6 1.4 4.7 2.8 6.9 3.1 3.1.5 3.9 1.1 3.9 2.8 0 3.4-3.1 7.1-13.9 17.1-11.3 10.3-15.2 12.3-32.2 16.9a229 229 0 0 0-14.9 4.5l-5.5 2.1 6-.4c14.4-.7 36.6-5.5 41.8-9 1.7-1.2 4-3.9 5.2-6a124 124 0 0 1 11-14.5 144.2 144.2 0 0 0 17.1-22.1c2.7-5.1 4.5-7 6.3-7 .9 0 4.6 2.9 8.1 6.5s6.8 6.5 7.3 6.5c1.3 0-.2-4-3.9-10a23.6 23.6 0 0 1-3.4-7.8c0-1.8-.4-2.2-1.9-1.7-4.2 1.3-7.1-2.5-9.2-12.6-.6-3-1.9-7-2.9-8.9-1-1.9-2.6-7.3-3.5-12a60.6 60.6 0 0 0-3.7-12.4c-2.5-4.9-2.2-5.9 5.8-22 4.7-9.2 6.2-13.1 5.3-13.6-.8-.6-1-2.3-.5-5.9.6-4.2.4-5.1-.9-5.1-2.2 0-2.9-2.5-1.7-5.9.8-2.3.7-3.2-.4-4.2-2.8-2.3-1.5-4.8 4.7-9 4.3-2.9 5.8-4.4 5-5.2-.7-.7-1.6-.6-2.9.6-2.9 2.6-3.4 2-1.7-1.9.8-2 1.5-5.8 1.5-8.4 0-5.7 1.7-11 3.5-11 2.1 0 2.7 1.7 1.5 4-1.7 3.3 1.4 2.5 4.4-1.1 4.4-5.2 3.2-7.9-3.6-7.9-4.3 0-8.3 4.5-10.3 11.6-3.1 11.1-5.7 17.4-7.3 17.4-1.3 0-1.4-1.3-.8-8.5.5-7.2.4-8.7-.9-9.1-2.2-.9-4.5 1.4-4.5 4.6a7 7 0 0 1-2 4.5c-1.1 1-2 2.5-2.1 3.4 0 .9-.7.1-1.5-1.8-.8-1.8-1.4-5.4-1.2-7.9.3-4.1.8-5 4.4-7.7 2.3-1.8 9.6-5.6 16.3-8.5a89.1 89.1 0 0 0 12.7-6.2c.4-.5-.3-1.2-1.5-1.5-2.9-.7-2.6-1.5 1.1-3.8 4.3-2.5 1.6-3.4-2.9-1-2.5 1.4-3.2 2.3-2.7 3.7 1.2 3.9-4.8 6.6-7.5 3.4-1.4-1.7-.4-4.1 2.8-6.8 2.7-2.3 1.8-4.4-2.5-5.8-5.6-1.9-7.9-1.1-7.9 2.7 0 1.8-.3 3.3-.7 3.3-.5 0-.8-.5-.8-1.1 0-.5-1.6-1.7-3.6-2.5-2.9-1.2-4.3-1.3-7-.4-3.1 1.1-3.5 1.5-3.2 4.3.3 2.7.7 3.2 2.8 3 2.4-.2 2.3-.1-.5 1.2-1.6.8-4 1.4-5.2 1.5-2.1 0-5.3-2.3-5.3-3.9 0-2.3 5-6.5 11.9-10.1 4.2-2.2 9.2-5.6 11-7.4l3.3-3.4-2.3-1.2c-1.4-.8-4.1-1-7.2-.7-9.6 1.2-11.4-2.9-4.3-9.9 6.4-6.5 11.2-5.9 7.7 1-2.1 3.9-1.7 4.4 1.6 2.1 2-1.4 2.3-1.4 3.3.5 1.5 2.8 6.8 5.3 10 4.7 2.9-.6 11.9-5.8 12-6.9 0-.4-1.9-2-4.2-3.5-2.4-1.6-4.4-3.6-4.6-4.5-.2-.9 1.2-3 3-4.8 3.1-3 3.2-3.1.8-2.5a21.3 21.3 0 0 0-10 7.5c-2.9 4-4.6 3.8-7-1-2.4-4.6-5.1-5.2-8.7-1.8l-2.3 2.1v-3.6c0-2.5-.5-3.7-1.4-3.7-2.7 0-3.5 2.3-2.4 7.2 1 4.4.9 5-1.5 8.7a59.6 59.6 0 0 1-10.4 9.9c-8.4 6.4-12 9.9-11 10.8 1 1.1 4.2-.6 9.7-5.1 7.6-6.3 12.6-6.1 8.1.3-1 1.5-2 3.2-2.2 3.8-.2.7-2.4 2.7-4.8 4.5-5.6 4.3-8.6 8.3-7.8 10.4.5 1.3 1.1 1.4 2.7.5 2.4-1.3 2.5-.7.5 2.4-2.6 3.9-.1 5 10.4 4.4 7.3-.4 10.2-1.1 15.6-3.7a109 109 0 0 1 7.1-3.1c.2 0 .4.8.4 1.8 0 4.9-8.7 8.2-22.6 8.6-5.6.2-10.9.8-11.9 1.4-1.7.9-1.7 1 .4 2.2 1.6.8 2.1 1.8 1.8 3.1-.6 2.4.1 2.4 3.3-.1 3-2.4 6.3-2.5 8-.5 1.6 1.9.5 3.2-3 3.7-2.1.3-2.7 1.2-4.2 6.8-.9 3.6-2.2 7.3-2.8 8.2-.5 1-1 2.6-1 3.5 0 1-.7 3.1-1.5 4.7-1.7 3.3-1.4 4.4.5 2.1 2-2.4 4.9-1.8 5.6 1 1.4 5.5-2.6 14.5-6.3 14.5-.9 0-4 2.5-7 5.6-5.2 5.5-5.4 5.6-7.3 3.9-1.3-1.1-2-3.1-2-5.2 0-3.9-1-6-5.7-12.2a16.3 16.3 0 0 1-3.3-6.5c0-1.4-1.1-2.6-3.3-3.6-3.7-1.8-4.6-4.4-2.2-7 2.2-2.5 1.2-5-1.9-5-1.9 0-3-.9-4.2-3.2-.9-1.8-3.8-6-6.4-9.4a59.8 59.8 0 0 1-11.5-24.4c-1-4.1-2.4-8.8-3.3-10.4-1.4-2.8-1.3-3.1.8-4.8 1.2-1 4-2.1 6.1-2.4 4.7-.8 6.1-2.4 2.2-2.5-1.5 0-5.7-.6-9.3-1.3l-6.5-1.2 6.5-3.1 6.5-3.1-6.3.6c-5.1.4-6.6.2-8.2-1.3-1.1-1-2-2.4-2-3.1 0-2 4.1-5.4 6.4-5.5 1.2 0-.2-.9-3.1-2a20.8 20.8 0 0 1-7.5-4.9c-7.2-9.2-6.9-8.6-5-10.3 4.2-3.8 11.4-5.4 26.7-6.1 24-1.1 27.8-1.9 43.4-9.7 7.5-3.7 19.1-10.4 25.9-14.8 6.8-4.5 12.7-8.1 13.1-8.1.5 0 1.5 1 2.4 2.3.8 1.3 3.9 4.9 6.8 8.1 2.9 3.2 6.3 8 7.5 10.7 1.4 2.9 6 8.7 11.5 14.4 8 8.3 9.9 9.7 14.3 10.9l22.3 5.7c4.6 1.1 8.3 4.8 8.3 8.3 0 2.9 2.7 6.6 4.4 6 .8-.3 2.3-2.7 3.5-5.3 2.5-6 4.6-7.9 5.8-5.6.8 1.4 2.2.8 9.3-4 4.6-3 8.8-5.5 9.2-5.5.4 0 .8-1 .8-2.1 0-1.8.4-2 2.8-1.4 1.5.3 4.2.8 6 .9 4 .3 6.6 2.8 15.3 14.3 3.7 5 7.3 9.4 7.9 9.8 1 .6 1.5 5.5.5 5.5a33 33 0 0 1-4.2-1.5c-4.7-2-6.6-1.9-8.7.4-1.6 1.8-1.5 1.9 2.2 2.5 4.9.7 7.9 3.6 3.5 3.3-1.9-.1-2.8.3-2.8 1.3 0 2.1 3.2 2.4 6 .6 5.1-3.3 9.3-.8 10.2 6.3.9 6.3-.4 11-3.3 12.1-2.8 1.1-2.9 2-.9 7.7.8 2.3 1.2 4.9.9 5.6-.3.9.8 2.3 3 3.7 2 1.2 3.6 2.7 3.6 3.5 0 1.7-4.4 4.5-7.1 4.5-1.1 0-3.6 1.5-5.5 3.4-4 4-4.4 8.1-1.5 14.7 1.1 2.4 1.8 4.6 1.5 4.8-.2.3-1.9-1-3.7-2.7l-3.4-3.3-.9 2.3c-1 2.2-.7 4.9 1.4 13.1.8 3.1.7 3.9-.4 4.3l-2.9.9c-1.9.6-2 4.4-.1 5.1.8.3 2.8-.2 4.5-1 4.3-2.3 6.1-2 6.1.7 0 2.3-3.3 6.7-4.9 6.7-.5 0-1.4-.7-2.1-1.5-.7-.9-2-1.3-2.7-1-2.4.8-4.8-1.1-6.8-5.4-1.8-4-3.5-4.6-3.5-1.2 0 .9 1.6 4.1 3.5 7.1 4.2 6.7 4.8 12 1.3 12-1.3 0-4.1 1.4-6.2 3-5.4 4.1-7.6 4-7.6-.4 0-1.9-.4-3.7-.9-4-1-.7-2 3.2-3 12.5-1.4 11.3-5.6 16.9-12.6 16.9-4.4 0-7.1 3.8-7.9 11-.9 7.6-1.3 8.5-3.3 6.9-2.2-1.9-3.5.7-3 6.4.4 5.1 2.9 8.7 5.9 8.7 1 0 3.7-.9 5.9-2l3.9-2.1 2.4 2.4c2.4 2.4 4.3 9.7 3.1 11.7-1.1 1.8-2.4 1.1-2.7-1.8-.4-3.9-3.5-3.9-8.8-.1l-4.5 3.3 3.2.8c1.8.5 3.7 1.7 4.3 2.8.9 1.7.7 2.2-1 2.8-2 .7-2 .9-.6 2.1 3.6 3 1.3 5.9-6.1 8-3.6 1-4.2.5-1.6-1.4 2.8-2.1.9-4.5-3.7-4.5-5.4 0-8 1.5-8 4.5 0 2.9-1.5 3.4-11.5 3.7-5.7.3-7 .6-7.3 2-.3 1.6.7 1.8 9.7 1.8 5.8 0 10.1.4 10.1 1 0 1.6-8.2 3.2-16.4 3.2-6.7 0-8.7-.5-14.1-3.1-9.8-4.8-11.1-4.1-3.9 2.2 5.4 4.7 5.7 8 .9 8.5-6 .5-7.4 1.3-10.2 5.5a33.3 33.3 0 0 0-3.5 5.9c-1 2.5 1.3 4.8 5.4 5.5 5.1.8 9.4-1.2 10.7-4.8.5-1.6 1.7-2.9 2.6-2.9a31 31 0 0 0 7.5-3c7.3-3.7 11.9-3.9 15.7-.6 3.7 3.2 2.3 4.3-3.2 2.8-7.3-1.9-7.8-1.8-6 1.9.9 1.7 1.5 3.2 1.3 3.2-3.2 1.6-4.4 2.9-4.6 5.1-.4 3.2-.7 3.2-4.4.1-1.6-1.4-3.6-2.5-4.4-2.5-.8 0-4.5 1.6-8.1 3.5-6.9 3.7-8.1 3.6-11.7-.4-1.1-1.2-2.7-2.1-3.8-2.1-1.6 0-1.8.9-1.8 6.7v6.8l-2.2-3.7a12.6 12.6 0 0 0-2.8-3.8c-.4 0-1.1 2.4-1.6 5.2-.7 4.4-1.3 5.4-3.1 5.6-1.3.2-2.3 1-2.3 1.8 0 1.7-2.1 1.9-3.7.3-.8-.8-1.6.1-3.1 3.3a17.2 17.2 0 0 1-12 9.9c-5.6 1.2-8.2.2-8.2-3.2 0-3.9-2.3-3.8-6.3.5-4.6 4.7-18.2 11.9-21.3 11.2-1.9-.5-2.4-1.3-2.4-3.7 0-3.5 2.9-9.6 5.9-12.3 2.4-2.2 2.8-4.6.6-4.6-2.5 0-9.7 7.2-11.5 11.6-2.6 5.9-6.8 8.5-14.3 9.1-7.5.5-11.1-1-11.5-5-.2-1.5-.6-2.7-1-2.7a21 21 0 0 0-4.3 3.6c-2.1 2-4.2 3.3-4.8 3-2.5-1.6-.7-5.1 5.9-12.1 6.5-6.9 8.5-10.5 5.9-10.5-.6 0-4.1 2.9-7.7 6.4a43.6 43.6 0 0 1-9 7.1c-5.7 1.7-6.1 7.5-.8 12.4 3.7 3.5 8.7 4 39.1 4 29 .1 31.1-.2 49-5.8 5-1.6 16-6.3 24.5-10.4 8.5-4.1 20-9.4 25.4-11.8a55.8 55.8 0 0 0 15-8.9 202 202 0 0 1 12.1-10c3.9-3 7.2-5.7 7.3-6.2 1.1-2.5 2.2-.1 2.2 4.4-.1 12.7-8.8 43.4-15.1 52.7-3.2 4.8-5.1 6.3-13.1 10.7-9.6 5.2-14 9.7-15.4 15.6-.6 2.5-.4 2.8 2.1 2.8 2.8 0 4.7-1.7 10.7-9.9 3.5-4.7 3.9-5 11-8 4.2-1.7 4.9-2.6 8.2-9.5 2.3-4.7 4.7-8.3 6.4-9.4 1.5-.9 2.9-2.6 3-3.7a45 45 0 0 1 3.8-8.1c3.9-7 4.2-8.4 1.4-8.4-2.4 0-2.4.7-.4-9.9 1.6-8.6 3.4-13.4 5.5-14.7 2.6-1.6 8.2-2.1 11.9-1.2 8.4 2.2 11.3 10.4 7 20.1-2.1 4.7-5 21.1-5 28.4 0 3.8-.3 4.3-2.3 4.3-4.2 0-12.7 10.4-10.3 12.7.9.9 11.3-6.6 16-11.7 5.5-5.9 6.4-9.5 3.7-14.9-2.4-4.5-2.5-5.1-1.2-5.1 2.1 0 7 5.3 9.1 9.7l2.2 4.7-2.1 1.4c-2.8 1.9-2.7 2.9.9 6.2 3.1 2.9 3.9 6.5 2 10.1-1.3 2.3-2.8 2.4-5.2.2-2.4-2.1-2.3-.5.2 2.7 2.4 3 2.5 4.4.5 6-2 1.6-5 .5-9.8-3.9-2.4-2.2-3.6-2.8-3-1.6.6 1.1 2 2.9 3.2 3.9 2.2 2 4.7 8.3 3.7 9.4-.4.3-2.5.1-4.7-.5l-4.1-1.1.5 2.8c.8 3.7 0 4.2-3.4 2.5-3.9-2.1-5.2-1.9-4.6.6.8 3.1-.2 4.8-4.2 6.8a23 23 0 0 0-5.5 4 7 7 0 0 1-4.7 2.1c-2.5 0-3-.5-3.9-4.1a16 16 0 0 1-.7-6c1-3.9-.9-1.7-2.1 2.3-2 6.6-4 8.5-10.8 10.2-6.1 1.6-10.4 2-10.4 1.1 0-.2 1.1-2.1 2.5-4.1 4-5.9 1.8-6.3-8-1.5-10.2 5-12 5-11.9.1 0-1.9.4-4.3.8-5.3 1.6-3.5-2.1-1.7-9 4.6-3.9 3.4-8.8 7.7-11 9.4l-3.9 3.3 27-.6c32.4-.6 52.3-2 58.7-4 5-1.6 14.5-8.1 18.8-12.9 1.4-1.5 4.1-3.8 6.1-5.1 3.8-2.3 4.3-3.4 8.7-17.1 1.8-5.7 1.9-6.7.6-12.5a171 171 0 0 1-2-17.3 38.7 38.7 0 0 1 2.8-21.5c8.4-25 9.9-45.7 3.8-55-7.6-11.8-8.2-13-7.5-15.7.3-1.4 3.4-5.6 6.9-9.2a85 85 0 0 0 17.1-25.1c4.6-9 4.8-10 5.4-20 .9-14.6 1.7-15.7 15.8-22.7 12.2-6 15.6-9 17.4-15.6.6-2.3 2.9-7.4 5-11.3 2.4-4.3 3.9-8.4 3.9-10.5 0-3.8-5.9-20.3-9-25.4-3.8-6.2-9.6-8.1-14.5-4.9-2 1.3-2.8 1.4-4 .4-1.7-1.4-3.9-8.6-3.1-10.5 1.2-3.2-6.9-33.7-11.3-42.3-1-2-2.2-5.3-2.6-7.2-1.6-7.3-7.9-25-11.5-32-2.6-5.2-2.5-9.2.6-18.1 1.8-5.4 2.6-9.7 2.7-16.1.1-4.7-.1-9-.5-9.4-.5-.4-1.7.1-2.8 1.1-1.1 1-2 1.4-2 .9l-3.5-19.7a422.3 422.3 0 0 0-15-59.3 369.3 369.3 0 0 0-31-58.7l-5.8-8.6 5.3-5.8a103 103 0 0 0 22.6-36.2c1.4-5.1 1.6-7.1.7-10.9-3.9-16.7-13.6-35.1-29.9-56.8-7.8-10.3-7.4-15.6 1.8-24 2.4-2.2 4.8-5.3 5.3-6.9.8-2.2 2.2-3.4 5.8-4.7 9.6-3.6 12.2-6.9 15.9-20.2 3.9-14.2 6.5-18.1 21.5-32.3 7.6-7.1 16.3-14.5 19.3-16.5 7.7-4.9 11-9 11-13.8 0-3.3-.4-4-3.5-5.5a10.9 10.9 0 0 0-6.7-1c-4.5 1-10.6 7-12 11.9a38 38 0 0 1-6.6 10.6c-7.6 9.1-31 33-32.3 33-.7 0-.8-2.2-.3-6.7l.7-6.6-3.4 2.3a144.8 144.8 0 0 0-24.1 25.8c-8 10.8-8.4 11.2-11.4 11.2-2.7 0-5.5-3.2-8.9-10-6.2-12.4-32.6-41.9-40.3-45-2.9-1.1-3.4-1.1-4.7.6-1.3 1.7-1.4 1.6-1.5-2.3v-4.2l-8-4.1a63.4 63.4 0 0 1-25.5-25.6 77.6 77.6 0 0 0-14.1-17.9 55.5 55.5 0 0 1-9.9-11.5c-.4-1.4-2.3-4.3-4.2-6.5a273.4 273.4 0 0 1-22.8-46c-1.5-4.4-5.6-14.1-9.1-21.5-7.3-15.5-7.9-19.2-3.8-24.5 4.1-5.4 15.5-13.5 33.9-24 9.3-5.4 20.3-12 24.4-14.8a165.4 165.4 0 0 0 35.6-35.6l18.4-23.6A158.8 158.8 0 0 0 426.2 51a69.2 69.2 0 0 0 2.3-20c0-13.7-2-21.4-6.8-26.6-4.4-4.7-8.1-5.2-13.2-1.8zm-7.8 16.1c.7 1.7-2.9 5.3-5.3 5.3-1.9 0-1.7-1.3.7-4.4 2.4-3 3.7-3.3 4.6-.9zM391 45c-2.4 3.3-5 4-5 1.2 0-2.5 1.9-4.2 4.8-4.2h2.3l-2.1 3zM266 209.9c0 2-2.5 3.5-4.1 2.5-1.3-.8.9-4.4 2.6-4.4.8 0 1.5.9 1.5 1.9zm24.6 28.2c1 1.7-2.3 4.6-3.8 3.1-.8-.8-.8-1.5.2-2.7 1.5-1.8 2.6-1.9 3.6-.4zm19.7 45.3c.7 1.8-4.6 8.1-6.1 7.2-2-1.2 1.6-8.6 4.3-8.6.7 0 1.5.6 1.8 1.4zm-11.6 5c-.8 1.9-3.7 2.1-3.7.3 0-.7.5-1.8 1.2-2.5 1.5-1.5 3.3.1 2.5 2.2zm14.3 5.1c0 1.4-.4 2.5-1 2.5-.5 0-1-1.1-1-2.5s.5-2.5 1-2.5c.6 0 1 1.1 1 2.5zm-192 30.1a25 25 0 0 1-3 5.2c-1.6 2-2 2.1-2 .7 0-2.1 3.8-8.5 5.1-8.5.5 0 .4 1.2-.1 2.6zm222 15.6c0 1.7-4.7.7-6.6-1.5a50.3 50.3 0 0 1-6.4-9.2c0-.3 2.9 1.8 6.5 4.7 3.6 2.8 6.5 5.5 6.5 6zm-8 10.2c0 5.4-1.2 7.6-4.1 7.6-3.6 0-3.6-4.7.1-10.8 2.7-4.3 4-3.3 4 3.2zm-56.2-.7a19.1 19.1 0 0 0-3.1 4.5c-.4 1.2-1.7 1.8-3.7 1.8-3.7 0-3.8-.9-.2-4.2 5.5-5.1 11.5-6.9 7-2.1zm73.6 1.9c1 2.6.7 9.1-.6 11.9-2 4.5-12.8 8.7-12.8 5 0-2.7 3.8-11.6 6.5-15.1 2.8-3.6 5.9-4.4 6.9-1.8zm7.6 5.8c0 1.9-1.7 2.9-3.7 2.2-1.2-.5-1.3-.9-.3-2.1 1.6-1.9 4-1.9 4-.1zm-56 6.6c1.4 1 3.6 3 4.9 4.4l2.5 2.6-4.4 3.8c-5.8 5-7.9 6.1-11.6 6.2-4.9 0-8.4-3.3-8.4-8.2 0-3.4.7-4.7 4-8 3.5-3.5 4.3-3.9 7.2-3.3 1.8.4 4.4 1.5 5.8 2.5zm69.5 4c0 3.5-2.9 4.8-5.4 2.6-2.5-2.3-2.6-3.9-.5-6.1 1.4-1.4 1.9-1.4 3.8-.2 1.1.8 2.1 2.5 2.1 3.7zm-11.5.5c4.5 2.4 6.7 8.4 3.9 11.2-.7.7-.3.9 1.5.6 2.8-.6 7.6 2 7.6 4a21 21 0 0 1-4.1 5.9c-5.8 6.9-9.2 6.3-10.5-1.9-.5-3.6-1-4.2-4.3-5.2-2.1-.6-4.8-2.2-6-3.5-2.1-2.2-2.2-2.8-1.2-5.7 2.3-6.8 6.9-8.6 13.1-5.4zm-47 8a14 14 0 0 1-1.4 5.4c-1.8 3.5-9.1 10.1-11.1 10.1-4.8 0-1-10.2 5.6-15 5.1-3.7 6.9-3.8 6.9-.5zm25.5 1.3c3.2 1.8 5.3 3.7 5.9 5.5 1.3 3.6.1 5.5-4.8 8-3.5 1.8-3.9 1.9-7.9.3-2.3-.9-6.2-3.4-8.7-5.6l-4.5-3.9 4.2-.1a25 25 0 0 0 6.8-1c2.2-.9 2.6-1.5 2.1-3.5-.8-3.2.6-3.2 6.9.3zm-53.9 2.6c5.1 5.1 4.7 8.4-1.8 13.6-6 4.7-8.6 4.9-10.7.5-.8-1.6-2.5-3.8-3.8-4.8-3.2-2.6-2.9-3.8 2.3-8.5 5.8-5.4 9.2-5.6 14-.8zm107.8.5c1.8.8 2.3 1.5 1.9 3-.4 1.7 0 2.2 2.6 2.7 2.2.5 3.3 1.4 3.7 3 1.4 5.4-2.3 5.8-9.2.9-6.6-4.7-8.1-4.4-4.1.9l5 7c2 2.9 4.7 3.3 8 1.1 1.9-1.2 2.6-1.2 5.5.2 5.6 2.7 9.8 10.7 7.2 13.8-2 2.4-2.9 1.8-3.2-2.3-.2-2.9-.7-3.7-2.3-3.8-1.1 0-3-.6-4.2-1.2-3.2-1.8-3.7.1-1.4 5.4 3.1 7 2.8 9.7-2 14.9a23.4 23.4 0 0 1-4.9 4.5c-.7 0-2.7-2.8-9-12.6-1.3-2.1-1.2-2.7 1-7.1 3.5-6.8 3.5-7 1.3-5.1-3.5 3.2-8.4 2.3-13.8-2.4l-4.7-4.2 2.6 5.1c1.4 2.8 2.8 6.9 3.2 9.1.5 3.4.2 4.4-2.4 7.3-2.6 3-3.5 3.3-7.6 3.1-5.6-.2-6.6 1.2-6.6 9.8 0 6.1-2.8 14-5.1 14a23 23 0 0 1-4.9-2c-6.7-3.4-8.3-1.8-3 2.8 1.7 1.5 3 3.4 3 4.3 0 1-1.3 3.1-3 4.7-3.1 3.2-4 6.2-1.7 6.2.7 0 2.8-1.6 4.7-3.5 1.9-1.9 3.9-3.5 4.6-3.5.7 0 3 3.7 5.2 8.2a170 170 0 0 0 8.6 15.3c2.5 3.8 4.6 7.3 4.6 7.7.1 3-10-2-19.5-9.7-16.4-13.2-30.3-26.5-31.6-30.2-1.1-3.3-1-3.7 1.1-5.3 2.9-2.2 1.6-3-4.4-2.8-6.2.1-9.6-2.7-7.8-6.6 1.3-2.9 8.8-8 11.5-7.8 1 0 3.5 1.5 5.6 3.1 4.9 3.9 6.8 4 3.9.1-1.8-2.5-2-3.5-1.2-5.8 1.9-5.4 16.7-11.8 18.9-8.1 1.2 1.8-.5 6.1-3.7 9.1-3.6 3.4-2.4 3.7 2.3.5a46.4 46.4 0 0 0 10.9-12.9c0-.4-1.6 0-3.4.7-4.2 1.8-5.5.5-3.3-2.9 1-1.5 2.9-2.5 5.4-2.9 4.2-.7 8-4 10.8-9.6a37.9 37.9 0 0 1 15-14.7c5.6-2.7 6.4-2.8 9.9-1.5zM259 381.6c0 .9-10.8 15.2-12.1 16-3.2 1.9-2-4 2.1-11.4 2.8-4.7 3.4-5.2 6.5-5.2 1.9 0 3.5.3 3.5.6zm-38 5.5c0 5.3-1.4 7.8-5.5 9.5-4.8 2-9.8 1.8-12.6-.5l-2.4-1.9 2.5-2.7a32 32 0 0 1 15.3-8.5c2.5 0 2.7.3 2.7 4.1zm-180.5 3.1 2.8 2.2-2.3 1.8c-3 2.5-5.4 2.3-8.7-.7-2.7-2.4-2.8-2.5-.9-4 2.8-2.1 5.9-1.9 9.1.7zm282.4-.7c4.8 2.4 5.2 7.7.8 9.1-1.2.4-4.1 1.5-6.4 2.6-2.3 1.1-5 1.8-6 1.6-2.6-.5-2.8-5.2-.4-10.4 1.9-4 2.4-4.4 5.7-4.4 1.9 0 4.8.7 6.3 1.5zM233 391c0 2.4 1.3 2.6 3 .5 3.5-4.2 5.9.3 3.5 6.3-2.2 5.4-3.8 5.8-7.4 1.7-2.8-3.2-3-4.4-1.5-9.3.6-2 2.4-1.4 2.4.8zm126.1 1.1c3.9 2.8 3.7 4.4-1.3 7.5-2.4 1.4-5 3.5-5.9 4.6-1.9 2.5-6.4 1.6-8.5-1.8-3.5-5.3 3.4-14.2 9.9-12.9 1.6.2 4.2 1.4 5.8 2.6zm-91 .6c4 2.4 6.2 7.4 5.4 12.4-.8 4.4-.6 4.5 3.5 2.4 1.6-.8 3.5-1.3 4.2-1 .9.4 1.9-1.2 3.2-4.7 3-8.5 9.7-13.3 13.4-9.6 2.4 2.4 1.2 5.7-4.8 12.5-3.7 4.2-6.2 8-6.6 10-.3 1.8-1.5 4.4-2.6 5.8-3.5 4.5-8.1 2.9-16.8-5.9a28 28 0 0 0-6.5-5.6c-.5 0-2.3 2.6-4 5.7a23.6 23.6 0 0 1-7.3 8.7c-4 2.8-4.3 2.9-6 1.3-4.1-4.1-.8-15.7 6.9-23.9 2.1-2.3 3.9-4.6 3.9-5 0-1.4 6.3-4.8 8.8-4.8 1.3 0 3.7.8 5.3 1.7zm199 7.1a56.8 56.8 0 0 1-11.2 12.2c-2.1 0-.5-2.7 4.9-8.2 6-5.9 8-7.2 6.3-4zm-411.6.2c1.1 1.7 8.3 5 11 5 2.5 0 3.4-1.4 1.5-2.5-2.2-1.3-.9-2.4 1.7-1.4 4.3 1.6 12.3 8 15.3 12.1 2.8 3.8 2.8 4 1.2 6.8-1.5 2.5-1.5 3.4-.3 7.7 2.3 7.7 2 10.7-.8 11.1-2.5.4-8.1-4.1-8.1-6.5 0-1.1-.5-1-2.4.3-4.6 2.9-7.8 1.2-9.1-4.9-.4-2.1-1.6-3.3-4.8-4.6-2.3-1-5.3-2.8-6.6-4-1.3-1.1-3-2.1-3.7-2.1-3.3 0-2.9-9 .6-14.8 2-3.3 3.4-4 4.5-2.2zm283.2 2.1c5.8 5.5 5.2 8.2-2.8 12.4-3.9 2-6 2.5-8.5 2.1-3.5-.7-8.4-5.6-8.4-8.3 0-.9 1.9-3.4 4.2-5.6 3.8-3.6 4.5-3.9 8.5-3.4 2.8.3 5.4 1.4 7 2.8zm-297.3 3.1 3.2 9.8c2 6.5 8.9 14.2 22.7 25.3 7.9 6.4 8.7 7.3 7.1 8.4-1 .7-2.8 1.3-4.1 1.3-4.2 0-13.3-3.8-16.1-6.7-1.5-1.6-5-4.3-7.9-6.1-7-4.5-11.3-14-11.3-25 0-5 2.3-11.2 4.1-11.2.4 0 1.4 1.9 2.3 4.2zm170.5-2.4c1.9.9 3.6 2.2 3.8 2.8 1 3-17 2.7-18.2-.3-1.6-4.3 7.8-5.9 14.4-2.5zm-187.4 8.6c1.3 1.3 2.8 4.1 3.4 6.3 1.4 5.3 2.6 21.3 1.5 21.3-.4 0-2.2-1.3-3.9-2.9-2.4-2.3-3.6-2.8-6.2-2.4-3.7.6-4.1 2-2.1 8.4.7 2.6 1.7 3.9 2.9 3.9 1 0 3.1 1.1 4.6 2.4 2.6 2.3 2.8 3.1 3.2 11 .4 9.7-.5 11.6-5.1 11.6-6.9 0-14.2-5.7-15.3-11.8-.3-2.1-.6-8.7-.7-14.7-.1-11.3.9-15.4 4.6-18.4 2.3-1.9 1.2-2.9-4.2-3.7-2.6-.3-5.1-.9-5.6-1.2-1.9-1.1 14.6-12.2 18.1-12.2 1.3 0 3.5 1.1 4.8 2.4zm292.4 1.3c5.1 4.7 4.9 7.2-.6 11.6-4.3 3.5-5.3 3.8-9.1 3.4-4.7-.5-9.7-4.3-11.3-8.6-1.8-4.5 4.8-9 13.3-9.1 3.8 0 5.4.5 7.7 2.7zm-106.4 1.7c-1.7 1.2-1.6 1.4 1.4 2.4 2.3.8 3.2 1.7 2.9 2.9-.5 2.6-4 2.7-10 .2-9.9-4.2-9.8-5.8.4-6.8 7.2-.8 7.9-.6 5.3 1.3zm28.2 3.2c.3.9 0 4-.6 7-1.1 4.7-1.9 6-5.4 8.5-3.6 2.6-4.3 2.8-6.1 1.5-4.5-2.9-2.2-11.1 3.9-14 1.8-.9 3.8-2.2 4.5-3.1 1.6-1.9 2.9-1.9 3.7.1zm184.3 2.6c1.6 2.6 2 4.7 1.8 10.3-.3 6.2-.5 7-2.3 7-1.3 0-2.8-1.6-4.7-5.5-3.1-6.2-3.6-11.1-1.2-13.4 2.4-2.4 4.2-1.9 6.4 1.6zm-240.1.4c2.2 2.8 2.9 7.4 1.1 7.4-1 0-5-7.1-5-9 0-1.8 1.8-1.1 3.9 1.6zm203 0c2.6 1.9 6 8.7 6.1 12.2 0 1.3-1.3 3.7-2.9 5.3-3.7 3.7-8.8 4-11.8.6-5.3-5.8-5.7-11-1.2-16.2 3.4-3.9 6.2-4.4 9.8-1.9zm-181.6 2.1c4.4 2.2 3.4 4.6-3.4 7.8-7.6 3.7-9.4 2.9-9.4-4.1 0-4.3.3-4.9 2.5-5.5 2.9-.8 6.4-.2 10.3 1.8zm209.2 8.1c5.8 14.1 5.6 16.5-1.1 17.8-6.6 1.2-12.2-5.8-10.9-13.7.7-4.1 6.2-13.2 7.7-12.7.5.2 2.4 4 4.3 8.6zM274.2 425c4.1 2.5 6.4 2.5 13 0 6.4-2.4 7.6-2.5 10-.3 2.2 2 2.3 5.6.2 7.7-2 2.1-2.5 2-6.8-.9-4.4-3-4.8-1.3-.8 3.2 1.6 1.7 4.4 6.8 6.2 11.3 2.8 6.9 3.8 8.4 6.7 9.8 3.3 1.6 3.6 1.6 4.9-.3.8-1 1.4-2.2 1.4-2.6a29 29 0 0 0-5.5-5.4c-3.7-3.2-5.5-5.5-5.5-7.1 0-4.4 6-7.9 8.8-5.1a40 40 0 0 1 4.1 6.4c1.5 2.7 4.4 5.9 6.8 7.5a415 415 0 0 1 32.2 29c.1.5-.5 1.5-1.5 2.2-1.7 1.3-1.6 1.4.4 2.5 5.8 3.1-.8 4.2-9.6 1.6-6.2-1.9-6.8-3.5-1.2-3.5 5.2 0 5.3-2.1.3-5.5-4.5-3-6-3.1-6.8-.5-1.6 5.1-13.4 6.7-21.2 2.9-4.6-2.2-5.5-4.4-2.2-5.4 3.3-1.1 1.8-3.6-3.3-5.5a30 30 0 0 1-13.8-10.4c-1.4-2.7-5.8-6.1-6.7-5.3-.2.3-.7 2.5-1 4.9-.3 2.4-1 4.8-1.5 5.4-.6.9.2 1.2 2.8 1.2 9 0 12.6 8.8 4.9 12.3l-4.5 2.4c-3.8 2.2-6.1 0-9-8.3a36.4 36.4 0 0 0-5.2-10c-5.1-5.2-2.8-9.2 7.2-12.8 2.8-1 6-2.8 7.1-4l2.1-2.3-4.2-1.1c-2.3-.6-5.3-2.2-6.7-3.6a14.8 14.8 0 0 0-2.8-2.4c-.3 0-.5 1.8-.5 3.9 0 5-1.6 9.4-3.3 8.9-3.6-1.2-4.3-13.8-1.1-20.1 1.7-3.2 1.5-3.2 5.6-.7zm-94.8 12.9c-.7 5.1-5 14-7.1 14.8-2.2.9-10.3-7.9-10.3-11.1a19 19 0 0 1 4.9-3.1c5.7-2.8 9.1-6.7 9.2-10.4.1-2.4.2-2.2 2 1.4 1.4 3 1.8 5.1 1.3 8.4zm72.4-9.3c3.2 2.2 3 8.3-.3 12.3-3.6 4.2-7.7 6.5-18.6 10.6-10.7 4-15.9 4.5-15.9 1.7 0-2.7 5.5-9.9 9.3-12.2 5.5-3.4 12.7-1.9 12.7 2.6 0 .8.5 1.2 1 .9.6-.3 1-1.8 1-3.3 0-1.5 1-4.7 2.1-7.1 3.4-7.5 4.7-8.4 8.7-5.5zm-37.8 1.1c0 3.1-3.8 8.2-6.6 8.9-3.2.8-5.9-1.5-5-4.4 1.5-4.5 11.6-8.4 11.6-4.5zm7 9.3c0 1-2 4.2-4.5 7a56 56 0 0 0-6.5 8.9c-1.8 3.7-6.3 8.1-8.1 8.1-1.1 0 10.8-19 14.4-22.8 3.6-3.7 4.7-4 4.7-1.2zm152.6 2.6c3 2.9 2.8 5.2-1.1 11.1-3.4 5.4-5.3 7.3-7.1 7.3-2.5 0-7.4-5.6-7.4-8.5 0-3.4 2.6-9.7 4.7-11.3 2.9-2.1 8.1-1.5 10.9 1.4zm22.8-.2c4 1.7 7.5 6.3 8.3 10.9.4 2.8 0 4-2.7 7-5 5.8-10.9 4.7-14.4-2.7-2.6-5.4-2.1-10.3 1.3-13.7 3.4-3.4 3.2-3.3 7.5-1.5zm38.1-.4c.9 1.4-1.3 5-3 5-1.8 0-1.9-1.4-.5-4.1 1.2-2.1 2.5-2.5 3.5-.9zm-380.9 9.5a49 49 0 0 1 10.8 8.4l5.9 6 2.8-3c1.5-1.6 3.2-2.9 3.9-2.9 1.4 0 11.8 9.7 13.2 12.3 2.2 4.1 0 8.7-8.2 16.8a39.7 39.7 0 0 1-9.5 7.9c-3 0-6-2.2-12.1-8.9-3.4-3.6-6.5-6.3-6.9-5.9-.8.7 1 4.4 3.5 7.3 1 1.1 2.5 5.4 3.4 9.5 2.1 9.5 6.9 19.4 10.8 22.3 1.6 1.2 4.3 4.8 5.9 7.9 3.4 6.7 6.4 8 5.4 2.4-1-4.8.1-7.6 2.9-7.6 1.3 0 3 .7 3.7 1.7 1.2 1.4 1.5.9 2-4.4a16 16 0 0 1 3.9-10.2c1.8-2.2 3.8-4.1 4.5-4.1 2 0 7.4 6.5 8.1 9.6.8 3.9-1.6 9.6-5.1 12a96.5 96.5 0 0 0-5.8 4.6c-2.8 2.4-3 2.8-1.7 4.1.8.8 4 2.2 7 3.2 6.7 2.1 8 3.1 8 6 0 1.8.7 2.4 3.5 2.9 4.7.9 12.5 8.3 12.5 11.8 0 3.2 1.4 4.3 6.2 5.2 4.7.9 7.8 4.6 7.8 9.6 0 4.3-2.8 7.5-5.7 6.6-1-.3-8.3-7.4-16.2-15.7-14-14.6-26.5-24.9-30.3-24.9-1 0-1.8.4-1.8.9 0 1.6 6.3 7.1 8.1 7.1 3.5 0 14 11.3 23 24.5l8.9 13.2 5.7 1.2a278 278 0 0 0 22.3 2.2c32.7 1.9 40.4 3.5 41.6 8.6.8 2.9-2.9 10.8-5.7 12.3-1.1.7-4.3 1.8-7 2.6s-6.4 2.8-8.2 4.3c-6.2 5.4-12 6.9-13 3.2-.3-1.3-2.4-2.3-7.3-3.6-16-4-20.5-5.6-23.9-8.7-2-1.7-3.7-2.9-3.9-2.7l-2 3.6c-1.1 2.2-2.4 3.3-3.8 3.3-2 0-2-.1-.5-1.8 1-1 1.7-2.9 1.7-4.2 0-3.1-6.6-9-13.2-11.9-12.1-5.2-12.1-5.2-16-12.9-4.2-8.5-4.7-9.2-4.1-5.7.3 1.4.1 2.5-.6 2.5-1.7 0-4-4.2-6.7-12.6-3-9.2-4.4-12.1-7.8-16.1-1.3-1.6-2.6-4-2.8-5.3-.4-3-6.1-7-10-7-4.3 0-3-2.4 1.5-2.8 6.2-.5 4.7-4.7-4.7-13.4-4.8-4.4-5.8-5.9-4.9-6.9 1-1 1.6-.7 3.2 1.2 2.7 3.3 2.6 1.2-.5-7.4a83 83 0 0 1-6.4-24.8c0-2.5-1.3-9-3-14.5-2.8-9.2-3.9-19.2-2.3-20.7 1.3-1.3 5-.7 9.9 1.8zm149.4-.6c0 1.2-3.1 5.1-4.1 5.1-1.2 0-1.2-2.6.1-5 .9-1.7 4-1.8 4-.1zm222.2 0c3 2.4 8.1 13.3 7.6 16.4-.4 2.8-5.8 3.6-9.4 1.2-6-3.9-8.4-13.5-4.4-17.5 2.5-2.5 3.1-2.5 6.2-.1zm-165.8 7c4.2 4.3 5.2 4.8 7.2 4.1 1.3-.5 2.6-.5 2.9-.1 1 1.7-.8 4.2-5.1 7.1-4.9 3.4-11.2 4-13.8 1.4-2-1.9-2.1-7.4-.1-10 .8-1 1.5-2.8 1.5-4 0-2.1.8-3.4 2-3.4a34 34 0 0 1 5.4 4.9zm122.5-3a24.3 24.3 0 0 1 5.7 19.5c-.8 3.1-6.3 9.6-8.1 9.6-2.2 0-8.2-7.8-9.3-12.1-1.5-6.1 1-14 5.7-17.6 2.3-1.8 3.8-1.6 6 .6zm34.5 12.5c5.9 4.5 6 9.7.2 14.1l-3.4 2.6-4.1-2c-5.5-2.9-11.1-8.6-11.1-11.5 0-1.6 1.1-3.1 3.3-4.5 4.2-2.9 10.4-2.3 15.1 1.3zm-175 2.2c2.3.9 1.9 5-.6 6.8-3 2.1-6.6 2-10.5-.4-3.8-2.3-4.2-4.7-1-6 2.6-1 9.8-1.3 12.1-.4zm205.8 1.6c3.8 3 2.5 8.8-1.6 7.2-1.8-.7-3.1-4.6-2.2-6.9.7-1.8 1.7-1.9 3.8-.3zM38.5 473c.8 2.5-1.3 5.6-2.8 4.1-1.1-1.1-.1-6.1 1.3-6.1.5 0 1.2.9 1.5 2zm234.2 2.2c2.3 2.1 3.1 7.1 1.5 9.4-1.2 1.8-4.5 3.2-11.7 4.9-3.8.9-9 2.8-11.5 4.3l-4.5 2.7 6.5.6c7.3.6 10.3 1.9 12.6 5.4 1.9 2.9 1.2 5.8-2.3 8.5-5.3 4.1-11.3 1.9-16.7-6a224 224 0 0 0-7.8-10.9 26.2 26.2 0 0 1-4.8-8.1c0-2.1 2.6-4.4 6.6-5.8 3.5-1.1 5-.6 12 4.2 3.3 2.2 4 2.4 4.2 1 .2-.8-.3-2.3-1.2-3.3-2-2.2-2.1-5.5-.2-7 4.3-3.6 13.5-3.5 17.3.1zm-61.1.4c2.1 3.1 2.4 10.5.5 12.7-.7 1-2.2 1.7-3.3 1.7-2.9 0-7.8-5.4-7.8-8.5 0-2.9 4.8-8.5 7.4-8.5.9 0 2.3 1.2 3.2 2.6zm221.8-1.1c.3.8 1.4 1.5 2.3 1.5 3.2 0 6 2.8 6.7 6.5.8 4.1-.2 6.6-1.6 4.1a3.6 3.6 0 0 0-2.8-1.6c-1.1 0-2-.4-2-.9s-1.6-2.5-3.5-4.4c-2.3-2.3-3.3-4.1-2.9-5.1.8-2 3-2.1 3.8-.1zm-131.5 2c3.3 1.6 8.1 7 8.1 9s-6.5 7.2-9.9 8c-10.5 2.3-17.5-8.3-10.2-15.6 3.3-3.3 7.5-3.8 12-1.4zm-194.5 17c2.7 4.9 5 7.8 5.8 7.6 4.5-1.3 5.3-.7 5.1 4.1-.1 4.6-.1 4.7 2.1 3.3 3.8-2.5 6.4 1.2 7.3 10.9.7 7.8-.3 8.6-6.2 5.1-4.2-2.4-4.5-2.4-4.5-.7 0 1 .9 2.7 2 3.7 2.4 2.1 2.6 6.9.5 10.5-3.1 5.4-1.2 5.2 4-.3l5.4-5.9 4.5 6.2c5.8 7.8 6.5 10.3 3.9 13.8-3.8 5.2-8.7 4-18.4-4.6-3.1-2.7-7.2-6-9-7.3-6.3-4.4-6.4-6.3-.6-13.8 7.1-9.1 7-8.4.8-15-21.9-22.8-22-23-14.9-30.7l4.2-4.5 1.8 4.8c1 2.6 3.8 8.4 6.2 12.8zm291.5-16c4.1 2.1 6.6 7.8 5.1 11.5-1.6 3.8-5 6.9-8.5 7.5-5.3 1-11.5-4.5-11.5-10.1 0-2.2 8-10.4 10.2-10.4 1 0 3.2.7 4.7 1.5zm-170.7 1.7c-2 2-1.4 5.8 1.8 11 5.8 9.4 4.8 13.8-2.4 10.4-1.9-.9-4.3-1.6-5.4-1.6-3.3 0-5.4-1.1-4.3-2.4.5-.6 1.9-4.3 3-8.3 2.2-7.5 4.1-10.3 6.9-10.3 1.2 0 1.3.3.4 1.2zm200.6 3c.7.7 1.2 1.9 1.2 2.8 0 .8.9 2.3 2 3.3 3.9 3.3 2.2 7.9-4.4 12.2-3.5 2.3-6.6 1.3-9.3-3.1-4-6.2-2.5-11.4 4.2-14.9 3.6-1.8 4.7-1.9 6.3-.3zm36 1.1c.2 1-.3 1.7-1.2 1.7-1.8 0-2.9-1.6-2.1-3.1.9-1.4 2.9-.6 3.3 1.4zm-183.1 4.8c6.9 2.6 10.9 10 6.1 11.4-1.3.4-3.4 1.4-4.7 2.2-3.3 2.1-1.2 3.3 5.8 3.3 5.8 0 10.1 2.6 10.1 6.1 0 2.7-6.8 8.1-16.7 13.2a123.5 123.5 0 0 1-29.6 10.7c-1.1 0-3 .9-4.2 2a12.8 12.8 0 0 1-5.2 2.6c-2.6.5-3.3.2-4.3-1.7-.7-1.3-2.6-3.9-4.3-5.7l-3.1-3.2h7c7.1 0 10.1-1 9-2.9-1-1.5 1.2-5.1 3.1-5.1.9 0 4.5 1.6 8 3.5 6.7 3.8 8.6 3 3.8-1.5-3.8-3.5-3.3-6.8 1.2-8.6 5.4-2.3 10.1-1.3 14 3.2 3.1 3.5 5.3 3.8 5.3.7 0-.9-2.6-4.7-5.7-8.5-7.3-8.7-10.3-12.8-10.3-14 0-1.3 6-6.8 8.5-7.9 2.7-1.1 3-1.1 6.2.2zm171.3-.3c0 .5-1.3 2.1-3 3.7-3.7 3.5-3.7 4.3-.5 5.5 3.4 1.3 4.1 3.6 2 6-2.5 2.7-6.5 2.7-6.5-.1 0-1.1-.5-2.9-1-4-.8-1.4-.7-2.7.4-4.8 2.1-4 8.6-8.8 8.6-6.3zM190.1 489c4.8 1.4 7.6 4.4 5.9 6.5-1.3 1.5-6.5 2-9.5.9-2.4-1-4.7-5.8-3.2-7.3 1.4-1.4 2.2-1.4 6.8-.1zm148.9 1c0 .4-1.2 1.2-2.6 1.9-1.5.6-3.5 2.3-4.6 3.6-3.6 4.6-12.8 2.7-12.8-2.6 0-1.4.7-1.9 2.8-1.9 1.5 0 4.9-.6 7.7-1.3 4.9-1.3 9.5-1.2 9.5.3zm-248.6 4.5c3 3.2 3.8 7.2 2.4 12.1-2.1 7.9-5.1 8.4-11.4 2-5.7-5.6-5.9-9.1-.9-13.5 4.3-3.8 6.8-3.9 9.9-.6zm58.5.7c4.7 3.6 3.8 4.6-2.6 2.9-5.2-1.5-6.7-2.6-6-4.5 1-2.5 3.9-1.9 8.6 1.6zm165.3-2.1c2.8 1.5 5 7.2 3.9 10.1-1.2 3.2-6.5 6.8-9.8 6.8-3.2-.1-5.5-1.5-7.1-4.7-2-3.7-1.4-5.9 2.8-9.7 4.2-3.7 6.7-4.4 10.2-2.5zm66 1c2.9 1.6 30.8 28.3 33 31.6 2.1 3.3 2.4 10.1.4 12.8-1.3 1.8-1.6 1.4-4.6-4.5-4.2-8.5-5.2-9.5-12.6-13.1a36 36 0 0 1-18.9-24.7c-.7-3.5-.4-3.8 2.7-2.1zm-173.4 3.3c2 1.9 3.5 3.7 3.2 4-1 .9-9-4.4-9-6 0-2.3 1.8-1.7 5.8 2zm207.1-.8c4 3.4 4 6.5-.1 10.3l-3.3 3.1h5c8.1 0 12.7 3.7 9.5 7.5-1.4 1.7-5.6 2-6.5.5-.3-.5-4.3-2.7-8.9-4.9-12-5.6-14.2-9.9-8.2-16.4 3.3-3.6 8.3-3.6 12.5-.1zm-66.9 4.3c0 .3-2 .5-4.4.3-4.1-.4-4.6-.2-6.1 2.7-1.1 2.2-2.3 3.1-4 3.1-1.4 0-2.5-.4-2.5-.8 0-1.6 5.7-6.3 8.6-7.1 2.8-.8 8.4.4 8.4 1.8zM144.9 508c.1 1.5-.4 3.1-1.1 3.8-1.7 1.7-7.3 1.5-8.8-.3-1.7-2.1-.5-4.8 1.9-4 1.3.4 2.6-.3 4.2-2.3 2-2.4 2.5-2.6 3.1-1.3.4.9.7 2.7.7 4.1zm-71.1-3c3.1 1.9 9.2 10.2 9.2 12.6 0 2.3-3 3.8-5.7 2.8-5.1-1.8-11.4-14-8.6-16.7 1-1 1.5-.9 5.1 1.3zm165.3-1c.5 0 3 1.9 5.4 4.1 7.3 6.8 5.7 11.8-2.8 8.5-5.5-2.1-5.4-2.1-4.9 1.3.2 1.6-.1 3.2-.7 3.5-1.3.8-7.6-2.4-11.3-5.8-2.7-2.4-3.8-4.4-1.9-3.2 1.2.8 2.8-1.4 3.3-4.4.2-1.7.8-2.4 2-2.2 1 .1 3-.4 4.5-1.2 1.6-.8 3.4-1.3 4.1-1.1a8 8 0 0 0 2.3.5zm-22.8 2.6c-5.7 3.4-5.7 6.1-.2 10 4.6 3.2 6.4 6.6 4.9 9.3-.8 1.5.2 2.8 5.5 7.5 7.4 6.5 8.3 9.6 4 13.6-1.4 1.3-2.5 2.7-2.5 3.2 0 1.3 3.4.9 5.8-.7 3-2.2 4.8-1 12.3 7.7l6.2 7.2-2.3 1.5a84 84 0 0 0-4.4 3.3c-2 1.7-1.9 1.7 2.9 1.1 9.7-1.2 9.9-4.1 1-13.1-3.8-3.9-6.5-7.5-6.5-8.7 0-3.3 2.8-6.3 6.8-7.4 3.6-1.1 3.8-1 9.4 4.6 4.6 4.6 5.8 5.3 5.8 3.7 0-1.1-1.1-3.1-2.5-4.4-4.3-4-2.7-8 3.1-8 1.7 0 3.7.7 4.4 1.5 2 2.4 3.4 1.7 5.5-2.8 1.5-3 3.4-5 7.1-7.3 9-5.3 14.6-6.6 29.7-7.2 12.5-.4 13.7-.6 13.7-2.3 0-2.7-3.6-4.2-8.6-3.6-2.4.2-4.4.1-4.4-.3 0-1.4 9.4-9 11.2-9 1.7 0 2.1.9 3.3 6.8.6 3.1 4.7 7.1 8.7 8.5 2.1.7 3.9-1.7 5.8-7.6.8-2.5 2.3-4.5 4.4-5.8 3.7-2.2 6.6-2.5 6.6-.5 0 1.9-4.8 7.6-6.5 7.6-.7 0-2.4 2.4-3.8 5.3a81.6 81.6 0 0 1-9.1 12.5l-6.5 7.2-5.7-7.1c-5.5-6.8-9-9.7-10.1-8.5-.4.3.2 1.4 1.1 2.5 1.7 1.8 1.6 1.9-1.1 2.5l-7.7 1.2a128 128 0 0 0-29.9 14c-1.5 1-3.6 3.9-4.8 6.3l-2.2 4.4 2.3 1.7c3.9 2.9 1.6 5.6-4.2 5.1-1.7-.2-1.7 0 0 4.1 2.4 5.5 3.4 10.6 2.3 11.3-.5.3-2.3-.6-3.9-2a12.6 12.6 0 0 0-3.6-2.5c-.3 0 .3 2 1.4 4.5l2 4.6-2.6.9c-1.4.6-3.2 1-4.1 1-3.1 0-12.1-7.9-18.1-15.8-16-21.3-34.7-57.1-31.5-60.3 1.5-1.5 8.4-3.8 11.3-3.8 2.2-.1 2 .2-1.7 2.5zM48 509c0 1-.4 2.1-.9 2.4-1.2.8-2.2-2-1.5-3.9.8-1.9 2.4-.9 2.4 1.5zm132.8-1c.8 1.3.9 2.6.4 3.7-1 1.7-1.6 1.1-2.6-3-.8-3.2.4-3.6 2.2-.7zm258.6-1c3.2 1.2 3.3 3.4.4 5.4-3.1 2.2-8.4 2-10.8-.4-1.1-1.1-2-2.4-2-3 0-2.6 7.5-3.9 12.4-2zm20.8 2.9c-.3 2.1-.1 2.3 2.2 1.7l5.3-1.2 2.6-.7-2.4 4.4c-3 5.4-5.5 5.7-8.6 1-2.8-4.2-3.1-8.4-.5-7.9 1.2.2 1.6 1.1 1.4 2.7zm-304.3 4.7c.1 4.7-.7 5-5.8 1.5-1.2-.8-.9-1.5 1.5-4.3 3.2-3.7 4.2-3.1 4.3 2.8zm6.8 2.5c.7 1.9 1.2 5.2 1.2 7.4 0 3.9-2 15.7-3.5 20.4l-.7 2.4 6.6-.7c5.3-.5 6.7-.4 6.7.7 0 4.7-9.9 5.1-17.5.8-8.2-4.7-8.2-4.7-3.2-14.8a78 78 0 0 0 5.8-14.6c1.5-6.3 2.8-6.8 4.6-1.6zm286.9-.9c.4.6-.1 1.7-1.2 2.5-1.8 1.4-1.8 1.5.5 3.2 1.6 1.3 2 2 1.2 2.6-2.1 1.2-6.1-.4-7.3-3-.9-2.1-.8-2.8.7-4.5 2-2.2 5-2.6 6.1-.8zm-63.8 7.8a35 35 0 0 0 6.1 8c.6 0 .7 1.5.4 3.6l-.6 3.6 6-.7c4.7-.5 6.2-.3 7.2.9s.9 2-.9 4.4c-2.7 3.6-2 6.6 1.8 8.7 2.6 1.4 2.5 1.4-3.6 1.5-10.4 0-12.3-1.3-17.6-12.6-2.6-5.4-5.1-11.8-5.7-14.2-1-4.4-.3-11.2 1.1-11.2.4 0 3 3.6 5.8 8zM142 522c4.1 1.1 5.4 2.3 6.4 5.7 1 3.2-1.1 10.1-3.4 11.3-2.6 1.4-7.1-.9-10.3-5.2-3.5-4.7-3.8-6.3-1.6-8.1 1-.9 1.9-2.4 1.9-3.3 0-.8.6-2.5 1.2-3.7l1.3-2.2.3 2.2c.2 1.7 1.4 2.5 4.2 3.3zm331-3c0 1.2-1 2.5-2.5 3.2-3.2 1.4-3.9.7-2.4-2.6 1.5-3.1 4.9-3.6 4.9-.6zm-298.2 5.7c.4 2.6-2.4 5.1-4 3.5-.9-.9-.8-1.8 0-3.8 1.4-2.9 3.5-2.8 4 .3zm255.9-.3a29.9 29.9 0 0 1 14.8 12.3c3.9 5.8 5.5 6.6 5.5 2.8 0-6.3 9.2-8.8 14.7-4.1 2.7 2.4 2.7 2.6 1.3 5.2-2.1 3.7-7.2 6.2-15.5 7.3-5.7.8-7.4.7-9-.4l-4.3-3.2c-1.9-1.3-2.5-1.4-3.2-.3-.7 1.1-1.8 1-6.1-.6-4.3-1.5-5.8-2.7-7.6-5.9a25 25 0 0 1-2.3-4.8c0-1.7 4-.5 7.8 2.3 4.6 3.3 6.2 3.7 6.2 1.6 0-1.7-5.3-6.3-9.7-8.4-3.1-1.5-4.2-3.9-2.6-5.5 1.2-1.3 4.8-.7 10 1.7zm28.2 3.2c1.3 1.2-1.9 2.4-6.5 2.4-6 0-6.5-1.3-1.1-2.9 2.8-.8 6.4-.6 7.6.5zm14.4-.2c.3 1.2-3 3.2-3.9 2.4-1.1-1.2.5-4 2.1-3.6.9.2 1.7.7 1.8 1.2zm2.5 8.4c.2 1.3.1 3.1-.3 4-.6 1.5-.8 1.5-2.1-.2-2.1-2.9-1.9-6.8.4-6.4.9.2 1.8 1.4 2 2.6zm-98.7 5.8c-.6 3.2-1.1 8.6-1.1 12 0 10.2-1.5 11.6-6.5 6.4-1.6-1.7-2.4-3-1.7-3 2 0 4.2-4.6 5.3-11 1-6.4 3.9-13.4 4.6-11.3.2.6-.1 3.8-.6 6.9zm44.9 1.1c1.1 1.5 1.9 3.4 1.8 4.2-.8 4-8.8 1-8.8-3.3 0-4.5 3.8-5 7-.9zm-77.8 7.5c-2.3 2.3-4.4 3.9-4.7 3.6-.4-.4 1.2-2.5 3.5-4.8s4.4-3.9 4.8-3.5c.3.3-1.3 2.4-3.6 4.7zm-193.7-1.9c2.1 1.6 1.8 4.6-1.4 11.9-2.3 5.5-5.6 7-9.6 4.4-1.9-1.2-2.5-2.5-2.5-5.1 0-1.9.6-3.8 1.3-4.2.7-.4 2.6-2.5 4.1-4.6 3-3.9 5.1-4.5 8.1-2.4zM71 553.7c0 .8-.8 1.3-1.7 1.1-1.9-.4-4.5-4.7-3.6-6.1.7-1.1 5.3 3.2 5.3 5zm109-3.2c0 1.4-.4 2.5-1 2.5-.5 0-1-1.1-1-2.5s.5-2.5 1-2.5c.6 0 1 1.1 1 2.5zm177.1 2.9c1.6 3.4.3 7.5-2.5 8.6-1.5.5-2.7 2-3.1 3.9-.7 3.4-2.5 3.3-2.5-.1 0-2-.1-2.1-2-.3-5.2 4.7-3.2-4.2 2.2-10.1 4.6-5 6.4-5.4 7.9-2zm-188.9 4.1c.8 1.9.8 3.5 0 6.2-.6 2-.9 3.9-.7 4.2.3.2 1.9-.5 3.5-1.8 2.1-1.5 3-1.8 3-.8 0 3.2-9 7.5-13.1 6.2-2.3-.8-4.9-6-4.9-9.8 0-3 2-4.9 4-3.7 1 .6 2 .3 3.3-1.1 2.4-2.5 3.5-2.4 4.9.6zm222.1.1c4.7 2.4 11.8 8.4 11.2 9.5-.9 1.4-5.3 1.1-8.6-.7-4.2-2.1-11-8.4-10.3-9.5.8-1.4 4.2-1.1 7.7.7zm59.7 1.7c1.3 2.3 1.3 2.8 0 4.1-.8.7-2.6 1.7-3.8 2.1-2.3.7-2.3.7-.7-1.9a6.7 6.7 0 0 0 1.1-5.2c-.9-3.4 1.3-2.8 3.4.9zm-25 2.7c0 .5-1.1 1-2.5 1s-2.5-.5-2.5-1c0-.6 1.1-1 2.5-1s2.5.4 2.5 1zm-41.8 4.7c1 .9 1.8 2.8 1.8 4.3 0 2.9 2.2 5.4 5.7 6.4 1.2.4 3.2 2 4.3 3.7l2.1 2.9h-5c-4.4 0-5 .3-5.3 2.2-.3 2-.8 1.6-3.7-2.7l-3.8-5.5c-.3-.3-1.3.6-2.2 1.9l-1.9 2.4-1.1-2.1c-2.1-3.9-1-10.2 2.4-13.5 2.1-2.1 4.3-2.1 6.7 0zm33.2.5c2.3 3.2 2 4.1-.8 2.3-3-2-7.1-.6-8.1 2.6-.6 1.9-.1 2.9 2.9 5.4 4.2 3.5 4.3 4 1.6 5.5-3.2 1.7-7 .1-8.6-3.6-2-4.9-1.7-7.9 1.2-11.3 3.3-4 9.4-4.4 11.8-.9zm-73.6 2.6c.5.9 1.5 4.7 2.2 8.3 1.3 6.5 1 9.9-.9 9.9-1.8 0-7.2-5.3-9.7-9.6-2.4-4-2.5-4.8-1.4-7.5 2.1-5 7.5-5.7 9.8-1.1zm88.7 2.6c0 3.6-1.8 4.4-3.2 1.4-1.3-2.9-.6-5 1.6-4.6 1 .2 1.6 1.3 1.6 3.2zm-34.5.6c0 .5-1.1 1-2.5 1s-2.5-.5-2.5-1c0-.6 1.1-1 2.5-1s2.5.4 2.5 1zm-243.5 5.1c0 1.4-7 5.9-9.2 5.9-3.2 0-.6-7.6 3-9 2.5-.9 6.2.9 6.2 3.1zm197.6.9c.5 0 .9-.6.9-1.3 0-1 1.5-1.1 6.5-.6 3.6.3 6.8.9 7.1 1.1a41 41 0 0 1-10.3 6.8c-.3 0 0-.6.6-1.4 1-1.2.8-1.7-.8-2.5a10 10 0 0 0-4-1.1c-1.1 0-2.5-.9-3.1-1.9-1.5-3-1.2-3.8.6-1.3.8 1.2 1.9 2.2 2.5 2.2zm87.9-.2c0 .4-.9 1.3-2 2s-2 2-2 3c0 2.3-1.9 4.2-4.2 4.2-4.5 0-2.6-7.8 2.2-9.1 3.5-1 6-1 6-.1zM314 583c-.6 1.1-2 2.5-3.3 3.1-1.8 1-1.7.6.7-2 3.4-3.6 4.1-3.9 2.6-1.1zm13.9.6c1.7 1.4 3.1 2 3.1 1.4 0-1 .4-.9 1.5 0 1.9 1.5 1.2 4.3-2.1 8.7-4.1 5.5-22.8 9.8-24.2 5.5a80.8 80.8 0 0 1 17.4-18.2c.7 0 2.6 1.2 4.3 2.6zm-50.9 6a22 22 0 0 1 1 6.9c0 3.7-.7 5.1-4.7 9.9a29.8 29.8 0 0 1-5.5 5.6c-1.3 0-6-8.9-8-15.3s-1.4-10.7 1.5-10.7c2.6 0 5.6 3.2 6.3 6.6.6 3.5 2.8 5.5 5.2 4.7 1.7-.6 1.5-6.4-.3-8.9-.8-1.2-1.2-2.4-.8-2.7 1-1.1 4.4 1.4 5.3 3.9zm-186-.5c.7 1.1.9 2.3.6 2.6-.7.7-4.6-2.6-4.6-3.9 0-1.7 3-.7 4 1.3zm282.4 3.5c.7 1.9-.1 3.4-1.9 3.4-.8 0-1.6-.4-1.9-.9-.9-1.4.4-4.1 1.9-4.1.7 0 1.6.7 1.9 1.6zm-62.9 21.1c.7 4.4 1.9 6.1 3 4.3.3-.5 1.9-1 3.5-1s4.5-.8 6.5-1.7c5.1-2.4 5.6-.7 1 3.2-5.8 5-15.1 9.5-19.6 9.5-2.8 0-4.1.5-4.9 2-1.5 2.8-4.8 2.5-10.3-1a24.6 24.6 0 0 0-4.7-2.6l1.6 3.5c1.7 3.4 1.2 6.5-.9 5.9-3.7-1.3-5.1-12.4-1.9-15.5 1-1 2.6-3.1 3.6-4.7l1.8-2.9 4 4.7c2.2 2.5 4.4 4.6 4.9 4.6 1.6 0 .9-4.7-1.1-7.3-2.5-3.2-2.5-3.7.3-3.7 3 0 4.4 1.1 5.5 4 .9 2.4 1 2.2 3.2-2.8 2.5-5.9 3.3-5.6 4.5 1.5zm33.8 3.3c5.7 4.5 3.8 12-3.1 12-2.1 0-4.7.7-5.8 1.5-2.5 1.7-3.1 1.3-5-3.4-1.9-4.5-1.8-4.6 1.2-2.6 3.2 2 4.1 1.3 2.6-2-1.5-3.3.1-3.3 4 0 4.6 3.9 6 3.3 3.3-1.5-1.6-2.8-1.9-6-.6-6 .4 0 2 .9 3.4 2zm7.2-1c-.4.6-.1 1.7.5 2.5 1 1.3 1.7 1.2 4.7 0 4-1.7 7.9-1.9 8.7-.6.9 1.4-6.9 7.1-9.7 7.1-1.5 0-3.2-.9-4.1-2.2-1.8-2.5-2.1-7.8-.5-7.8.5 0 .7.5.4 1zm-220.7 1.2c1.4 1.4 1.6 4.8.2 4.8-1 0-3-3.2-3-4.9 0-1.4 1.3-1.4 2.8.1zm20 2.8c5 2.3 5.6 4.2 1 3.3-4.2-.8-8.8-3.1-8.8-4.3 0-1.5 3.1-1.1 7.8 1zm251.7 1.8c3.9.6 5.1 1.1 5.3 2.7.8 4.3 2.1 4.8 11.2 4.1 6.8-.6 8.9-.4 10.5.8 1.9 1.5 1.8 1.5-2.3 1.6-4.9 0-7.7 1.7-16.8 10.2-3.4 3.1-7.4 6-9 6.4-1.6.4-4.7 2.2-6.8 4.1a54.7 54.7 0 0 1-12 6.3c-10.9 4-16.5 7-17.7 9.2-1.4 2.5-2.6 2.3-6.6-1.3-2.5-2.2-3.9-2.7-4.6-2-.8.8-.8 1.4.1 2.3 2 2 1.4 4.8-1.7 7.9-4 4-7.8 3.9-11.5-.4-3.6-4-4.6-2.1-1.5 2.9 1.8 3 1.9 3.8.8 4.5-2.1 1.3-4.7 1.1-8.4-.7-4.5-2.1-4.9-3.8-1.9-7.4 3.9-4.6 12-6 18.9-3.4 1 .4 1.2 0 .8-1.5-1.3-5.1 2.7-9.7 7.2-8.1 1.4.5 2.3.1 3-1.4 1.4-2.7 4.2-3.3 4.7-.9.3 1.3 1.2.6 3.8-3.2 5.1-7.4 7.9-9.7 11.6-9.3 2.5.2 3.7-.5 6.3-3.4 1.9-2.2 5.1-4.4 7.9-5.3 6.2-2.3 9.2-3.7 9.2-4.5 0-.4-1.8-1.8-4-3.3l-4-2.6-4 5.4c-4.3 5.8-7.9 7.6-10.5 5.5a57.4 57.4 0 0 1-8.5-14.8c0-1.3 21.6-1.5 30.5-.4zm33.2 4.5c1.2 1.1 2 2.4 1.7 2.9-.7 1-7.4-5-7.4-6.5 0-1 1.7.1 5.7 3.6zm-63.6 3.9c6.1 6.7 5.3 10.5-3.2 14.2a41.4 41.4 0 0 1-7.3 2.6c-.7 0-2.5.9-3.9 2-4.2 3.3-7.2 2.6-13.3-3.1-3-2.9-5.4-5.5-5.4-5.8 0-1.4 5.9-4.1 8.8-4.1 1.6 0 4.8.7 7.1 1.5 4.4 1.5 4.9 1.1 2.6-1.9-1.9-2.5-1.9-2.8.6-6 1.7-2.1 2.9-2.6 6.5-2.6 3.8 0 5 .5 7.5 3.2zm-49.5-.6c1.7 1.2 2.3 2.2 1.9 3.5-.5 1.4 0 2.2 1.9 2.9 3.3 1.2 3.3 1.9-.7 6.5-2.8 3.2-3.7 3.7-6 3.1a10 10 0 0 1-7.3-12c1.3-5.4 5.6-7 10.2-4zm-18.3 7.8c4.9 2 6.9 5 7.5 10.6.5 5.9-.4 6.3-6 2.5-2-1.4-3.9-2.5-4.2-2.5-.4 0-.6 1.3-.6 3 0 3.7-.9 3.8-4.2.2-3.8-4-5-7-4.3-10.3 1.1-4.8 5.6-6.2 11.8-3.5zm150.6-.3c3.2 1.1 3.9 2.3 2.1 3.4-.5.3-1 1.7-1 3.1 0 1.5-.6 2.4-1.5 2.4-1 0-1.5-1-1.5-2.9 0-1.6-.7-3.4-1.5-4.1-1.6-1.4-2-3-.6-3 .4 0 2.2.5 4 1.1zm-23.9 3.2c10 3.4 8.7 6.7-2.7 6.7-7.5 0-12.8 6-6 6.8 6.2.7.8 6.3-8.5 8.7-5.6 1.4-12.8 5.2-12.8 6.7 0 1.8 7.5.5 15.9-2.7 4.9-1.9 9.7-3.5 10.4-3.5.8 0 2.6.9 4.1 2.1l2.6 2v-2.6c0-3.7 1.6-6.2 5-8 4.6-2.4 9.5-1.9 11.9 1.1 2.5 3.1 2.6 5.2.6 7.8-2.2 2.9-1.8 4.4 1.4 6.1 5.4 2.7 6.2 4.2 5.5 9.6-.6 4.7-.6 4.9 2.9 6.9 1.9 1.1 3.7 3 4 4 1.2 4.7 5.3-.2 4.3-5.1-.6-3.3.4-3.7 2.6-1.2 4 4.7 2.7 9.6-2.9 12-2.1.8-5 2.3-6.4 3.3-7 5-10.9 2.6-10.9-6.7 0-5-.2-5.3-2.5-5.3-2.8 0-4.5-2.5-4.5-6.7 0-1.5-.5-4.5-1.1-6.6-1.3-4.7-3.7-4.9-12.3-.8-10 4.7-10.3 4.7-14.1.7-3.9-4.1-6.1-4.7-5.1-1.4.4 1.3.9 4.4 1.3 6.9.5 4.2.3 4.8-1.8 5.9a10 10 0 0 0-3.2 2.6c-1.3 2.2-6.1 1.6-10.1-1.1-2-1.4-3.8-2.5-4-2.5-.2 0-.3 2.3-.2 5.2.1 6.5-1.9 7.4-6.4 3-4-4-3.9-7.1.5-11.5 3.9-3.9 4.5-7.3 1.9-11.7-2.8-4.6.4-11.3 6.8-14.6 3.9-2 5.8-1.2 5.8 2.6 0 4.9 1.7 2.8 7-8.6 6.3-13.4 8.4-14.4 21-10.1zm38.5 5.4c-2.1 5.1-3.5 6.3-3.5 3.2 0-2.6 2.5-6.9 4.1-6.9.5 0 .2 1.7-.6 3.7zM331.3 647c-.4 1.6.2 2.3 2.6 3.1 2.7 1 3.1 1.6 3.1 4.7-.1 9.8-2.5 11-9.1 4.4-5.7-5.7-6.3-8.9-2.3-12.1 3.5-2.8 6.4-2.8 5.7-.1zm-8.8 11.2c4.5 4.3 5.4 7.9 2.6 10.7a8 8 0 0 1-5.1 2.1c-3.7 0-10-2.5-10-4 0-1.7 3.1-2.4 5.1-1.2 2.4 1.6 2.9 1.5 2.9-.3 0-.8-1.5-2.6-3.4-4.2-2.8-2.2-3.3-3-2.5-4.5 1.6-3 6.4-2.3 10.4 1.4zm138.5-.9c0 1.8-2.7 5.3-3.5 4.6-.7-.8 1.5-5.9 2.7-5.9.4 0 .8.6.8 1.3zM309 661c0 1.1-.4 2-.8 2-1.4 0-3.2-2.4-3.2-4.2 0-1.6.3-1.7 2-.8 1.1.6 2 2 2 3zm34.5-2c.8 1.3-1.3 4-3.1 4-1.7 0-1.8-2.2-.2-3.8 1.5-1.5 2.5-1.5 3.3-.2zm43.3 2.8c.9.6.5 2.3-1.9 7-1.7 3.4-3.5 6.2-4 6.2-.4 0-1.6-1.1-2.5-2.5-3.7-5.7 2.9-14.2 8.4-10.7zm79.7 2.2c1.7 3.3 2 10.2.5 13.1-1.2 2.2-3.2 2.6-2.4.4.3-.8-.4-3.1-1.7-5.1-1.8-3-2-4-1.1-5.5a8 8 0 0 0 1.2-3.9c0-2.9 1.7-2.5 3.5 1zm-91.3 7.7c2 1.8 2.4 4.3.6 4.3-1.4 0-5.8-4-5.8-5.2 0-1.4 3.3-.9 5.2.9zm-7.1 7.3c1 .6 1.9 1.8 1.9 2.6 0 1.3-.4 1.3-2.9-.2-3.8-2.3-6.5-.5-5.6 3.6.5 2.2.1 2.8-3 4.3-2 .9-4.5 3.3-5.6 5.2-2.5 4.2-4.2 4.3-10 .7l-5.7-3.6c-1-.6-1.2 0-.6 2.9.6 3.5.6 3.7-1.4 2.6a17 17 0 0 1-4.7-4.9l-2.5-3.7 10.7-.5c6-.3 11.4-.9 12.1-1.3.7-.5 1.1-2 1-3.5-.3-2.2.3-2.8 3.2-3.9 4.4-1.5 10.5-1.6 13.1-.3zm68.2-.1c1.5.6 2.7 2.1 3.1 3.8a66 66 0 0 0 5.1 10.3c5.5 9.5 6.2 12.2 4 15.6-1.6 2.4-1.6 2.6.2 4 1 .7 2.1 1.4 2.5 1.4 1.3 0 5.8 8.7 5.8 11.2 0 1.8-.9 3-3.3 4.3-6.7 3.6-12.1-.8-12.3-9.7 0-3.7-.6-5.4-2.6-7.6-5.2-5.5-5.6-9.6-1.4-13.2 2-1.6.5-3-3.2-3-3.6 0-8.2-5.2-8.2-9.2 0-3.7 1.3-5.9 4.5-7.6 2.5-1.4 2.8-1.4 5.8-.3zM380 690.2c5.4 3.7 7.6 7.3 6.4 10.5-.7 2-1.7 2.9-3.8 3.1-3.7.5-6.1-1.9-8.2-8-2.6-7.8-.6-9.8 5.6-5.6zm42.6 1.1c3.6 3.1 2.8 6.7-2.3 9.8-2.3 1.4-3.2 2.4-2.3 2.5l5.3.9c4.3.7 7.7 3.5 7.7 6.4 0 1.1-1.2 3.3-2.6 5l-2.6 3.1h2.7c7.8 0 13.1 8.8 8.9 14.8-1.4 2.1-1.4 2.3 1.3 3.2 5.4 1.9 7.8 3.6 8.1 5.7.4 2.8-2.7 3.8-7.2 2.3s-15.2-12.9-20.5-21.7a102 102 0 0 1-10.8-26.4c-.4-3-.1-3.9 2.2-5.7a9.5 9.5 0 0 1 12.1.1zm-94.5 7.4c8.7 8.9 10.9 11.9 10.9 14.8 0 2.7-3.6 6.1-7.2 7-3.7 1-3.7-1 .2-6.3 3-4.1 3-4.2.8-4.2a8 8 0 0 1-3.7-.9c-1-.7-.9-1.2.8-2.3 1.9-1.3 2-1.6.6-2.2-2.1-.8-4.2.4-10 5.4-4 3.4-5.3 4-9.2 4a24 24 0 0 0-11.4 3.5c-8 4.1-14.2 4.7-15.9 1.5-2-3.8 4.2-9 8.9-7.5 2.7.8 6-1.5 17.5-12.2 4.8-4.6 9.1-8.3 9.5-8.3.3 0 4.1 3.5 8.2 7.7zm41.5-2.9a21 21 0 0 1 2.9 6.9c.6 3.4.4 4-2.7 6.5-1.8 1.5-4.4 3-5.7 3.3-5.5 1.4-13.1-3.9-13.1-9.2 0-2.4 4-7.3 5.9-7.3.5 0 2.2 1.9 3.8 4.2 2.8 4.2 6.5 6 8.4 4.1.5-.5-.3-3.2-1.6-6.2a45.6 45.6 0 0 1-2.5-5.8c0-1.3 2.8.7 4.6 3.5zm-164.5.2c-2.4 2.1-4.1 2.6-4.1 1.2 0-1.5 2.4-3.2 4.5-3.2 1.9.1 1.9.1-.4 2zm198.8 5.5c2.2 2.5 3.1 4.6 3.1 7 0 5-2.6 6-7.6 3-5.1-3.2-5.8-3.1-3.9.5 2.4 4.6 1.9 6.8-1.7 8.3-1.8.8-3.9 2.1-4.7 3-1.6 2.1-3.1 2.2-3.1.3 0-.7-.9-3.5-2.1-6.1-2.5-5.6-1.9-8.9 1.9-10.9 1.6-.8 4.8-3.1 7.1-5 2.4-2 5.1-3.6 6.1-3.6s3.2 1.6 4.9 3.5zm72.6 1.6c.9 1.7 1.5 4.2 1.3 5.7l-.4 2.7-1.1-2.5c-1.2-3-2.4-9-1.8-9 .2 0 1.2 1.4 2 3.1zm-8.8 2.9c2 4 1.6 11.3-.8 14.4-4.2 5.3-8 2.6-8.1-5.8-.1-9.2 5.7-14.9 8.9-8.6zm-119.8 12.5c2.9 1.4 5.8 6.6 4.7 8.3-.3.5 1.2 1.2 3.2 1.6 2.1.3 5.7 1.9 8 3.6 4.3 3.1 9.5 10 8.3 11.1a26 26 0 0 1-6.2 2.3c-6.4 1.8-10.8 5.4-5.1 4.2 1.9-.5 3.2-.4 3.2.2 0 1.2-3.5 2.2-8.3 2.2-4.6 0-8.2 1.8-12.1 5.9-3.9 4.1-5 3.9-4.3-.5.7-3.9 3.2-7.4 5.4-7.4 1.5 0 1.5-.2.7-2.4-.8-2.2-1.8-2-5.4 1-3.1 2.7-7.2 9.5-6.8 11.3.4 1.4-13.2 10-16.6 10.5-1.7.3-7.1.7-12.1 1-4.9.3-13.3 1-18.5 1.6-10 1.2-17 .7-25.9-1.6-7.1-1.8-8.6-3.3-11.2-11.1-1.2-3.6-3-7.4-4-8.4-1.9-1.9-2.5-3.9-1.1-3.9.4 0 2.1.9 3.7 2.1 5.8 3.9 6.4 3.9 20.1-.1 7.1-2.1 18.7-5 25.8-6.5 15.2-3.1 26.7-7.3 31.9-11.6 4-3.3 4.9-5.4 1.7-4.4s-2.3 0 3.2-3.6l7.7-5.1c3.2-2.2 6.3-2.3 10-.3zm65.3 2.5c3.9 4.5 5.7 9.4 4.8 13-.8 3.4-3 3.1-5.6-.8-2.8-4.2-5.8-12.8-5-14.7.9-2.4 2.2-1.8 5.8 2.5zm-35.5-1c3.2 1.9 5.1 5.9 3.8 7.9-.9 1.6-5.7 1.3-9.9-.4-4.1-1.7-7.2-6.5-5.3-8.4 1.7-1.7 7.9-1.3 11.4.9zm-56.7.4c0 1.7-4.7 5.6-6.7 5.6-2.1 0-6.3-3-6.3-4.5 0-1.8 1.6-2.3 7.8-2.4 3.9-.1 5.2.3 5.2 1.3zm81.8 4c1.6 1.4 3.9 4.5 5.2 7 2 3.8 2.2 4.8 1.2 7-2.1 4.6-6.5 2.7-11.6-4.9-2.8-4-3.4-8.3-1.4-10.3 1.8-1.8 3.3-1.5 6.6 1.2zm58.6 9.8c4.5 4 3.9 6.5-2.7 10.1-6.6 3.7-7.7 3.2-7.7-4.1 0-7.4 5.3-10.4 10.4-6zm-75 1.9a35 35 0 0 1 5.7 6.6c1.8 2.9 1.9 3.7.8 4.4-2 1.3-2.4 1.2-5.9-1.7-2.8-2.4-9-10.5-9-11.8 0-1.8 5.4-.2 8.4 2.5zm39.3 4.1c1.3 1.2 2.3 2.7 2.3 3.4 0 .6.7 1.7 1.5 2.4 2.2 1.9 1.8 2.8-1.5 3.4l-6.1 1.2c-2 .4-3.3 1.4-3.9 3-1.2 3-2.9 3.8-6.2 2.5-8.4-3.2-7.4-12.1 1.4-12.1 2.1 0 3.8-.5 3.8-1 0-1.4 3.7-5 5.2-5 .6 0 2.2 1 3.5 2.2zm13.2 15.3c3.9 2 4.4 4 1.8 6.9-3.1 3.5-6.5 4.1-10.4 1.6-3.7-2.2-4.2-4.9-1.5-7.2 3.4-3 6.2-3.4 10.1-1.3zm18.7 0c1.9 1.5 1.9 1.5-.5 3.5-1.3 1.1-2.2 2.2-2 2.3l3.2 1.5c3.3 1.4 3.4 3.2.3 6.1-2 1.9-2.8 2.1-4.5 1.2-1.1-.7-2.8-2.6-3.7-4.4-.9-1.8-2.8-4.3-4.2-5.6l-2.6-2.4 2.3-1.8c2.8-2.3 9-2.5 11.7-.4zm18.5.1c1.6 1.5 1.6 4.4 0 4.4-.7 0-3.1-4.4-3.1-5.5 0-1 1.4-.5 3.1 1.1zm-71.7.5c3 1.4 4.2 3.9 2.4 5-1.7 1.1-10-.1-11.7-1.6-3.7-3.6 3.3-6.1 9.3-3.4zm19.7 4.9c2.6 2.5 3 3.6 2.7 7.2-.3 3.7-.7 4.4-3.3 5.3-1.6.5-3.4 1.5-3.8 2.2-1 1.5-4.3 1.7-5.2.3-1.1-1.7-4.3-1.1-5 1-.3 1.1-1 2-1.4 2-1.4 0-4.9-4.5-5.6-7-.5-2.3-.2-2.6 4.2-3.7 4.5-1 5-1 7.4 1.3l2.6 2.5.7-5.5c1.1-9.6 2-10.4 6.7-5.6zm44.9 7.9c0 1.4-5.7 5.9-10.4 8.3a97 97 0 0 0-9.5 5.9c-3 2.2-6.6 3.9-8 3.9h-2.5l3.2-3.3c3.8-3.9 4-4.7.9-4.7-5.5 0-9.1-6.6-4.8-9 2.9-1.5 4.9-1.2 8.2 1.2 4 3 9.2 2.8 15.5-.5 5.3-2.7 7.4-3.2 7.4-1.8zm-35.1 9.2c.8 2.4.8 3.6 0 4.5-3 3.7-9.2-1.3-6.9-5.5 1.7-3.3 5.6-2.7 6.9 1zm71.4 3.4c-3.7 4.4-6.3 5.8-6.3 3.2 0-2.1 6.7-7.6 9.3-7.7.4 0-.9 2-3 4.5zm-73.2 7.8c-1.2 1.2-4.5.1-3.7-1.2.3-.5 1.5-.7 2.7-.4 1.3.4 1.7.9 1 1.6zm77.8 3.4 1.8 5c.9 2.2-1.5 1.4-5.2-1.8-4.1-3.7-4.2-4.1-1.2-5.5 3.3-1.7 3.2-1.7 4.6 2.3zm-55.4 9.4c.9 1.7 1.4 3.8 1.2 4.7-.3 1.2-.9.6-2-2-2.7-6-2-8.2.8-2.7zm65.3 3.2c1.3 1.5-.1 4.2-1.7 3.3-1.3-.8-1.5-4.6-.2-4.6.5 0 1.3.6 1.9 1.3zM389.5 807c.7 1.2-1.2 4-2.6 4-1 0-1.2-3.4-.2-4.3.9-1 2.1-.9 2.8.3zm139.3 9.2c1.4 1.4 1.6 4.8.2 4.8-1 0-3-3.2-3-4.9 0-1.4 1.3-1.4 2.8.1zm-160 10.7c1.1.7 1 1-.3 1.5-1.9.7-3.5 0-3.5-1.5 0-1.1 2-1.2 3.8 0zM532 850.5c1.5 1.8.1 3.9-4.1 6.1-3.4 1.7-4.2 1.8-3.6.1.2-.6-.3-2-1.2-3-1.5-1.7-1.4-2 .4-3.3 2.5-1.8 6.9-1.8 8.5.1zm5 22.9c0 1.4-.4 2.7-.9 3-1 .7-2-2.3-1.4-4.2.8-2.1 2.3-1.3 2.3 1.2zm-178 2c0 .7.7 1.9 1.5 2.6 2.5 2 1.8 5.6-1.6 8.5-3.4 2.8-7.2 3-7.7.5-.2-1.1.5-1.6 2.5-1.5 2.6 0 2.8-.3 2.5-3.5-.2-1.9 0-4.5.3-5.8.6-2.4 2.5-3.1 2.5-.8zm194.8 1c3.3 1.7 7.8 6.4 6.9 7.2-.9 1-6.3-1.2-10.2-4.2-5.1-3.9-2.7-6.1 3.3-3zm-30.7.8c4.3 1.2 7.9 4.1 7.9 6.4 0 1.2-.4 1.2-2.5-.2-2.3-1.5-2.6-1.5-5.6 1-4.7 4-6.3 3.2-7.3-3.7-.7-4.4-.6-4.7 1.5-4.7 1.2 0 3.9.5 6 1.2zm31.8 9.5c4.3 4.4 4.4 4.8 2.4 5.1-4 .6-11.4-6.2-9.8-8.8 1.1-1.8 2.7-1 7.4 3.7zM376 891.9c0 .5-1.6 4.3-3.6 8.5-3.2 6.6-3.5 8.1-2.5 10.2 1.4 3.1 1.4 3.4 0 3.4-.6 0-2.4-1.3-4-3-2.5-2.5-2.8-3.3-1.9-5 1.2-2.3.6-4-1.6-4-3.1 0-1.2-3 3.2-4.9 2.7-1.2 4.8-2.9 5.1-4.1.5-2 5.3-3 5.3-1.1zm174 5.1c0 2.5-.9 2.5-2.6.2-2.1-2.7-1.8-4.5.6-3.2 1.1.6 2 2 2 3zm-31.2 4.2c.3 1.4-.3 1.8-2.7 1.8-3.4 0-3.4 0-2.5-2.5.8-2.1 4.8-1.6 5.2.7zm26.6 3.7c1.7 1.8 1.5 4.1-.3 4.1-.7 0-3.1-4.3-3.1-5.5 0-1.1 1.8-.3 3.4 1.4zm-4.9 6.1c1 1.1 1.5 2.3 1.2 2.6-.8.8-5.7-2.3-5.7-3.6 0-1.7 2.6-1.1 4.5 1zm-189.6 4.5c4.7 4.3 5.8 4.4 6.8.4l.9-3.1 1.3 2.5c.7 1.4 2.4 3 3.7 3.6 2.8 1.2 3.5 5.7.8 4.7-5-1.9-6.4-1.8-10.1 1.3-3.7 3.1-6.3 4-6.3 2.2 0-.5.7-1.1 1.5-1.5 2.4-.9 1.7-4-1.5-7.1-2.9-2.8-4-6.5-2-6.5.5 0 2.7 1.6 4.9 3.5zm163.1 9.6c0 .6-1.1 2.5-2.5 4.3a12.2 12.2 0 0 0-2.5 4.5c0 1.8-3.4.9-3.8-1.1-.4-1.9 5.4-8.8 7.4-8.8.8 0 1.4.5 1.4 1.1zm-170.4 14.6c-4.7 6.2-15.6 17.2-15.6 15.9 0-2.9 16.6-21.6 19.2-21.6.5 0-1.1 2.6-3.6 5.7zm181.7 3.7c.3 1.2-3 3.2-3.9 2.4-1.1-1.2.5-4 2.1-3.6.9.2 1.7.7 1.8 1.2zm-7.8 4.6c.8 2.4-.1 4-2.1 4-.8 0-1.4-1-1.4-2.3 0-4 2.4-5.1 3.5-1.7zm-161 0c-.3.5-2.1 1-3.8 1-1.8 0-4.3.7-5.5 1.6-2 1.4-2.3 1.4-2.9-.1-.3-1 0-2.1.8-2.6 2-1.2 12.2-1.2 11.4.1zm131.8 2.9c4 4.4 5.4 7.8 3.9 9.3-1.9 1.9-3.9.1-6.6-5.6-4.1-8.7-3.1-10.1 2.7-3.7zM509 953c0 1.1-.2 2-.4 2l-2 .6c-1.9.7-2.2-1.6-.4-3.4 1.8-1.8 2.8-1.5 2.8.8zm-172.6 3.4c-.5 2.2-.2 2.5 2.8 2.8 4.3.4 5.1 3.4 1.2 4.4-2.2.6-3.2.2-5.1-2-2.7-3.2-2.8-3.9-.7-6 2.1-2.2 2.5-2 1.8.8zm16.1-.4c.3 1 .5 4.6.4 8-.3 7.1 1.1 9.3 3.5 5.9.9-1.3 1.9-3.9 2.2-5.9.4-1.9 1.3-4.4 2-5.4 1.1-1.6 1.2-1.1.7 3.8-.6 6.1.3 7 4.1 4.1 2.7-2.1 6-1.9 8.1.5 2.2 2.5 3 9.6 1.4 13.5l-1.2 3-.6-2.4c-.9-3.4-2.4-3.6-5.9-.6-3.6 3-5.2 3.2-5.2.4 0-1.8-.4-2-3-1.4-2.1.5-3.9.2-5.5-.9-3.9-2.5-5.5-2.1-5.5 1.6 0 3.5-1.5 6.7-2.5 5.6-3.4-3.4-1.4-22.3 3.1-29.6 1.8-2.7 3.1-2.8 3.9-.2zm126.8 6c1.8 0 1.5.6-2.2 4-4.1 3.9-8.3 5.2-9.6 3-1.4-2.3 5.5-8.5 8.3-7.5.8.3 2.3.5 3.5.5zm-148.1 5.2c.7 1.8-.2 3.9-1.3 3.2-1.2-.7-1.2-4.4 0-4.4.5 0 1.1.6 1.3 1.2zm141.7 12.1c.8 1 .7 1.7-.1 2.5-1.8 1.8-3.8 1.4-3.8-.6 0-3.2 2-4.2 3.9-1.9zm24.6 1.3c0 1-.8 2-1.7 2.2-1.8.3-2.6-2.7-1.1-4.2 1.2-1.1 2.8 0 2.8 2zM379 987.3c0 1.4-2 3.7-3.2 3.7-1 0-1.1-3.4-.1-4.3 1.1-1.2 3.3-.8 3.3.6zm4.5 10.1c3 4.5-.6 7.6-9.1 7.6-5.3 0-5.9-1.8-.6-2.2 3.4-.3 3.8-.6 4.6-4.1 1.1-4.3 2.9-4.7 5.1-1.3zm98 8.6c0 .8-1 1.6-2.2 1.8-2.5.4-2.6.2-1.7-2.3.8-1.9 3.9-1.6 3.9.5zm-20.5 19.4c0 1.4 2.9 2.6 6.8 2.6 3.3 0 2.2 2.4-1.2 2.8-4.6.6-13.3-3.8-12-5.9.9-1.5 6.4-1 6.4.5zm-8.9 7 4.4 1.3-2.9.8c-5.8 1.6-29.5-1.1-24.6-2.8l3-1.1c2.3-.9 15.2.3 20.1 1.8zm-29 5.2c1 1.3 1 1.7-.2 2.5-2.3 1.4-3.9 1-3.9-.9 0-3.4 2-4.2 4.1-1.6zm54.7 4.7c2.9.9 6 2.1 6.9 2.8 1.3 1.2 1.3 1.5-.6 3.1-2.6 2-4.4 1.5-8.9-2.4-3.5-3-6.6-3.6-7.9-1.4-.4.7-1.8 1.7-3 2-3.6 1.1-2.9-2.1 1-4.5 3.3-2.1 3.8-2 12.5.4zm17.8 29.1c.8 2.1-2.2 7.3-4.6 7.9-2.4.6-2.6-.5-.3-2.4 1.5-1.3 1.3-1.4-1.2-1.9-3.8-.7-4.2-2.6-.8-3.8 4-1.5 6.3-1.4 6.9.2z"/>
  <path d="M338.1 435.8c-2.3 2.1-4.2 4.7-4.2 5.8-.3 4.2.3 10.9 1.1 11.8 1.4 1.4 3.8-3.5 5.1-10.4a43 43 0 0 1 2.1-8.3c1.7-3.3.1-2.9-4.1 1.1zM57 411.7a6 6 0 0 1-1.7 3.5c-1.4 1.6-1.4 1.8-.1 1.8.9 0 2.6-.8 3.9-1.9 2-1.6 2.1-2.1 1-3.5-1.7-2.1-3.1-2-3.1.1zM68.8 418c1.8 1.7 4 3 5 3 1.2-.1.8-.9-1.8-3-4.6-4-7.6-4-3.2 0zM313.9 463.9c1 1.9 9.7 8.1 11.3 8.1 1.5 0 .8-1.6-1.9-4.2-6.1-5.5-11.4-7.8-9.4-3.9zM345 642.5c0 .9 8 5.8 8.6 5.2.3-.3-1.2-1.7-3.3-3.1-3.6-2.5-5.3-3.2-5.3-2.1zM314.3 701.2c-2.6 2.9-3.3 5.1-2.3 6.8 1.2 1.9 3.5-.1 6.1-5.2 1.9-3.7 1.9-3.8.1-3.8-1 0-2.8 1-3.9 2.2zM336.2 741c-1.8 1.6-3.2 3.5-3.2 4.2 0 .7 1.7-.4 3.7-2.4 4.4-4.5 4-6-.5-1.8zM329.5 21c-1.3 1.4-1.5 2.4-.8 3.1 2 2 6.3-1.7 4.7-4.2-.8-1.4-1.9-1.1-3.9 1.1zM272.4 72.2a414.9 414.9 0 0 0-19 34.8c-1.8 3.6-5.8 15.1-8.9 25.7-10.5 36.2-18.6 51.4-29.3 54.7-2.2.7-2.2.9 1.8 4.7 2.2 2.1 4.5 3.9 5.1 3.9 2.2 0 14.8-10.4 18.5-15.2 4.7-6.2 6.4-6.2 6.4-.3 0 4.5 1.9 6.6 2.1 2.2 0-1.2.6-3.8 1.4-5.7l1.3-3.5.8 4.5.7 4.4 1.4-3.9c3.3-9.3 3.9-18.5 1.2-18.5-.5 0-4.8 3.6-9.5 8-8.1 7.6-12.4 9.9-12.4 6.4 0-.8 2.5-6.9 5.5-13.4 7.1-15.3 7.1-15.3 10.6-29 2.4-9.5 4.8-15.3 13.9-33.5 10-20 15.1-32.5 13.2-32.5-.4 0-2.6 2.8-4.8 6.2zM356.8 117.7c-3.7 1.5-5.1 3.3-2.6 3.3 2.4 0 9.7-3.3 9.2-4.1-.7-1.2-2.3-1.1-6.6.8zM208.5 215.7c-4.1 2.1-6.5 4.3-6.5 6 0 1.6 3.6 1.8 4.6.2.9-1.6 6.6-3.8 8.1-3.2.8.3 1.3 2.2 1.3 4.8 0 5.6 1.4 6.5 4 2.3 2.6-4.4 2.5-5.4-.9-8.9-3.3-3.2-6.2-3.6-10.6-1.2zM164.7 217.9c-.2 1-.1 2.5.4 3.2.6 1 .9.4.9-1.9 0-3.6-.5-4.2-1.3-1.3zM175.7 217.9c-.2 1-.1 2.5.4 3.2.6 1 .9.4.9-1.9 0-3.6-.5-4.2-1.3-1.3zM170 219.5c0 1.5.4 2.4 1 2 .6-.3 1-1.2 1-2s-.4-1.7-1-2c-.6-.4-1 .5-1 2zM229.3 227.3c-2.1.9-4 3.7-2.5 3.7 1.1-.1 5.7-3.8 5.2-4.3-.3-.3-1.5 0-2.7.6zM151.3 235.2c-8.5 2.3-15.7 20.4-10.3 25.8 1.1 1.1 2 2.8 2 3.8 0 2.4-4.3 6.3-10.7 9.7-4 2.1-5.4 3.5-5.8 5.7-.8 3.4 0 4.7 1.9 3.3 8.9-6.6 9.4-6.8 12.1-5.1 1.5 1 2.5 2.5 2.3 3.4-.4 2.2-6.1 5.9-11.2 7.4-2.3.7-5.2 2-6.6 2.9-1.4 1-5.2 2.5-8.5 3.4-7.3 2.1-8.5 3-8.5 6.6 0 4.1 1.3 4.2 4.4.2 4-4.9 10.5-7.6 18.8-7.7 5.6 0 6.8-.3 6.8-1.6 0-1.7 3.8-4 6.5-4 .8 0 1.5-.9 1.5-2s.4-2 .9-2c1.2 0 4.1 2.9 4.1 4 0 .5.3 1.5.6 2.4.4 1 .1 1.6-.9 1.6-2.5 0-2.8 1.4-1.4 6.1l1.3 4.4 3.5-3.6c1.9-1.9 4.9-5.3 6.6-7.4l3.3-3.8 6 .6c5.8.7 6.1.6 9.9-2.8 4.4-4 6-4.3 9.2-1.5l2.4 2-4 3.4-4 3.4 2.1 2.9c3 4 5.1 4 8.4.1 2.7-3.2 2.9-3.2 4.7-1.5 1.9 1.6 2 1.6 3.5 0 .8-1 2.2-3 3.1-4.6 1-1.5 2.3-2.7 3.1-2.7 2.1 0 4.6-3.4 4.6-6.3 0-3.1-3.3-5.7-7.1-5.7-2.9 0-7.9 3.4-7.9 5.5 0 .7-.7 1.8-1.6 2.6-2 1.6-3.4-.2-3.4-4.7 0-5.2 1.6-6.1 12.5-7.3 11.5-1.3 15-3.1 15-7.7 0-2.6-.3-2.9-2.7-2.6-2.3.3-3.2-.4-5.4-4l-2.7-4.4-3.9 1.9-4 2-7.1-3.7c-4-2.1-9.5-5.3-12.4-7.2-9.9-6.6-26.3-12.5-31-11.2zm15.7 15.7c6 2.3 13 7.4 15.9 11.7 3.8 5.6 2.1 13.4-3 13.4-2.4 0-8.1-2.9-12.8-6.4a13.4 13.4 0 0 0-5.1-2.6c-.9 0-2.9-1.3-4.4-2.9-3.5-3.7-4.1-9.8-1.2-13 2.4-2.6 4.2-2.6 10.6-.2zm23 24.7c0 2.7-2 5.4-4 5.4-2.5 0-2.5-1.1.1-4.4 2.3-2.9 3.9-3.4 3.9-1zM224 236.8c0 1.5 2.4 3.2 4.4 3.2 1.8 0 1.9-.1.1-2-1.8-2-4.5-2.7-4.5-1.2zM262 255.3c0 1.9 2.1 3.7 4.2 3.7 2.3 0 2.3-1.2 0-3.3-2.2-2-4.2-2.2-4.2-.4zM225.6 260.5c-.3.8-.1 2.5.4 3.7.8 2 .9 1.8.9-1.5.1-3.9-.3-4.7-1.3-2.2zM262.9 271c-2.4 2-2.4 2-.5 3.5 1.1.8 4 1.5 6.5 1.5l4.6-.1-2.9-2.3-2.8-2.4 2.8-1c2.8-1 2.8-1-1.2-1.1-2.8-.1-5 .6-6.5 1.9zM238 274c-1 .6-.7 1 1.3 1.6 3.4.8 4.6-.1 2-1.4-1.1-.6-2.5-.7-3.3-.2zM243 290.9c0 .9 4.1 2.3 4.8 1.6.2-.2.1-.8-.3-1.4-.8-1.3-4.5-1.5-4.5-.2zM237.4 299.1c-.8 1.4.5 2.6 3.7 3.4 3.4.8 4.9-1.3 2.4-3.2-2.3-1.6-5.1-1.7-6.1-.2z"/>
  <path d="M159.7 301.7c-1.4 1.3-.7 3.3 1.1 3.3 2.4 0 3.2-.8 2.5-2.6-.5-1.5-2.5-1.9-3.6-.7zM135.7 304.8c-2.2 2.4-2.1 4.2.2 4.2 2 0 7.1-3.6 7.1-5.1 0-1.6-5.6-.9-7.3.9zM146.4 309.9c-4 2.4-5 3.9-3.1 4.7 3 1.1 9.9-4.1 8-6-.9-.9-1.5-.8-4.9 1.3zM185 452c0 2.2 1.9 3.4 4.7 2.8 1.6-.3 1.6-.5-.5-2.6-2.7-2.7-4.2-2.8-4.2-.2zM198 553.9c-1.4 2.7-1.3 6.1.5 11.2 1.8 5 2.8 5.9 7.2 5.9 4.3 0 7.3-3.9 7.3-9.5 0-4.8-1.6-6.8-5.8-6.7-1.5 0-3.6-.7-4.7-1.4-2.6-1.8-3.2-1.8-4.5.5zM211.6 573.6c-.4 1-.1 2.1.6 2.6 1.9 1.1 3.3.4 3.3-1.8 0-2.4-3-3-3.9-.8zM198.3 574.6c-.3.9-.2 3.2.3 5.2.8 3.1 1.9 4.1 9.3 8.2 8.5 4.7 10.1 6.5 11.5 13.2.8 3.5 3.7 4.3 7.8 2.2 4.6-2.4 5.7-4.2 5.8-9.2 0-3.5-.6-4.9-3-7.4-2.7-2.7-3.6-3-6.9-2.4-2.7.4-4.2.2-5-.8a26 26 0 0 0-8-3.5c-5.2-1.6-7-2.6-7.9-4.6-1.3-2.9-3-3.2-3.9-.9zM294.3 593.9c-4.7 3.4-7.3 6.7-7.3 9.3 0 2.2.4 2.2 3.5.2a44.3 44.3 0 0 0 9.5-11.8c0-1.2-1.8-.5-5.7 2.3zM204.6 622.8c-2.1 4-3.9 21.3-3.1 29.6.8 8 3.3 21.4 4.4 23.5.5.8 1.1-.7 1.5-3.9.8-6.1 3.4-13 4.8-13 .6 0 .7 1.1.4 2.5-.4 1.4-.3 2.5.2 2.5 1.1 0 3.2-4.6 3.2-7.1s-4.1-4.2-7.3-3c-3 1.2-5.7-.4-5.7-3.2 0-1.3.9-6.3 1.9-11.2 2.8-12.9 3.5-19.5 2.2-19.5-.6 0-1.7 1.2-2.5 2.8zM282 672.9c-4.7 1-11 4.4-8.9 4.8 2.1.5 12.9-3.6 12.9-4.8 0-.5-.1-.8-.2-.8l-3.8.8zM288.6 679.9c-1.7 2.8 3.3 6.7 6.4 5.1 2.8-1.5 2.5-2.7-1-4.5-3.3-1.7-4.7-1.9-5.4-.6zM303 689c-4.6 2.4-14 12-11.8 12 2.1 0 12.5-7 16.2-10.9 2.6-2.7 2.7-3.1 1-3.1-1 .1-3.5.9-5.4 2zM217.5 718c-.9 1.4 1.2 8.1 3.5 11l2 2.5v-2.7c0-2.5-3.4-11.8-4.4-11.8-.3 0-.8.4-1.1 1zM267 738.8c-2.9 1.3-7 4.4-7 5.3 0 2 3.9.7 7.6-2.6 3.6-3.1 3.3-4.4-.6-2.7zM385.5 783c-1.6 1.6-2.6 3-2.2 3 1.6 0 7.7-3.5 8.1-4.7 1-2.5-3-1.3-5.9 1.7zM369.9 789.6c-1 1.3-1 1.7.1 2.4 1.8 1.1 3 .3 3-2.1 0-2.3-1.3-2.5-3.1-.3zM387.4 791.3c-1.5 1.3-2.3 2.7-1.7 3 1.1.7 7.3-2.9 7.3-4.3 0-1.7-2.8-1.1-5.6 1.3zM348 797.5c-1.4 1.6-.5 3.5 1.6 3.5 1.5 0 2-3.5.5-4.4-.5-.3-1.4.1-2.1.9zM344.4 808.5c-.4.9-.4 1.8-.1 2.1 1 1 4.8-.7 4.4-1.9-.6-1.9-3.6-2-4.3-.2zM504.9 809.5c-2.8 1.5-4.6 4.5-2.8 4.5 2.5 0 6.8-3.3 6.9-5.3 0-1-1.1-.8-4.1.8zM342.8 818.9c-1.8 1.6-3 3.3-2.6 3.6.7.8 9.3-3.8 10.3-5.5 1.4-2.3-4.7-.8-7.7 1.9zM381.5 824.6c-3 3.2-3.1 4.4-.5 4.4 1 0 2.9 1 4 2.2 2 2.1 2.2 2.2 4.8.6 1.5-.9 3.1-2.8 3.7-4.3.8-2.2.6-2.9-1-4.1a8.7 8.7 0 0 0-11 1.2zM510.5 840.3c-1 1.4-1.2 2.4-.5 3.1 1.3 1.3 4.4-.4 4.8-2.6.5-2.5-2.6-2.9-4.3-.5zM493 857.4c0 1.3.9 3.4 1.9 4.7 1.7 2.1 2 2.2 2.6.7.7-1.8-2-7.8-3.5-7.8-.6 0-1 1.1-1 2.4zM486 864.7c.1 2.6 3.7 10.3 5 10.3 1.6 0 1.2-3.7-1-8-2.1-4.2-4-5.2-4-2.3zM337.1 869.6c-1.1 1.5-1.8 3-1.5 3.5 1 1.7 4.4.9 6-1.6 3-4.6-1-6.3-4.5-1.9zM478 878.4c0 2.1 3.6 10.3 4.9 11 2.2 1.4 1.1-4.8-1.5-8.6-2.9-4.2-3.4-4.5-3.4-2.4zM469 879.3c0 1.3 3.9 8.5 5 9.2.5.3 1-.3 1-1.4 0-1.9-5.9-9.6-6-7.8zM469 897.7c.1 2 6.9 11.3 8.3 11.3 1.5 0-.2-5-3-8.6-2.3-3.1-5.4-4.6-5.3-2.7zM460.3 917.8c.7 6.1 2.7 10.8 3.9 9 1.2-2 .9-6.2-.7-10.2-2.2-5.3-3.9-4.6-3.2 1.2zM468.6 913.9c-.4.5.1 2.7 1.1 4.8 1.7 3.8 1.7 3.8 2.1 1.1.4-3-2.2-7.6-3.2-5.9zM454.7 933.7c-.4 2.3-1.1 4.4-1.6 4.7-.5.3-1.9-1.1-3.2-3.2-2.1-3.3-2.4-3.5-2.7-1.5-.4 2.4 3.3 10.3 4.8 10.3 1.9 0 4.1-6.1 3.8-10.3l-.3-4.2-.8 4.2zM474 939.5c0 2.5.5 4.5 1 4.5.6 0 1-2 1-4.5s-.4-4.5-1-4.5c-.5 0-1 2-1 4.5zM444.2 962.5c0 5.9 0 6 1 2.2.7-2.7.7-4.5 0-6-.9-1.8-1.1-1.1-1 3.8zM435.7 965.7c-.3 1.5-.1 3.6.3 4.7.7 1.6.9.9.9-2.7.1-5.2-.4-6.1-1.2-2zM446.6 988.6a4 4 0 0 0 .4 3.2c.7 1.4.9 1 1-1.6 0-3.5-.5-4.1-1.4-1.6zM431.5 1015c-.4.6.8 1 3 1s3.4-.4 3-1c-.3-.6-1.7-1-3-1s-2.7.4-3 1zM333 1034c-1.1.7-.3 1 3 1s4.1-.3 3-1c-.8-.5-2.2-1-3-1-.8 0-2.2.5-3 1zM389.3 1035c-4 2.4-4.5 4.4-.7 3 4.2-1.6 6.4-3 6.4-4 0-1.6-2.2-1.2-5.7 1zM381 1041.9c0 1.1 3.9 4.1 5.3 4.1 1.3 0-1.2-2.9-3.5-4.1-1.2-.6-1.8-.6-1.8 0zM370.7 1048.7c-.4.3-.7 1.4-.7 2.4 0 1.2-.9 1.9-2.7 2.1-2.4.3-2.8.8-3.1 3.9-.2 2.7.3 4.4 2.3 6.8 5.3 6.3 10.4 2.6 9-6.7-.6-4.3.8-6 2-2.3.7 2.4 3.2 1.7 4.1-1.2.5-1.5 0-2.6-1.6-3.9-2.2-1.8-8-2.5-9.3-1.1zM470 1054c0 1.1 3.3 3 5.2 3 .7-.1.3-.9-1.1-2-2.5-2.2-4.1-2.6-4.1-1zM316.6 1068.6c-7 2.5-16.6 11.3-16.6 15.2 0 2.4 2.1 1 10.3-6.6a159 159 0 0 1 10.3-8.9c2.6-1.6.8-1.5-4 .3zM454 1114.1c-1.8 3.3-.6 4.2 1.3.9 1-1.6 1.4-3 .8-3-.6 0-1.5.9-2.1 2.1z"/>
</svg>
