<svg xmlns="http://www.w3.org/2000/svg" version="1.0" viewBox="0 0 785 1280">
  <path d="M39.9 2.4c-3.2 2.2-6.5 7.9-9.2 15.7-.4 1.3-1.5 1.6-5.1 1.2-8.2-1-16.8 6.3-19.6 16.6-1.2 4.6-.6 9.5 2.1 15.8L9.9 56l-4.5 4.2c-5.4 5.2-6.5 9.6-4 16.2C3 80.5 9.1 87.2 22.1 98.9c4 3.5 4.8 5 5.8 9.9 1.6 8.2 5.5 14.2 17.6 27.2 14.2 15.3 14.7 16.3 15.5 32.7l.6 13.1 5.1 10.4 5.1 10.5.6 18.4a606.6 606.6 0 0 0 65.1 258.3L152 507c24.1 46.2 39.7 72.7 46.8 79.5 2.9 2.8 3.1 3.4 2.2 6.5-1.6 5.9-5.8 31.8-7.5 46-2.3 19-3 54.3-1.6 72.5 2.2 26.4 7.3 51.3 14.7 71.2a382.4 382.4 0 0 0 32.4 63.4l2.8 3.5-1.5 12c-1.2 9.6-1.3 16.6-.7 35.9.5 13.2.8 31 .8 39.5 0 15.3-.1 15.8-5.7 39-19 80-31.7 171.3-31.7 229.1v13.6l-4.2 1.2a55.6 55.6 0 0 0-30.4 24.2 24.5 24.5 0 0 0-.7 21.4 37.4 37.4 0 0 0 14.9 14.1c1.6.4 5.3.1 8.4-.6 6-1.4 6.3-1.4 16-.4 4.6.4 7.5.2 10-.8 2.9-1.2 4-1.2 7.5 0 14.7 5.1 34.8-6.5 44.1-25.4l3.9-7.8-.3-22.9c-.3-25.1.1-28.6 6.4-57.2 1.9-8.8 3.7-16.6 4-17.3.3-1 1.5-.5 4.1 1.8 4.4 3.9 9.9 6.3 22 9.7 7.9 2.2 9.1 2.8 7.7 3.8-2.3 1.7-1.3 2.9 4.3 5 8.8 3.3 24.9 11.9 23.1 12.3-2.7.5-2.2 1.7 1.5 3.4 1.8.9 7.8 5.3 13.3 9.8 5.4 4.5 10.5 8.5 11.2 8.7 3.4 1.4.2 2.3-8.1 2.3-13 0-20 1.5-29.1 6.3-12.3 6.6-19.1 14.9-21.1 25.8-1.6 8.5 5.5 19.7 13.9 22 4.6 1.3 14.7.6 21.7-1.3 2.9-.9 9.6-1.2 19.6-1l15.2.3 1.9 4.2a26.3 26.3 0 0 0 10.9 11.8c1.3.5 6.7.9 11.8.9 7.5 0 10.2.4 13.3 2 6.8 3.5 19 4.5 36.4 3 10.8-.9 44.7-1.5 114.8-2 104.8-.7 100.8-.6 130.7-5.5 5.4-.9 11.7-2.6 14-3.7 8.8-4.1 17.3-17.5 27.8-43.8a134 134 0 0 1 7.8-17.2c.7-.4 2.6-.8 4.2-.8 6.1-.1 7.2-.9 9.5-7.3 1.3-3.4 5.8-13.9 10.1-23.2 9.1-19.9 10.5-25.8 9.5-41.3-.6-11-2.9-23.4-7.6-42.3l-3-11.7 2.2-7.8c3.2-12.1 2.8-17.3-3.1-37.7-2.8-9.8-7.6-25.3-10.6-34.5-6.3-19.4-6.4-19.6-33.7-56.2a1122.1 1122.1 0 0 1-41.4-58.5c-9.4-14.6-17.4-32.4-17.4-38.3 0-1.4-2.3-5.9-5.1-10.1a668 668 0 0 0-35.8-48.5c-17.4-20.4-70.4-71.7-78.3-75.7a145.6 145.6 0 0 1-27.6-26.4c-4.1-5-11.8-13.3-17.1-18.5-8.4-8.3-9.9-10.4-12.4-16.7-3.6-9.1-5.9-12-10.6-13.3-5.6-1.5-8.6-4.3-12.1-11.3a51 51 0 0 1-3.6-33.7c2.4-9.8 13-34.3 33.6-77.5 15.5-32.5 26.9-62.1 29-75.5a351 351 0 0 0 0-52.5l-2-26.7c-1.1-15.2-1-15.9 1.4-25 6.9-26.1 6.6-52.2-.6-57.3-3.4-2.3-9.8-1.9-15.4 1.1-10.1 5.3-24.6 18-34.6 30.1l-2.6 3.2-6.1-6.1c-4.3-4.3-6.1-6.9-6.1-8.7 0-2.6-.5-5.4-5.5-27.6-1.5-6.6-3.2-17.6-4-24.3-1.4-13.3-2.5-16-6.4-14.7-1.2.3-3 2.3-4 4.3a317 317 0 0 0-9.1 52.8v6.4h-4.3c-2.3 0-12.6-.7-22.7-1.6-19.4-1.6-29.3-1.3-39.4 1.3-7.9 1.9-11.7 4-21.7 11.6-17.1 12.9-19.8 13.8-40.7 13-12.9-.4-15.1-.2-18.2 1.4-4.7 2.5-6.7 6.4-7.9 15.7-.6 5.5-1.6 8.7-3.1 10.5a69.8 69.8 0 0 0-5.1 8.8 30 30 0 0 0-1.2 23.8c1.7 4.4 1.7 5.4.5 9-.7 2.2-1.2 5.7-1 7.7.2 2.1.2 3.8 0 3.8l-6.4-3.1c-3.4-1.7-13.2-6-21.7-9.6-31.4-13.1-36.5-16.9-44.6-33.7-9.5-19.7-15.2-38.3-26.1-85-10.5-45.3-14.1-56.5-27.9-86.1-13.7-29.4-16.7-37.6-18-49.7-.8-7.3-2.8-11.6-9.8-21.3-8-10.9-8.6-13.6-8.7-37 0-18.9-.2-20.3-2.4-25.1a27.3 27.3 0 0 0-6.2-8.2C94 36.5 86.6 34 82.8 34.7c-2.1.4-2.7 0-3.2-2.3a33.3 33.3 0 0 0-13-15.5 38.6 38.6 0 0 1-9.2-8.7C51.9 0 46.2-1.9 39.9 2.4z"/>
</svg>
