<svg xmlns="http://www.w3.org/2000/svg" aria-hidden="true" viewBox="0 0 14 14">
  <path d="M9.28 1c-.02 0-.04 0-.06.02a.12.12 0 0 0-.06.1c0 .05.01 1.21.34 1.78.2.34.42.51.68.51.11 0 .24-.03.37-.1.16-.1.33-.21.4-.43.04-.18 0-.4-.15-.65A4.87 4.87 0 0 0 9.28 1zm2.95.9a4.67 4.67 0 0 0-1.32 1.32c-.25.52-.16.88.27 1.09.1.05.24.1.39.1.26 0 .47-.17.63-.52.28-.59.17-1.83.16-1.88a.12.12 0 0 0-.07-.1.12.12 0 0 0-.06 0zM9.72 3.46c-.65 0-1.42.2-1.45.22a.11.11 0 0 0-.08.08c-.01.04 0 .1.03.12.03.04.88.84 1.54 1.02.14.04.27.06.39.06.34 0 .55-.17.65-.51.04-.18.08-.38-.03-.57-.1-.17-.29-.29-.58-.37a1.85 1.85 0 0 0-.47-.05zm3.18.75h-.07c-.05.03-1.13.43-1.55.93-.38.44-.39.8-.03 1.12.13.11.29.22.49.22s.4-.11.6-.35c.43-.5.65-1.72.66-1.77a.12.12 0 0 0-.05-.12c-.01-.01-.03-.03-.05-.03zm-4.3.73c-.03.01-.08.03-.1.07-.02.03-.01.09 0 .13.03.04.65 1.04 1.24 1.38.22.13.4.18.57.18.34 0 .5-.26.55-.35.1-.15.18-.34.13-.55-.05-.19-.2-.35-.47-.5a5.12 5.12 0 0 0-1.91-.36Zm-.18 1.03c-.02 0-.05 0-.06.02a.12.12 0 0 0-.05.12c0 .05.2 1.21.63 1.74.22.29.45.43.68.43a.7.7 0 0 0 .43-.17c.14-.1.29-.25.32-.47.02-.19-.06-.4-.25-.64a5.07 5.07 0 0 0-1.7-1.03zm4.24.76c-.05 0-1.2.01-1.78.34-.5.29-.63.63-.4 1.05.07.12.24.4.58.4.14 0 .31-.06.5-.16a4.82 4.82 0 0 0 1.22-1.45c.02-.04.01-.08-.01-.12a.12.12 0 0 0-.1-.06zm-4.7.4-.06.01a.12.12 0 0 0-.06.1c0 .05-.08 1.23.2 1.84.18.4.42.58.7.58.1 0 .2-.02.32-.07.16-.08.34-.18.42-.38.07-.19.04-.41-.1-.69a5.05 5.05 0 0 0-1.41-1.4zM9.49 9.2a.74.74 0 0 0-.05.45c.04.18.11.62.68.62l.26-.03A4.9 4.9 0 0 0 12 9.29a.13.13 0 0 0 .04-.13.12.12 0 0 0-.08-.09c-.04 0-.87-.3-1.52-.3-.1 0-.2.01-.28.03-.36.06-.58.19-.68.4zM7.12 8a.11.11 0 0 0-.1.08c-.01.05-.39 1.17-.27 1.83.09.51.33.77.7.77.05 0 .1 0 .16-.02.17-.03.38-.09.5-.26.11-.16.14-.38.08-.68a5.07 5.07 0 0 0-.95-1.68.13.13 0 0 0-.12-.04Zm-1.24.87a.12.12 0 0 0-.1.07c-.02.05-.5 1.13-.45 1.8.04.56.27.83.7.83h.13c-.99.4-2.85 1.02-5.06.94-.31.34.21.49.21.49s3.07 0 5.04-1.33l-.05.13c-.06.17-.12.37-.03.57.09.18.27.31.56.41.18.07.44.1.76.1.57 0 1.15-.1 1.18-.1.04-.01.08-.05.09-.09a.12.12 0 0 0-.02-.12 4.94 4.94 0 0 0-1.47-1.14c-.24-.09-.44-.1-.6-.08l.16-.13-.32.16.02-.02c.12-.15.18-.36.16-.67-.05-.67-.76-1.72-.8-1.76a.13.13 0 0 0-.1-.06Zm2.64 1.36c-.34.03-.53.23-.59.59-.02.17-.03.38.1.56.11.15.31.25.62.3h.2c.68 0 1.65-.37 1.7-.39a.11.11 0 0 0 .07-.1.12.12 0 0 0-.05-.1c-.04-.04-.99-.75-1.66-.85a1.53 1.53 0 0 0-.39-.01z"/>
</svg>
