<svg xmlns="http://www.w3.org/2000/svg" xml:space="preserve" viewBox="0 0 422.4 422.4">
  <path d="M61 332h51v80H61z" style="fill:#997668"/>
  <path d="M61 332h25v80H61z" style="opacity:.2;fill:#222"/>
  <path d="M61 332v41a102 102 0 0 0 51 0v-41H61z" style="opacity:.3;fill:#222"/>
  <path d="M172 275c0-48-19-265-86-265S0 227 0 275a86 86 0 0 0 172 0z" style="fill:#218649"/>
  <path d="m145 88-9 33c-14 64-18 131-18 154 0 25 9 47 24 65 19-16 30-39 30-65 0-29-7-120-27-187zM86 10C19 10 0 227 0 275c0 47 39 86 86 86V10z" style="opacity:.2;fill:#222"/>
  <path d="m32 296-5-2c-3-3-3-7 0-11l22-24a8 8 0 0 1 11 10l-22 25-6 2zM122 117c-3 0-5-1-7-3L97 86a7 7 0 1 1 12-8l19 28a7 7 0 0 1-6 11zM58 102a7 7 0 0 1-7-11l16-36a8 8 0 0 1 13 6L65 97c-1 3-4 5-7 5zM48 201c-3 0-5-1-7-4l-15-24a7 7 0 1 1 13-8l15 25a7 7 0 0 1-6 11zM107 342c-2 0-4 0-5-2-3-2-4-7-1-10l22-25a8 8 0 0 1 11 10l-22 25-5 2zM122 233c-3 0-6-2-7-5l-15-31a7 7 0 1 1 14-7l14 32a7 7 0 0 1-6 11z" style="fill:#77bc1f"/>
  <path d="M311 332h51v80h-51z" style="fill:#997668"/>
  <path d="M311 332h25v80h-25z" style="opacity:.2;fill:#222"/>
  <path d="M311 332v41a102 102 0 0 0 51 0v-41h-51z" style="opacity:.3;fill:#222"/>
  <path d="M422 275c0-48-19-240-86-240s-86 192-86 240a86 86 0 0 0 172 0z" style="fill:#218649"/>
  <path d="M250 275c0 47 39 86 86 86V35c-67 0-86 192-86 240z" style="opacity:.2;fill:#222"/>
  <path d="M323 130c-4 0-6-2-8-5l-11-32a7 7 0 1 1 14-5l12 32a8 8 0 0 1-7 10zM378 231l-4-1c-4-3-5-7-3-11l18-28a8 8 0 0 1 13 7l-18 29c-1 2-4 4-6 4zM357 162a7 7 0 0 1-4-13l25-19a7 7 0 1 1 9 12l-25 19-5 1zM317 224a7 7 0 0 1-7-10l14-31a8 8 0 1 1 13 6l-13 31c-2 2-4 4-7 4zM389 326c-3 0-5-2-7-4l-17-32a8 8 0 1 1 13-7l17 32a8 8 0 0 1-6 11zM312 336l-5-1c-3-3-4-8-1-11l16-19a8 8 0 0 1 12 10l-17 19-5 2z" style="fill:#77bc1f"/>
  <path d="M303 121c-4-17-8-33-13-47-30 58-40 166-40 201 0 30 16 57 41 73 19-19 31-45 31-73 0-23-5-90-19-154z" style="opacity:.2;fill:#222"/>
  <path d="M194 332h51v80h-51z" style="fill:#997668"/>
  <path d="M194 332h26v80h-26z" style="opacity:.2;fill:#222"/>
  <path d="M194 332v41a102 102 0 0 0 51 0v-41h-51z" style="opacity:.3;fill:#222"/>
  <path d="M306 275c0-48-19-265-86-265s-86 217-86 265a86 86 0 0 0 172 0z" style="fill:#77bc1f"/>
  <path d="M220 10c-67 0-86 217-86 265 0 47 38 86 86 86V10z" style="opacity:.2;fill:#218649"/>
  <path d="M175 142a7 7 0 0 1-6-12l25-29a8 8 0 1 1 12 9l-25 30-6 2zM250 84l-6-3-20-26a8 8 0 1 1 12-9l20 26a8 8 0 0 1-6 12zM261 324a7 7 0 0 1-6-13l25-23a7 7 0 1 1 10 11l-24 23-5 2zM195 330c-2 0-4-1-5-3l-22-25a7 7 0 1 1 11-10l22 25a7 7 0 0 1-6 13zM245 213l-5-2c-3-2-4-7-1-10l25-33a7 7 0 1 1 12 10l-25 32-6 3zM190 241c-3 0-6-2-7-4l-17-34a7 7 0 1 1 13-6l17 33a7 7 0 0 1-6 11zM265 277c-2 0-5-1-6-4l-16-27a8 8 0 0 1 14-8l15 28a8 8 0 0 1-7 11zM239 145l-5-2c-3-2-3-7-1-10l19-23a8 8 0 0 1 11 10l-18 22-6 3z" style="fill:#218649"/>
</svg>
