<svg viewBox="0 0 422.4 422.4" xmlns="http://www.w3.org/2000/svg"><path d="m61 332h51v80h-51z" fill="#997668"/><path d="m61 332h25v80h-25z" fill="#222" opacity=".2"/><path d="m61 332v41a102 102 0 0 0 51 0v-41z" fill="#222" opacity=".3"/><path d="m172 275c0-48-19-265-86-265s-86 217-86 265a86 86 0 0 0 172 0z" fill="#218649"/><path d="m145 88-9 33c-14 64-18 131-18 154 0 25 9 47 24 65 19-16 30-39 30-65 0-29-7-120-27-187zm-59-78c-67 0-86 217-86 265 0 47 39 86 86 86z" fill="#222" opacity=".2"/><path d="m32 296-5-2c-3-3-3-7 0-11l22-24a8 8 0 0 1 11 10l-22 25zm90-179c-3 0-5-1-7-3l-18-28a7 7 0 1 1 12-8l19 28a7 7 0 0 1 -6 11zm-64-15a7 7 0 0 1 -7-11l16-36a8 8 0 0 1 13 6l-15 36c-1 3-4 5-7 5zm-10 99c-3 0-5-1-7-4l-15-24a7 7 0 1 1 13-8l15 25a7 7 0 0 1 -6 11zm59 141c-2 0-4 0-5-2-3-2-4-7-1-10l22-25a8 8 0 0 1 11 10l-22 25zm15-109c-3 0-6-2-7-5l-15-31a7 7 0 1 1 14-7l14 32a7 7 0 0 1 -6 11z" fill="#77bc1f"/><path d="m311 332h51v80h-51z" fill="#997668"/><path d="m311 332h25v80h-25z" fill="#222" opacity=".2"/><path d="m311 332v41a102 102 0 0 0 51 0v-41z" fill="#222" opacity=".3"/><path d="m422 275c0-48-19-240-86-240s-86 192-86 240a86 86 0 0 0 172 0z" fill="#218649"/><path d="m250 275c0 47 39 86 86 86v-326c-67 0-86 192-86 240z" fill="#222" opacity=".2"/><path d="m323 130c-4 0-6-2-8-5l-11-32a7 7 0 1 1 14-5l12 32a8 8 0 0 1 -7 10zm55 101-4-1c-4-3-5-7-3-11l18-28a8 8 0 0 1 13 7l-18 29c-1 2-4 4-6 4zm-21-69a7 7 0 0 1 -4-13l25-19a7 7 0 1 1 9 12l-25 19zm-40 62a7 7 0 0 1 -7-10l14-31a8 8 0 1 1 13 6l-13 31c-2 2-4 4-7 4zm72 102c-3 0-5-2-7-4l-17-32a8 8 0 1 1 13-7l17 32a8 8 0 0 1 -6 11zm-77 10-5-1c-3-3-4-8-1-11l16-19a8 8 0 0 1 12 10l-17 19z" fill="#77bc1f"/><path d="m303 121c-4-17-8-33-13-47-30 58-40 166-40 201 0 30 16 57 41 73 19-19 31-45 31-73 0-23-5-90-19-154z" fill="#222" opacity=".2"/><path d="m194 332h51v80h-51z" fill="#997668"/><path d="m194 332h26v80h-26z" fill="#222" opacity=".2"/><path d="m194 332v41a102 102 0 0 0 51 0v-41z" fill="#222" opacity=".3"/><path d="m306 275c0-48-19-265-86-265s-86 217-86 265a86 86 0 0 0 172 0z" fill="#77bc1f"/><g fill="#218649"><path d="m220 10c-67 0-86 217-86 265 0 47 38 86 86 86z" opacity=".2"/><path d="m175 142a7 7 0 0 1 -6-12l25-29a8 8 0 1 1 12 9l-25 30zm75-58-6-3-20-26a8 8 0 1 1 12-9l20 26a8 8 0 0 1 -6 12zm11 240a7 7 0 0 1 -6-13l25-23a7 7 0 1 1 10 11l-24 23zm-66 6c-2 0-4-1-5-3l-22-25a7 7 0 1 1 11-10l22 25a7 7 0 0 1 -6 13zm50-117-5-2c-3-2-4-7-1-10l25-33a7 7 0 1 1 12 10l-25 32zm-55 28c-3 0-6-2-7-4l-17-34a7 7 0 1 1 13-6l17 33a7 7 0 0 1 -6 11zm75 36c-2 0-5-1-6-4l-16-27a8 8 0 0 1 14-8l15 28a8 8 0 0 1 -7 11zm-26-132-5-2c-3-2-3-7-1-10l19-23a8 8 0 0 1 11 10l-18 22z"/></g></svg>