<svg xmlns="http://www.w3.org/2000/svg" version="1.0" viewBox="0 0 640 1280">
  <path d="M319 2c-27 7-58 44-72 87-9 27-11 41-13 85l-2 37a65 65 0 0 0 30 67l5 3h-11c-14 0-27-2-34-4-5-2-7-2-16-2l-14 2c-15 5-33 16-42 27-4 3-5 6-7 12-3 10-6 28-7 48-1 19-1 19 2 65a450 450 0 0 1-6 96c-4 10-13 30-19 38-5 8-12 24-17 42a533 533 0 0 1-52 125l-15 12c-11 8-11 9-8 22 3 12 10 27 15 33 6 5 13 9 19 11l10 3c6 3 8 2 8-4 0-3-1-4-4-7l-4-4 3-1 4-2 5-3 2-2 2 5 10 14 6 9v15l-2 31a682 682 0 0 0 6 128c0 1-1 2-3 2-4 1-12 7-24 18l-16 11c-5 1-7 3-14 12-4 5-4 7-4 9 1 3 0 4-2 6-3 3-3 5-2 8l1 6c0 4 1 5 4 6 3 2 4 3 4 5 0 4 3 5 9 5 5-1 5 0 5 2l1 5c2 3 2 4 5 4l10-3 8-3 7-4 6-3a265 265 0 0 1-2 60c-3 23-1 37 9 63 5 12 15 30 21 38 11 13 40 27 71 33 12 3 31 4 39 4 28-3 50-24 53-51l1-7v9c0 9 0 10 3 16 2 5 4 7 6 7l8 8c12 20 33 27 60 22 23-4 54-18 77-35 13-9 47-55 53-72a852 852 0 0 1 45-99l6-12 5-2c9-3 10-3 15-1s9 2 18 1l16-3 14-4 6-3-1-5c0-5-2-11-6-14l-5-3-9-9-12-15-15-18c-13-19-20-25-35-27-8-2-17 0-21 3l-5 8c-2 5-2 7-3 20v15l-13 15a277 277 0 0 0-26 30l5-13a279 279 0 0 0 20-70l3-14 7 3c7 4 11 4 15 0 3-2 3-2 5 0 4 2 7 1 13-4 3-3 5-4 5-3 4 4 13-1 29-14 12-11 12-9 11-47a473 473 0 0 0 1-41 681 681 0 0 1 3-106l4-57c0-22 0-28-3-55a593 593 0 0 1 1-96l9-53 5-32v-34c-1-33-2-53-5-65-4-16-23-34-43-41-6-2-8-2-37-2h-30l-19-9-19-9 1-5 1-5c1-2 2 2 2 6 0 3 0 3 1-1v-16l2 3 4 5 3 2-2-5c-6-12-6-21 0-33 6-11 7-19 13-53 5-27 5-32 5-39-3-30-15-66-34-99a87 87 0 0 0-50-42c-10-3-29-3-42-1l-8 2-4-2c-6-3-15-3-22-1zM183 401l2 3-4 8c-4 8-7 15-9 23l-1 7 1-6c0-7 4-20 8-26 3-5 3-6 1-8-2-3-3-9-2-14 0-4 1-4 1 3l3 10zm-9 75 7 16c4 7 5 11 5 14l-4 25c-2 5-12 46-14 59-2 11-8 26-18 48a343 343 0 0 0-22 65l-14 28c-2 6-2 38 0 47 2 8 2 10 1 10-3 0-5-19-4-35 1-13 1-13-2-19-2-5-2-6-2-12 1-9 5-23 9-32s14-24 24-37l9-14a339 339 0 0 0 22-73l8-33c4-9 5-18 5-26 0-5-1-7-4-14-8-15-9-22-10-37v-14l1 13c1 10 1 16 3 21zm334 10a553 553 0 0 1-5 142l2 31c1 25 1 28 8 63 16 81 16 108 1 137-4 6-14 17-16 17h-2l-1-6-2-28c-2-36-3-55-5-62-2-11-6-21-18-48-9-19-10-22-12-32-2-17-10-40-17-50-2-4-2-5-2-10 3-25 30-100 41-111 7-8 15-23 22-41l4-8 2 6zM286 910c6 2 16 3 21 1 2 0 5-2 6-4l3-1c0 3-8 26-11 30-7 13-10 22-12 45-2 16-2 54 0 69 2 14 1 48-1 65l-3 39v28l-1-22c0-17-1-24-2-28-6-20-7-64-3-102a426 426 0 0 0-4-122l-1-4 2 2 6 4z"/>
</svg>
