<svg xmlns="http://www.w3.org/2000/svg" version="1.0" viewBox="0 0 1280 1280">
  <g fill="#b5ccb5">
    <path d="m644 17 2 8c6 17 7 24 7 44 1 16 0 19-2 26-3 12-9 23-16 34-9 12-13 18-17 27-1 5-3 9-4 9l-7 3c-12 6-13 17-3 23l5 3v17c1 25 7 48 17 69l4 8-3 3c-8 10 1 27 15 26 8-1 14-8 14-16 0-9-5-15-14-16-6 0-5 0-7-14-4-23-5-54-2-71 1-4 1-4 5-6 6-1 13-7 14-11s-2-9-7-13l-4-3 3-6 10-17a98 98 0 0 0-2-118l-8-9zM547 25l6 12c11 21 15 39 14 58-1 15-4 24-12 43-8 16-10 21-12 31-1 6-2 6-7 10-7 4-10 8-10 13 0 4 6 10 11 11l4 2 1 9c3 25 13 50 27 71l7 10-2 2c-4 7-2 17 4 21 5 4 13 4 18 1 5-4 7-7 8-13 0-9-8-18-18-17l-4 1-2-6a369 369 0 0 1-15-70v-12l3-1c9-4 14-12 12-19-2-2-7-7-9-7l-2-1c-2-1 1-10 8-25 8-18 10-28 10-45 0-16-1-22-6-36a104 104 0 0 0-34-43z"/>
    <path d="M740 25c5 13 5 48 1 62-5 19-12 32-28 48-11 11-16 17-21 26-2 4-4 6-5 6-4 0-12 3-15 6-2 2-3 3-3 8 0 4 0 5 5 9l5 5-2 6-2 26c0 22 1 35 6 53l3 10-2 3c-4 4-5 6-5 12s3 11 9 14c7 3 12 2 17-3 5-4 6-9 5-15-1-5-6-11-12-12l-4-1v-15c0-23 3-46 8-65l2-8 5-1c7-1 13-5 14-8 3-5 2-9-3-15l-3-3 3-5 11-13c18-20 27-39 30-62 2-18-1-37-10-55-5-9-10-17-9-13zM455 50c27 35 35 68 24 102-5 17-7 27-8 36 0 9 0 9-4 12-14 10-11 23 4 25l4 2 3 11c7 22 21 46 37 62 8 8 8 9 7 12-2 4-1 10 1 14 7 10 20 11 27 1 3-5 4-13 0-18s-8-7-14-7l-6 1a237 237 0 0 1-30-72l-2-10 5-5c8-7 10-12 7-18-2-3-5-5-11-7-3-1-3-6 3-28 10-36 2-70-23-97-7-7-18-15-25-19-2-1-2-1 1 3zM835 58c0 34-10 62-29 81l-17 15c-11 7-20 16-25 23-2 3-3 3-8 3-11 0-18 6-16 14l4 7 3 5-3 9c-9 26-11 56-6 83 0 3 0 4-3 6-10 6-9 21 1 27 5 2 12 2 16-1 4-2 8-9 8-14 0-6-7-15-12-15-2 0-2-2 0-17 4-22 12-49 19-63l3-6h6c7-1 13-4 15-7 2-4 1-11-3-16l-2-2 4-4 15-13a99 99 0 0 0 31-123c-1-2-1-2-1 8z"/>
    <path d="M371 92c11 12 19 23 26 36 10 20 12 37 8 62-2 12-2 18-2 28l1 12-3 3c-4 3-7 9-7 14 0 6 6 10 13 10h5l5 9c12 24 29 45 49 61l8 5-1 4c-1 3-1 4 1 9 3 6 8 9 14 9 9 0 14-4 16-12 3-13-12-24-24-17-2 1-2 0-8-7-14-19-29-47-35-64l-2-6 3-4c10-11 9-21-3-24-6-1-6-1-6-5v-18c2-16 2-23 1-34a99 99 0 0 0-66-79l7 8zM924 91c-1 9-6 28-10 37-10 24-27 42-52 54-10 5-16 10-24 16-6 6-7 6-12 5h-8c-5 1-10 5-10 9-1 3 1 9 3 12l2 3-4 9c-12 22-20 53-20 77 0 7 0 8-2 8l-6 4c-3 4-3 5-4 10 0 7 2 12 7 15s13 3 17 0c10-7 10-22-1-28l-3-2a431 431 0 0 1 31-71l6-9 6 1c15 1 23-9 15-21-1-2-1-2 4-6l14-9c13-8 17-10 26-19 10-9 16-17 21-28 10-21 12-45 7-67-2-7-3-7-3 0zM606 89c-5 2-9 8-10 14-2 11 8 23 20 23 5 0 13-5 16-9 4-6 4-14 1-20-4-6-9-10-16-11-5 0-6 0-11 3zM692 90c-8 2-13 9-13 18 0 6 1 10 5 13 13 14 35 5 34-14-1-8-4-13-11-17-6-2-10-2-15 0zM524 99c-3 1-6 4-7 6-5 6-5 14-2 21 10 18 37 11 37-9 0-6-1-10-5-14-6-6-16-8-23-4zM777 104c-9 2-14 7-16 15-3 12 7 24 19 24 11 0 20-9 20-20 0-12-12-22-23-19zM449 121c-8 2-15 9-16 17-2 25 34 31 39 6 3-13-9-26-23-23zM666 133c-7 8-12 53-6 51 2-1 7-11 9-19 3-16 3-34-1-34l-2 2z"/>
    <path d="M853 132c-9 4-14 10-14 19 0 20 26 27 37 10 2-3 2-4 2-11-1-6-1-7-4-11-5-6-14-9-21-7zM587 134c-5 6-5 41 0 50 0 2 2 3 2 3 4 0 7-22 5-37-1-14-4-19-7-16zM280 134l11 8c17 14 30 29 38 46 7 13 8 21 9 43 1 19 2 30 5 37 1 3 1 4-2 6-10 14-5 26 10 25l5-1 6 8a215 215 0 0 0 60 53l6 3v5c1 6 3 10 8 13 14 8 29-7 22-21-5-9-16-12-23-6l-3 2-12-12c-17-17-32-36-41-52l-2-5 3-6c5-8 5-15 1-19-3-3-4-3-9-3h-6l-1-6-2-21a98 98 0 0 0-83-97zM1004 146c-7 21-19 41-32 53-11 10-22 17-40 23-13 4-23 8-30 13-5 4-5 4-10 2-9-3-18 0-20 6-1 3-1 9 2 13 1 3 1 3-5 11-15 20-26 46-31 70-1 10-1 10-5 11-17 6-14 31 4 31 8 0 14-4 16-12 2-6 0-11-5-15l-4-4 7-13c11-20 24-40 37-54l6-6 4 1 9 1c6 0 7 0 9-3 3-3 3-3 3-9l-1-7c-1-2 6-7 20-12a101 101 0 0 0 70-106l-1-4-3 10zM743 144l-8 16c-5 13-8 30-5 32 3 1 10-10 15-25 2-6 2-11 2-17 0-9-1-11-4-6zM509 151c-3 8 2 41 8 48 2 2 2 2 3 1 2-2 2-26-1-36-4-14-8-19-10-13z"/>
    <path d="M372 157c-9 3-14 10-14 19 0 19 22 27 35 13 3-4 4-9 4-16-1-6-4-11-10-14-4-3-12-3-16-2zM816 169c-12 13-23 42-16 42 6 0 24-33 24-44 0-4-3-4-8 2zM926 172c-8 2-14 11-14 19 0 13 13 23 25 19 5-1 10-6 13-10 7-15-8-33-24-28zM436 175l-1 6c0 14 12 44 17 44 2 0 2 0 2-8-1-14-10-39-16-42h-2zM217 203c15 8 23 14 34 25 15 16 24 32 28 55 2 14 4 21 8 31l3 9-2 4c-2 3-2 6-2 10 0 6 0 6 3 9 2 2 4 3 8 3l7-1c2-1 3 0 13 9l20 17c11 8 30 18 42 22 8 3 9 3 9 6 3 15 21 20 29 8 2-3 3-5 3-10 0-9-6-15-16-15-4 0-6 0-10 3l-4 3-5-3c-18-13-43-35-54-50l-6-7 3-5c3-8 3-14-1-18-2-3-3-3-7-3h-7c-2 0-3 0-5-6l-4-17c-5-23-13-39-26-54-17-18-41-29-64-31h-8l11 6zM890 199c-11 7-32 39-26 42 7 2 37-39 30-43l-4 1zM1077 208c-11 21-26 38-41 48-14 10-23 13-51 18l-20 5c-9 4-9 4-13 3-15-8-26-1-22 14 1 4 1 4-4 9a181 181 0 0 0-44 68c-2 8-2 8-6 8l-8 4c-12 9-6 28 9 28s22-16 13-27l-3-3 6-8c13-18 32-39 46-51l8-6 5 3c6 2 13 3 17 1s5-7 5-13l-1-5 4-2 12-3 32-9 29-18a104 104 0 0 0 31-73l-4 9zM304 204c-9 3-16 12-15 21l4 9c10 15 33 10 36-8 1-7-4-17-11-21-3-1-11-2-14-1zM366 216c0 5 2 11 7 22 5 9 13 21 16 22 5 2 3-8-3-22-7-14-15-26-19-26l-1 4zM649 222c-3 1-5 5-5 8s5 8 9 8 9-5 9-8l-3-8-4-1h-6z"/>
    <path d="M990 224c-13 6-16 21-7 31 6 6 12 7 20 6 9-2 16-13 15-22-2-10-9-16-19-17-4 0-7 0-9 2zM583 226c-5 5-2 15 6 15 4 0 8-2 9-6 2-8-8-15-15-9zM713 228c-4 2-5 4-5 8s1 6 5 8c3 2 6 1 9-2 2-2 3-3 3-6 0-6-7-11-12-8zM521 240l-3 6c0 4 5 9 8 9 4 0 7-2 9-6v-7c-3-6-10-7-14-2zM950 246c-7 5-21 19-25 25-3 5-4 8-2 9 2 2 12-5 21-14 10-10 16-18 16-22 0-3-3-3-10 2zM773 245c-4 4-5 9-1 13 2 2 3 3 6 3s4-1 6-3l3-5c0-3-3-8-4-8h-10zM650 247c-7 2-12 11-10 19 4 14 24 16 30 1 3-7-1-16-8-19-5-2-7-2-12-1zM588 252c-13 8-7 28 8 28 13 0 20-12 14-23-4-8-14-10-22-5zM706 255c-5 2-7 7-7 14 0 5 0 6 2 9 7 9 22 7 26-2 7-14-7-28-21-21zM303 262c-1 2 3 11 8 19 7 10 20 23 23 23l2-1c0-7-11-25-21-35-7-7-11-9-12-6zM463 261l-4 4c-3 10 9 17 15 9 6-7-3-18-11-13zM239 263c-12 6-13 26-2 34 6 3 14 4 21 1 12-6 14-26 2-34-6-4-15-4-21-1zM531 263c-7 5-10 12-6 20 3 6 7 8 14 8 7 1 10-2 14-8 2-4 2-6 1-9 0-5-4-9-8-11-4-3-11-2-15 0zM766 269c-5 1-11 8-11 13-1 6 2 13 8 16l7 2 7-2c6-3 10-10 9-16-1-4-7-12-10-12-4-2-7-2-10-1zM149 270l-6 1 2 1c3 0 19 6 28 11a102 102 0 0 1 56 65c3 10 9 22 14 29 3 4 3 5 1 8-1 5-1 14 1 17 3 5 9 6 17 3l4-2 4 3a171 171 0 0 0 81 35c2 0 3 0 4 3 2 12 17 17 25 9 5-4 6-8 6-14-1-8-7-14-16-14-5 0-9 2-12 6l-3 3-9-5c-20-10-45-26-60-39l-4-5 1-4v-17c-3-5-10-6-16-4l-4 2-2-5-7-13c-6-17-7-19-11-25-19-34-55-52-94-49zM830 272c-5 6-1 15 7 15l6-3c5-5 1-14-7-14l-6 2zM1138 282c-16 22-39 40-62 46-8 2-25 4-29 3-4 0-25 2-33 4l-7 2-5-3c-6-4-11-5-16-4-4 2-6 6-6 14 0 5 0 6-2 7a168 168 0 0 0-59 66c-2 4-3 4-6 4-6 0-10 2-14 6-2 4-2 5-2 10s0 6 2 9c6 7 15 9 21 5 8-6 10-15 5-23l-2-3 9-10c17-16 37-31 53-40l8-5 5 3c8 5 15 6 19 1 3-2 5-9 4-13-1-2 3-3 25-5a100 100 0 0 0 98-82l-6 8zM479 282c-4 1-9 6-10 11-3 11 8 22 19 19 5-2 9-4 10-10 5-12-6-24-19-20z"/>
    <path d="M1049 283c-8 3-14 12-14 20l2 8c7 13 26 15 34 2 9-12 1-29-14-31l-8 1zM406 295c-2 1-3 4-3 5 0 4 3 8 6 9 6 2 12-2 12-9 0-3-5-8-9-8l-6 3zM816 295c-10 4-11 20-2 26 5 3 12 4 17 1 11-5 11-22 0-27-5-2-11-2-15 0zM1009 298c-14 6-35 24-35 30 0 3 12-1 23-9 12-8 22-19 21-22-1-1-3-1-9 1zM886 305c-5 2-7 10-2 14 3 3 4 3 7 3l5-3c4-3 3-11-2-13-3-2-4-2-8-1zM428 311c-14 4-14 26 1 30 8 2 16-2 19-10 3-7-1-16-8-19-5-2-7-2-12-1zM249 320c0 5 11 19 22 28 16 13 22 11 11-4-6-8-17-18-23-22-7-5-10-5-10-2zM615 323c-6 2-7 8-2 13 3 4 8 4 11 1 6-4 4-13-2-15l-3-1-4 2zM662 323c-1 0-4 5-4 8s5 8 9 8 8-3 8-7c1-3-1-8-3-9h-10zM866 327c-6 3-8 6-9 13 0 4 0 6 2 9 6 10 22 10 27-1 7-13-7-28-20-21zM190 328c-10 5-14 17-10 26 4 8 9 12 18 12 16 0 25-19 15-32-5-6-16-9-23-6zM566 332c-4 3-4 9 0 12 5 5 14 1 14-7 0-7-9-11-14-6zM711 330c-4 2-5 4-5 8 0 3 1 4 3 6 4 4 8 4 11 0 5-5 4-11-2-14h-7zM637 333c-7 8-11 34-8 54 3 15 8 23 13 23 8 0 14-13 15-34 1-32-9-55-20-43zM359 333c-4 2-5 4-5 8s1 6 5 8c3 2 6 1 9-2 8-6-1-19-9-14zM592 335c-5 3-6 11-6 25 0 20 5 39 13 48 6 7 12 7 15-2 7-21-2-65-15-72-4-1-4-1-7 1zM686 335c-9 4-17 29-17 52s7 32 17 22c8-9 13-28 13-48 0-15-1-22-6-26-3-2-4-2-7 0zM520 347c-6 5-2 14 5 14 5 0 9-3 9-8s-3-9-8-9c-3 0-5 1-6 3zM546 346c-9 9-1 49 14 68 8 9 14 10 17 2 6-12-2-44-14-61-7-10-13-13-17-9zM733 345c-9 4-18 19-24 40-3 11-3 28-1 33 5 9 16 2 25-18 6-12 9-23 10-35 0-11 0-16-3-19-3-2-4-2-7-1zM755 346c-5 4-4 12 1 15 9 4 17-7 10-14-3-4-8-4-11-1zM381 348c-9 4-12 14-7 22 4 8 14 10 21 6 6-4 8-8 8-14 0-5-2-9-7-12-3-3-11-4-15-2zM933 348c-3 1-5 7-4 10 1 4 4 6 9 6 3 0 4-1 6-3 6-7-3-18-11-13zM105 350c-6 1-14 3-12 4l10 1c14 3 26 6 37 11 22 11 35 24 48 49 8 14 11 18 18 26l4 5v8c0 7 0 9 2 12 4 6 11 6 18 2l4-3 11 6c21 10 45 17 68 18h14l2 4c7 15 30 9 30-8 0-4-3-10-7-12-3-3-11-4-15-2-3 1-8 7-9 9-2 4-54-18-74-31l-8-5 1-5c2-10-3-19-11-19l-7 2-4 2-3-3-15-24a96 96 0 0 0-40-38c-16-7-24-9-42-10l-20 1zM1096 352c-8 2-13 10-13 19 0 7 2 11 6 15 16 14 40-4 31-23-4-10-14-14-24-11z"/>
    <path d="M1188 363c-16 16-38 29-55 34-12 3-30 4-42 2-14-3-26-3-35-2l-7 1-3-4c-5-4-11-7-15-7-6 1-10 7-10 15 0 3 0 4-9 8a160 160 0 0 0-61 51l-4 6-6-1c-7 0-12 2-15 8-7 13 6 28 20 22 8-3 12-13 9-21l-2-4a270 270 0 0 1 68-40l9-3 4 3c6 6 14 9 19 6 3-1 6-8 6-12v-3h13c37 2 38 2 48 0l18-5a105 105 0 0 0 57-61l-8 7zM1052 361c-16 6-36 19-34 23 3 4 33-8 44-18l4-5c0-3-6-2-14 0zM503 364c-3 3-3 4-3 13 0 18 20 52 33 58 5 2 6 1 9-1 2-3 2-4 2-10 0-9-2-17-9-31-7-13-14-22-20-27-7-4-10-5-13-2zM776 363c-13 4-33 36-35 58 0 8 0 11 4 14 3 2 8 0 14-6 13-12 26-38 26-55 1-7 0-7-2-10-3-2-3-2-7-1zM479 367c-6 2-7 9-2 13 5 6 14 2 14-5 1-7-6-11-12-8zM908 367l-6 6c-7 13 7 28 21 21 11-5 11-21 1-27-4-2-11-3-16 0zM797 369c-3 3-4 6-1 10 4 8 16 4 16-5 0-3-5-8-9-8l-6 3zM314 383c-6 5-2 14 5 14 8 0 12-9 7-14-3-4-9-4-12 0zM205 384c-3 4 18 22 33 30 11 4 13 1 5-7-6-7-19-16-27-21-8-3-10-4-11-2zM462 389c-2 2-2 3-2 9 2 19 28 53 45 56 4 1 8-2 8-7 0-17-22-49-39-58-6-3-9-3-12 0zM811 390c-17 8-39 41-39 57 0 5 4 8 8 7 6-1 11-4 18-10 15-15 27-36 27-48 0-9-5-11-14-6zM343 391c-7 2-11 9-11 16 2 20 31 18 31-1 0-10-10-18-20-15zM438 397c-6 5-2 14 6 14 5 0 8-4 8-9 0-7-9-11-14-5zM836 397l-3 6c0 4 5 9 8 9 4 0 7-2 9-5v-7c-3-6-9-8-14-3zM975 397c-6 2-8 10-3 14 5 6 14 2 14-5 0-6-6-11-11-9zM150 402c-13 6-16 22-5 32 3 4 7 5 13 5s11-2 15-6c14-16-4-40-24-31zM949 411c-7 2-12 7-12 15 0 7 3 12 10 14 10 4 20-2 21-12 1-11-9-19-19-17zM426 420c-2 3-2 5 0 11 3 8 8 16 17 25 29 30 55 29 35-2-11-18-34-36-46-36-4 0-5 0-6 2zM844 420c-15 7-33 25-41 41-12 25 13 22 39-5 9-9 14-15 17-23 2-6 3-10 0-13-2-3-9-3-15 0zM636 422c-3 0-6 2-7 3-3 2-3 2-7 0s-14-3-18-1l-7 5c-3 3-4 3-6 2-5-2-13-1-17 1-3 1-6 3-8 6-3 3-4 3-10 3-9 0-15 4-20 10-3 5-3 5-9 6-9 1-16 7-19 16-1 3-2 4-6 4-10 2-17 9-18 20 0 1-2 3-7 5-8 4-12 10-13 19 0 5 0 6-4 7-8 4-13 14-12 23 1 4 1 5-3 8-7 6-10 14-8 23 2 5 2 5 0 7l-5 6c-3 6-3 14 0 20l2 5-2 2c-6 7-6 18-1 26l3 4-2 4c-4 8-2 19 4 26l2 4c-1 3-2 10-1 14 1 6 6 13 10 14 2 1 2 2 1 6-1 10 4 19 12 24 4 1 4 2 4 6 0 9 7 18 16 21 3 1 4 1 4 4 0 4 3 9 6 13 4 4 8 6 13 7 3 0 4 1 4 2 0 2 4 8 7 11 4 4 9 6 14 6s5 0 7 4c2 5 8 9 13 11l9 1c6-1 6-1 8 3 5 7 16 11 25 8 4-2 4-2 6 1 7 7 16 9 25 5l5-2 6 3c5 3 6 3 12 3 5-1 8-1 11-3l4-3 4 2 10 1c7 0 11-1 16-6 2-3 3-3 7-1 7 2 18-1 23-7l3-4h6l11-1c4-2 10-8 12-13 1-2 2-2 6-2 6 0 10-2 14-6 3-3 7-9 7-11l4-2c9-2 16-8 19-18 1-5 2-6 5-7 8-2 15-11 15-20 0-4 0-5 3-6 4-2 11-9 12-14l1-9c0-4 0-5 4-9 7-7 10-18 6-25-1-2 0-3 3-6 6-6 8-18 3-26l-1-4c2-1 6-11 6-15 0-5-2-11-4-14l-3-3 2-4c5-8 2-20-4-26-3-2-3-2-1-7v-11c-1-5-2-6-6-11l-6-5 1-5c0-5 0-7-2-12-3-5-9-11-13-11l-1-5c0-9-6-18-15-21-3-1-4-2-5-5-1-10-9-17-18-19-4 0-4-1-6-4-3-9-10-15-19-16-6 0-6-1-9-5-4-7-11-11-19-11-7 0-7 0-11-3l-7-6c-5-2-13-3-17-1-3 1-4 1-7-2l-7-5c-5-2-13-1-18 1l-4 2-3-2c-6-5-14-6-20-4zm-3 42c6 3 13 3 19 0l4-2 4 3c5 3 15 4 20 2 3-1 4-1 6 2 5 5 10 6 17 6 6 0 6 0 11 5s10 7 16 7c3 0 4 1 5 2 3 7 10 12 17 14 3 0 4 1 6 6 2 6 7 11 13 12 3 1 4 2 5 5 1 7 7 16 13 17 1 1 2 2 2 6 1 7 4 13 9 17 3 3 3 3 3 9 0 7 2 12 6 17 3 3 3 3 2 6-2 6-1 12 2 19 3 6 3 6 1 9-2 5-2 14 1 20l2 4-3 2c-4 5-5 14-3 21 1 3 1 3-2 7-5 5-6 10-6 17v6a27 27 0 0 0-12 21c0 2-1 3-4 5-5 3-10 9-11 14s-2 7-5 8c-5 1-12 8-14 13-1 4-2 5-5 5-6 1-13 6-16 11-2 4-3 5-4 4-5-1-17 4-20 10-2 3-3 3-8 2-6 0-12 2-17 6-4 3-4 3-9 2-7-2-14 0-18 3l-4 3-3-2c-6-3-14-3-20 0l-4 2-3-2c-5-4-12-6-19-4-5 1-5 1-8-2-5-4-12-6-18-6-5 1-6 1-7-2-3-5-16-11-21-10-1 1-2 0-4-4-3-6-11-11-16-11-3 0-4 0-5-5-2-5-9-12-14-14-3 0-4-1-5-6-2-7-5-11-10-14-4-3-5-3-5-9-1-6-5-13-9-16-3-2-4-2-3-8 0-7-1-12-5-17-4-3-4-4-3-6 2-7 1-18-4-22-1-2-1-2 1-6 2-6 2-14 0-20-2-4-2-4 0-7 4-6 5-14 3-21-1-3-1-3 1-5 5-4 7-11 7-18 0-5 0-6 3-9 5-4 8-10 9-17 0-4 1-5 2-6 6-1 12-10 13-17 1-3 2-4 5-5 5-1 12-8 14-14 1-3 2-4 7-5 6-1 13-7 15-12 1-2 2-3 5-3 6 0 11-2 16-7s5-5 11-5c7 0 13-2 18-7 2-2 2-2 5-1 5 2 15 1 20-2l4-3 4 2z"/>
    <path d="m640 480-2 7-1 4h-7l-9 2-4-5-5-8c-3-2-4 0-5 8v7l-9 3c-8 2-9 3-9 1l-6-6c-4-4-4-4-6-3v6l1 7c0 3 0 3-8 7l-7 5-4-3c-10-10-14-7-9 5l3 5-7 6-7 6-5-3c-5-3-9-4-10-2-1 1 2 7 5 11 2 3 2 3 1 5l-6 8c-2 4-4 5-5 4-4-1-12-3-13-2-3 1-2 3 3 9l5 5-3 8-4 8-7-1c-12 0-13 3-3 9l6 4-1 8-2 9-5 1c-8 1-11 2-11 4s2 3 9 6l5 2v8l1 9-6 2c-6 2-10 5-9 7 0 1 6 3 11 3s4 0 7 10l2 8-5 3-7 5c-2 2-2 2 0 4l9 1 7-1 3 8 4 8-6 5c-8 8-7 11 3 9l8-2c1-1 2 0 5 4l5 7c1 2 1 2-1 5l-6 12c0 2 6 1 12-3l5-3 6 6 7 6-2 5c-6 12-3 15 6 8l7-5 7 4 7 6c-2 5-2 15-1 15 2 2 6-2 9-7 2-3 4-5 5-4l8 2 7 3v6c0 7 1 11 4 11l7-11c1-3 2-4 4-4l8 2h7l1 4c0 6 4 13 5 13 2 0 4-5 5-11l1-6 9-1h9c2 7 7 14 9 14s3-2 3-12l1-5 7-3c9-2 10-2 11 0 0 3 8 10 9 10l3-2-2-14c-1-1 1-3 7-6l7-4 5 4c11 9 14 7 9-5l-3-7 6-5 7-6 7 4c7 3 9 4 9 2 1-2-2-8-5-12l-3-3 5-7 6-7 6 2 8 1c4-1 4-3-2-9l-6-6 4-7 3-8h8c10 1 12-1 8-4l-7-6-5-2 1-4 2-8 1-6h6l9-2c2-2 2-2 1-4l-8-4-7-2 1-9v-8l6-2 7-4c2-2 2-2 1-4l-9-2-7-1-1-7-2-9 5-5c6-3 9-6 7-8l-8-1-8 1-3-8-4-8 5-5c6-6 7-10 2-10l-7 2-5 1-11-14 4-6c3-5 4-8 2-9-1-1-7 1-11 4l-3 2-7-6-7-6 3-6c2-7 3-10 1-11-2 0-5 1-10 6l-4 3-8-4-8-5 1-3 1-8c0-4 0-5-2-5s-8 6-10 9c0 2-1 2-9-1l-9-2v-8c-1-11-5-11-10 0-2 4-2 5-4 5l-9-1-7-1-1-5c-2-10-6-13-8-6zm-4 21v6h-5c-8 1-8 1-9-3-2-8-2-7 11-8 3 0 3 0 3 5zm28-3v5c-1 5-2 6-10 4h-4v-11l7 1 7 1zm-56 6v6c0 1-1 2-3 2-8 3-8 4-10-2l-3-5 6-2c9-3 10-3 10 2zm78-1 7 3-5 9-6-2-5-1v-4l1-5c0-3 0-2 8 0zm-104 14 2 4-5 3-6 3-3-4-3-4c1-2 12-8 13-7l2 5zm136 1c1 2 1 2-2 5l-4 4-5-3c-5-3-5-3-2-10l1-3 5 3 7 4zm-82 0v5h-5l-5 1-1-6v-5h3c7-1 7-1 8 5zm23-5c2 0 2 0 1 5l-1 6h-5l-4-1v-11h3l6 1zm-48 10c1 3 1 4-2 5l-4 1c-1 1-2 0-3-4l-2-5 5-2c5-2 5-2 6 5zm72-4 3 1-4 10-4-2-5-1 1-4 2-5c0-1 2-1 7 1zm-95 11 2 5c0 1-6 5-8 5l-3-4-3-5 4-2 5-3 3 4zm121 2-6 8-4-2-4-2 2-5 3-5 4 3 5 3zm-151-1 3 5-4 4-5 3-5-3-3-3 5-5 6-5 3 4zm180 10-5 3-4-4-4-4 2-5 3-4 6 5 6 5-4 4zm-101-7c1 8 3 12 6 13 2 0 4-5 6-13l1-6 5 1h4l-1 9c0 7 1 9 2 11 2 1 2 1 4-1l5-9c3-7 4-7 9-5l3 1-2 7c-4 16 1 17 10 3l4-4 4 2 4 2-3 6c-5 10-5 16 0 13 2 0 5-3 8-6l6-5 3 3 3 3-4 6c-8 10-8 14 0 12l8-5 5-3 2 3 3 5-4 3c-5 4-9 9-9 11 1 3 5 2 13 0l7-3 1 4c3 4 3 5-2 7-15 8-14 14 1 11h8l1 5v4l-6 1-10 4c-2 2-2 3-1 4 2 2 5 2 16 3 2 1 3 1 3 5v5h-8l-10 3c-4 2-1 4 10 8 6 2 6 2 5 9-1 2-1 2-6 1-7-1-13-1-14 1-2 1 2 5 9 9l6 4-2 4-2 4-7-3c-8-2-11-2-12 1l6 7c7 6 7 7 2 11-2 2-2 2-6 0-5-4-11-6-13-5-1 2 1 7 6 13l3 4-3 3-4 3-5-4c-5-6-9-7-11-7-2 1-1 5 3 13l1 6-3 3c-3 1-3 1-5-2-4-5-11-11-12-10-1 0-1 10 1 16 0 2 0 3-3 4l-4 1-4-6-5-9c-2-1-2-1-4 1l-1 9v8l-4 1h-5l-2-7c-1-7-3-11-5-11-2 1-4 5-5 12l-2 6h-4l-5-1 1-5c0-6-1-14-3-14s-5 3-8 10l-2 6-5-1-4-3c3-12 3-18 1-18s-6 4-10 10l-3 4-4-2-4-3 3-6c6-13 3-16-7-7l-7 5-3-3-3-3 2-2c6-8 9-15 5-15-2 0-11 4-14 7-2 1-2 1-4-2l-3-4 6-7c9-8 8-11-2-8l-8 2c-3 1-3 1-5-3l-2-4 6-3c7-4 10-8 9-10l-10-1h-9l-1-4-1-4 7-2 9-4c2-2 2-2 1-3s-5-3-10-3l-8-1-1-5v-4h6c7-1 13-3 14-5 0-1-5-5-12-7-6-1-6-2-6-4l1-5 9-1c17 2 16-2-2-12-2-1-2-2 0-5l2-4 6 2c6 2 12 3 13 1 2-1-1-5-7-10l-6-5 3-4 3-3 7 4c6 4 10 5 11 3 1-1-1-6-5-12l-4-5 3-3 3-3 4 3c6 6 9 8 12 8 2 0 2 0 2-3l-4-10-3-6 4-3 4-2 3 5c5 7 8 10 10 10s2-1 2-5l-1-10c-2-6-1-6 4-7 3 0 3 0 5 5 4 8 6 11 8 11 3 0 3-3 3-12s0-9 7-9c2 0 3 1 3 6zm-70 18-3 3-4-4-4-4 4-3 4-4 4 4 3 4-4 4zm159-8 3 4-3 4-4 3-3-3-4-3 7-8 4 3zm-187 7 3 4-2 3c-5 7-5 7-10 5l-4-3c0-2 8-12 9-12l4 3zm217 3 4 6-4 3-5 2-4-5-4-5 4-3 4-4 5 6zm-205 8 3 4-2 3-3 4-4-2-4-3c-1-1 4-9 5-9l5 3zm194 5-4 4-4 3-3-4-3-4 4-3 4-4 3 4 3 4zm-221 8 4 2-3 6-2 6-4-1-5-2c-1-1 4-14 5-14l4 3zm246 5 3 6-10 3-5-10 8-6 4 7zm-230 9-2 4c0 1-8-1-10-3l2-5 2-5 5 3 5 2-2 4zm215-3c3 5 2 5-4 7l-4 2-2-5-1-4c1-2 9-5 9-5l2 5zm-241 15c4 1 4 2 3 9l-1 5-5-1-6-1 2-7 2-7 5 2zm265 6c2 8 2 8-4 8h-6l-1-6-1-6 10-3 2 7zm-249-1 4 3-2 4c0 3-1 4-2 4l-4-1c-4 0-5-1-4-6 1-6 1-6 8-4zm234 6c0 4 0 4-3 4-6 2-8 1-8-2-1-5-1-6 4-7 5-2 5-2 7 5zm-250 17v12l-4 1-6 1-1-13c1-2 1-2 6-2l5 1zm268 5c0 9-1 10-4 9-8-1-7 0-7-7v-6l4-1h5c2-1 2 0 2 5zm-252 1v5h-10l-1-5v-5h10l1 5zm236 1-1 5h-10v-10h11v5zm-234 19 1 4c1 4 0 5-7 6-3 1-3 1-4-3 0-7 0-6 4-7h6zm232 1-2 11-5-1c-6-2-6-2-4-9 0-2 0-2 5-2l6 1zm-247 3 1 6c1 3 1 3-4 5l-6 2-2-15 5-1c5 0 5 0 6 3zm263 0-2 7-2 6-5-2c-4-1-5-2-5-3l2-6 1-4h6c4 0 5 0 5 2zm-240 22 2 5-10 4-4-10 10-3 2 4zm217 0-3 5-2 5-4-2c-5-3-5-3-3-8l1-4 5 2 6 2zm-233 4c4 7 4 8-1 11l-4 3-3-7-3-7 9-3c1 0 2 1 2 3zm244-1c3 1 4 1 3 3l-6 12-8-6c5-11 4-11 11-9zm-216 17 3 4-4 3-5 4-3-5-3-4 4-2 4-3 4 3zm188 0 4 3-6 8-4-3-4-4 3-3 3-4 4 3zm-201 9 3 5-3 4-4 4-9-12 9-5 4 4zm217 5c-7 9-5 9-10 5l-4-4 4-5 3-5 5 3 5 2-3 4zm-188 4c3 2 3 3-1 8l-3 3-4-3-3-4 3-3 4-4 4 3zm158 7c-4 4-6 4-9 1-4-4-4-5 0-8l4-3 3 4 4 3-2 3zm-165 8s-1 4-4 7l-2 2-5-5-6-5 4-3 5-4 4 4 4 4zm175-4 4 4-5 5-6 5-3-5-3-4 4-4 5-4 4 3zm-150 2 4 3-5 9-8-5 6-9 3 2zm119 3 3 4-9 5c-1 0-5-9-4-10a66 66 0 0 0 7-4l3 5zm-93 9-1 5c-1 4-1 4-4 4l-5-2-3-1 2-5 2-5 5 2 4 2zm71 2 2 4-5 2-5 1-3-10 8-2 3 5zm-100 3-2 6-1 4-5-3-6-3c-2-2-2-2 1-6l3-4 5 3 5 3zm132-1 3 4-6 3-7 4c-1 0-4-9-3-10l9-5 4 4zm-81-1 1 6v5h-4l-5-1c-2 0-2-1-1-4 0-7 1-7 4-7l5 1zm25 4 1 6h-11v-10h3l5-1c1 0 2 1 2 5zm-55 6 4 1v5l-1 6-8-2-7-2 3-5c1-3 3-5 4-5l5 2zm86 3 2 5-3 1-11 3-1-5-1-5 6-2 5-2 3 5zm-60 3h5v11l-6-1c-9 0-9 0-8-5 2-7 1-7 9-5zm33 4v5l-7 1-7 1v-5c0-5 1-6 4-6 8-2 9-1 10 4z"/>
    <path d="M638 558c-10 5-7 21 5 21s15-16 5-21h-10zM609 565c-4 3-6 8-4 13 4 10 18 9 21-1s-8-18-17-12zM665 565c-4 2-6 7-6 11 2 9 13 12 19 6 5-5 4-14-3-18-4-1-6-1-10 1zM588 580c-4 2-6 6-6 11 0 3 1 5 3 7 6 6 17 3 19-6 0-4-2-9-6-11s-6-2-10-1zM685 583c-2 3-3 5-3 8s1 5 3 8c5 4 11 4 15 0 3-2 4-3 4-8s-1-5-4-8c-4-4-10-4-15 0zM634 589c-9 2-18 7-24 13a46 46 0 0 0 0 66c18 18 47 18 65 0 11-11 15-22 14-37-1-20-17-37-37-42h-18zm22 7c11 3 20 12 25 23 2 5 3 7 3 16 0 10-1 11-4 17-8 17-26 27-44 24a42 42 0 1 1 20-80z"/>
    <path d="M632 606c-8 3-14 8-18 16-2 5-2 7-2 13 0 10 2 16 10 23 15 14 39 9 49-10 2-4 3-6 3-13s-1-9-3-14c-3-6-8-10-14-14-4-2-6-2-13-3l-12 1zM576 604c-4 1-6 3-8 7-4 10 10 19 18 12 4-4 5-8 3-12-3-6-8-9-13-7zM702 605c-6 3-8 13-3 18 6 6 17 3 19-5 1-9-7-16-16-13zM571 632c-9 5-8 17 1 21 11 3 19-10 11-18-3-4-8-5-12-3zM704 634c-5 3-7 8-5 13s6 7 11 7 9-3 10-8c3-9-8-18-16-12zM579 659c-3 1-6 6-6 10 0 3 1 5 3 8 3 2 5 3 8 3s5-1 8-3c4-5 4-11 0-15-3-3-9-5-13-3zM693 662c-6 6-3 17 6 19 11 2 17-12 9-19-5-4-11-4-15 0zM598 680c-4 2-6 5-6 10 0 13 19 15 22 2 1-8-9-16-16-12zM677 680c-4 2-6 6-6 11s3 9 8 10c9 3 17-7 12-16-3-5-8-7-14-5zM625 691c-3 0-8 6-8 10 0 8 7 13 15 11 7-3 10-12 4-18l-4-3h-7zM649 694c-6 5-5 14 2 18 12 5 22-11 12-19-4-3-10-2-14 1zM1131 427l-7 5c-9 9-7 25 5 31l9 3c6 0 14-5 17-10 3-6 4-11 1-18-4-10-14-14-25-11zM404 431c-6 5-2 14 5 14 8 0 12-9 7-14-3-4-9-4-12 0zM870 431l-3 6c0 4 5 9 8 9 9 0 13-12 5-16-4-3-7-2-10 1zM1085 430c-16 4-32 12-32 15 0 4 12 3 26-2 15-4 26-11 24-14 0-2-11-1-18 1zM92 433a126 126 0 0 0-37 10h6l19 1c34 3 62 18 79 44 6 8 13 17 21 23 6 6 7 6 7 11 0 7 2 11 5 14 5 4 12 3 18-3l3-2 10 3a245 245 0 0 0 80 7c5-1 5-1 8 4 10 11 28 4 28-11 0-17-23-22-30-6l-2 5-9-2c-24-3-51-11-68-19l-9-4v-6c0-6-2-11-6-14-3-3-10-2-15 1l-3 3-6-5-11-14a102 102 0 0 0-88-40zM280 435c-8 6-2 18 7 16 4-1 7-5 7-9s-5-9-9-9l-5 2zM308 441c-5 3-8 7-8 13 0 18 23 23 30 6 3-8-1-16-8-19-6-3-9-3-14 0z"/>
    <path d="M1225 451c-21 16-44 25-66 26-13 0-23-1-37-6-13-4-22-6-33-7-8 0-8 0-10-4-9-13-23-11-26 3l-1 4-10 4a209 209 0 0 0-65 38c-8 7-8 7-11 6-7-2-16 0-19 7-3 4-3 11-1 16 6 10 21 11 28 1 2-4 2-5 2-11l-1-7 16-7c22-11 44-18 62-22 5-1 5-1 8 4l7 6c8 4 16 1 18-8l1-4h6l16 4c17 5 22 5 35 5 10 0 16 0 22-2a101 101 0 0 0 66-51l-8 5zM1004 455c-2 1-3 3-3 6l3 6 6 2 6-2 2-6-2-6-6-3c-3 0-5 1-6 3zM396 455c-11 8 21 42 48 49 21 6 23-7 4-26-17-17-44-29-52-24zM872 455c-22 8-48 32-48 44 0 19 49-5 64-30 8-14 1-20-16-14zM171 455c-5 3 16 17 34 23 9 3 12 4 13 1 2-6-40-28-47-24zM973 464c-4 3-7 8-7 13 0 20 29 21 31 2 0-6-3-12-7-15-5-3-12-3-17 0zM375 469c-5 6-1 15 7 15 7 0 11-8 6-14-3-4-10-4-13-1zM898 470c-3 3-3 4-3 7 1 5 4 7 9 7 6 1 9-3 9-8 0-3-1-5-3-7-4-3-8-3-12 1zM124 479c-6 2-12 9-13 14-3 13 8 26 21 25 15-2 23-19 15-31-5-7-15-10-23-8zM255 492c-5 3-6 12-1 15 6 4 14 0 14-7 0-3-2-6-5-8h-8zM283 495c-7 5-10 12-6 20 4 6 7 8 14 8s11-2 14-9c4-7 1-16-7-20-4-2-11-1-15 1zM372 495l-3 4c0 6 9 16 20 23 19 13 43 19 50 14 15-10-27-41-56-43-8 0-9 0-11 2zM892 495c-14 3-30 12-40 21-7 7-9 10-9 15 0 11 24 8 49-6 10-6 23-18 24-23 0-4 0-5-2-7-3-2-4-2-10-2l-12 2z"/>
    <path d="M1104 502c-15 3-26 7-26 10 0 2 2 3 13 3 14 0 35-5 38-9 2-1 2-2 1-3-3-2-16-2-26-1zM1154 508c-18 7-15 32 3 37 8 2 18-2 22-10 2-4 3-12 1-17-4-9-16-15-26-10zM356 510c-4 2-7 9-4 13 6 7 16 4 16-5 0-6-6-10-12-8zM920 513c-4 3-4 8-1 11 4 6 13 4 15-2 3-10-7-16-14-9zM1029 512l-4 3v9c0 2 5 5 8 5s8-5 8-9l-3-6c-3-3-6-4-10-2zM993 519c-4 3-7 10-6 16 0 5 6 12 12 13 15 3 25-16 14-27-4-3-5-3-10-4-5 0-7 0-10 2zM69 521l-16 5c-8 3-22 11-22 12l5-1c15-4 42-4 58 0 19 5 31 12 49 29 11 11 22 19 28 22 2 1 3 2 3 4 0 4 3 11 6 14 5 6 13 4 19-4l2-2 10 1c26 5 56 3 80-5l6-2 3 3c10 10 27 3 27-11 0-10-6-16-15-16-8 0-15 5-16 12-1 4-2 4-5 5-12 2-54-3-74-8-10-3-11-3-11-6 0-4-3-11-5-14-5-5-12-5-18 2l-3 3-5-3-15-13c-16-14-27-21-44-26-12-3-34-4-47-1z"/>
    <path d="M1081 521c-2 2-4 4-5 8l-2 5-9 1c-25 3-54 15-73 29l-8 5-4-2c-7-4-15-2-20 5-3 4-3 14 0 18 7 10 20 10 27-1 2-3 2-4 2-9l-1-5 10-3c21-7 48-13 67-14h10l3 4c5 10 13 14 19 10l5-6 3-5 6 2 15 6c13 6 22 9 32 10 25 5 50-1 73-16 7-4 23-20 23-22l-8 3c-37 20-75 21-105 4-8-5-19-9-29-11l-9-2-3-6c-5-9-13-12-19-8zM149 531c-2 2 3 6 11 9 13 7 34 12 38 9 3-2 0-4-10-9-14-7-37-13-39-9zM358 536c-13 5-7 16 15 26 13 7 22 9 36 10 10 0 12 0 15-2 3-1 4-2 4-5s0-5-5-9c-5-6-20-14-33-17-12-4-27-5-32-3zM905 536c-16 3-36 12-43 20-4 4-5 6-5 9s1 4 4 5c3 2 5 2 15 2 14-1 23-3 37-10 19-9 26-20 17-25-4-2-17-2-25-1zM270 550c-6 3-9 7-10 12 0 6 0 9 4 13 6 7 16 7 23 0 5-6 5-14 0-21-5-5-12-6-18-4zM237 556l-3 6c0 4 5 9 8 9 7 0 11-6 9-13-3-6-9-7-14-2zM339 558c-4 3-4 7-1 11 6 8 19 1 15-9-3-5-9-7-14-2zM935 559c-6 5-2 14 6 14 5 0 8-3 8-8s-4-9-8-9c-3 0-5 1-6 3zM108 561l-7 5c-7 7-8 18-2 26 3 4 11 8 16 8 11 0 21-12 20-22-2-13-14-20-27-17z"/>
    <path d="M1008 575c-9 4-12 14-8 22 3 5 8 8 14 8 9 0 15-6 15-15 0-11-11-19-21-15zM1040 577c-6 5-2 14 6 14 5 0 8-4 8-9 0-3-1-4-3-6-3-3-8-3-11 1zM1105 577c-8 1-12 3-13 5-1 4 24 7 39 5 19-3 18-8-1-10h-25zM358 579c-11 1-18 5-18 10 0 3 6 9 12 12 24 11 65 12 68 0s-32-25-62-22zM910 579c-32 3-56 19-40 27 13 7 43 4 62-5 7-3 13-9 13-12 0-5-7-9-16-10h-19zM1169 589c-10 2-16 9-16 20 0 7 4 13 10 17 7 3 15 3 21-2s7-7 8-14c0-5 0-7-2-11-4-7-14-12-22-10z"/>
    <path d="m1092 592-6 6-2 4h-8c-24-1-53 6-77 17l-9 4-3-2c-6-5-15-4-21 1-6 7-6 16 0 23 7 6 16 6 23 0 3-4 6-11 5-13-1-1 0-2 5-3a273 273 0 0 1 82-2l3 5 6 9c6 6 13 5 19-4l2-2 5 2 17 10c13 9 23 13 35 16 11 3 36 3 47 0s18-6 27-11l20-15-10 3c-27 9-51 10-72 3-11-3-20-8-32-16-10-8-22-14-30-17-4-1-4-2-8-9-5-11-11-14-18-9zM332 604c-5 4-5 9-1 13s9 4 12 0l3-5c0-3-3-8-4-8h-10zM944 604c-8 4-5 17 4 17 4 0 9-5 9-9 0-6-7-11-13-8zM82 606a106 106 0 0 0-59 29l9-3c17-6 25-7 44-7 14-1 18 0 25 2 12 3 25 9 37 18 9 7 23 15 30 17 3 1 4 2 5 6l6 9c3 3 4 4 8 4 5 0 8-2 12-7l2-5h18c25-1 47-6 67-16l9-5 3 3c5 3 14 4 19 0 4-3 6-8 6-13 0-12-13-20-23-14-5 3-8 7-8 13l-1 4-10 2c-17 3-36 4-54 4-24-1-24-1-26-8l-6-9c-3-3-4-3-8-3s-5 1-7 3l-5 5c-1 2-1 2-8-1l-16-10a102 102 0 0 0-70-18z"/>
    <path d="M142 608c-9 2 0 8 16 11 11 2 29 3 31 1s2-2 1-3c-3-3-12-6-21-8-8-1-24-2-28-1zM260 611c-7 4-9 15-4 21 9 12 28 7 28-8 0-13-14-21-24-14zM231 618c-5 4-5 9-1 13s9 4 12 0l3-5c0-3-3-8-4-8h-10zM363 622c-14 2-25 7-26 13-1 3 3 7 8 10 10 5 33 7 49 4 23-4 30-14 15-22-9-4-31-7-46-5zM895 622c-11 1-19 4-24 9-10 9 9 19 38 19 18 0 32-4 37-10 4-4 4-6 0-9-8-8-30-11-51-9zM1008 635c-4 3-7 8-7 13 0 20 29 21 31 2 0-6-3-12-7-15-5-3-12-3-17 0zM1044 639c-6 4-5 13 2 15 6 3 13-3 12-10-1-3-6-7-9-7l-5 2zM107 645c-6 2-9 4-12 9-5 10 0 23 10 28 11 4 24-3 27-15 2-8-3-18-10-21-4-3-11-3-15-2zM1097 651l-2 2c0 2 7 6 16 8 10 3 32 4 34 2 2-1 2-2 2-3-4-6-42-13-50-9zM331 654l-3 5 3 6c2 2 3 3 6 3s4-1 6-3c3-4 4-6 1-10-1-3-3-4-7-4-3 0-4 1-6 3zM943 653c-6 4-5 13 2 15 6 3 13-3 12-10-1-3-5-7-9-7l-5 2zM373 664c-16 3-29 10-32 15-2 5-1 8 6 11 5 2 6 2 20 2 11 0 16 0 23-2 23-5 36-16 27-23l-7-4c-7-2-26-1-37 1zM874 664c-10 3-11 7-6 14 7 7 26 14 46 15 35 2 42-14 12-25-16-6-41-8-52-4z"/>
    <path d="m1093 663-6 5-3 4-8-2-30-1c-23-1-35 1-51 6l-7 3-2-3c-10-10-28-4-28 11 0 5 2 9 6 12 9 8 22 3 25-9l2-4h20l28 2 35 7c4 2 4 2 5 7 2 10 7 15 14 15 3 0 7-2 10-6l2-2 5 3 14 11c11 11 19 16 30 21 14 7 24 9 41 9a91 91 0 0 0 58-18l-10 2c-13 2-36 2-47-1-22-4-34-11-52-29-11-10-18-16-27-21-5-3-6-4-6-6 0-5-4-13-7-15s-9-3-12-1zM265 668c-6 3-8 6-9 13 0 4 0 6 2 9 6 10 22 9 27-1 7-13-7-28-21-21z"/>
    <path d="M1161 674c-11 6-14 21-6 30 4 5 9 7 15 7s10-1 13-5c14-12 5-34-13-34l-9 2zM307 675c-5 2-7 4-9 8-2 3-2 6-2 9v4l-13 5c-23 7-49 12-65 12h-9l-2-3c-7-14-19-16-25-4l-3 4c-2 0-11-3-23-9a101 101 0 0 0-125 29l11-4c20-10 36-14 55-14 18 0 28 2 49 13 13 6 28 11 33 11 2 0 3 1 5 4 4 8 9 12 15 12 4 0 10-5 11-10 1-4 2-5 10-6 22-2 52-14 73-27 8-6 8-6 11-5l8 2c10 0 17-7 16-17-1-11-11-17-21-14z"/>
    <path d="M234 683c-5 4-4 12 2 14 9 4 17-8 9-14l-5-3-6 3zM150 685c-11 2-13 5-5 8 4 1 7 2 22 2 19-1 26-2 26-5 0-4-7-5-24-6l-19 1zM1004 692c-7 3-11 11-10 18 2 7 8 12 16 12 16 0 21-22 7-29-4-2-9-3-14-1zM341 699c-4 2-5 4-5 8 0 3 1 4 3 6l6 3 5-3c8-6-1-19-10-14zM399 701c-22 4-45 17-47 26-2 6 3 9 16 9 16 0 34-5 48-14 8-5 11-9 12-13 2-8-10-12-29-8zM865 700c-6 1-8 4-8 8 0 8 20 20 41 26 8 2 11 2 20 2 10 0 11-1 13-3l3-4c0-15-47-34-69-29zM935 702c-4 3-4 9-1 12 6 5 15 1 15-6l-2-6-6-3c-3 0-5 1-6 3zM1037 704c-4 3-4 9-1 12 4 3 9 3 12-1 6-5 2-14-5-14-3 0-5 1-6 3zM956 722c-12 5-13 23-2 29 9 5 20 1 23-9l3-3 13 2c23 4 45 11 62 18l9 4v6c0 7 3 14 8 16 4 2 7 1 13-3l4-3 5 6 12 13c15 20 35 33 57 39 9 2 27 3 37 1 9-1 24-6 29-8 2-2 1-2-10-2-28 0-51-7-68-19-8-6-20-19-26-27-5-7-13-16-20-22-6-5-6-5-6-11-1-6-4-13-7-15-5-2-12-1-17 4l-2 3-10-4c-24-8-57-11-83-6-3 0-4 0-5-2l-4-5c-4-3-11-4-15-2zM1087 723c-2 3 9 10 24 14 21 7 33 6 22-2s-44-16-46-12zM275 726c-7 4-9 15-5 22 8 12 27 7 29-7 0-6-3-13-8-15-5-3-12-3-16 0z"/>
    <path d="M320 726c-8 3-11 8-11 18l1 6-16 8c-23 11-42 17-60 21-7 1-7 1-8-1-2-3-9-9-13-10-6-2-10 0-13 6l-2 6c0 3-8 1-34-6-10-2-37-2-47 1-10 2-22 8-31 14-11 7-24 21-30 32-4 6-3 6 6-1 8-6 19-13 28-17 25-10 50-11 77-2 10 3 23 6 31 6 5 0 6 0 9 4 4 6 8 9 13 9 7 0 9-3 13-13 0-3 2-4 12-7 25-8 48-22 66-40 4-4 6-5 7-4h13c4-1 9-7 9-11 2-8-3-17-11-19h-9zM116 727c-4 2-9 7-11 11-2 5-1 13 1 17 4 7 14 12 20 10 11-2 17-9 17-19 0-8-3-14-11-18-4-2-12-3-16-1zM418 736c-26 7-53 29-48 39s43-1 62-19c7-6 10-11 10-15 0-3 0-4-3-6-4-2-12-1-21 1zM847 735c-3 2-4 3-4 7 0 9 22 26 44 33 20 7 32 3 28-7-2-4-10-13-18-18-17-12-43-19-50-15z"/>
    <path d="M247 746c-6 5-2 14 5 14 8 0 12-9 7-14-3-4-9-4-12 0zM355 745c-3 2-5 7-4 10 2 7 10 8 15 4 7-7-3-19-11-14zM919 748c-5 6-1 14 7 14 7 0 11-8 6-14-2-2-3-3-7-3-3 0-4 1-6 3zM988 749c-4 1-8 7-9 11-2 11 7 21 19 19 5-1 11-8 12-13 0-6-3-13-7-16-4-2-12-3-15-1zM1147 756c-16 8-16 27-1 35 9 5 20 2 26-7 2-3 3-5 3-10 0-8-2-12-8-16-4-3-5-3-11-4-5 0-7 0-9 2zM181 757c-20 3-33 11-22 13 5 1 24-1 32-3 14-3 20-8 13-10h-23zM1022 764c-6 2-7 8-2 13 3 4 8 4 11 1 6-4 4-13-2-15l-3-1-4 2zM446 766c-21 6-52 32-52 46 0 4 3 6 9 6 12 0 29-9 44-24 9-8 14-16 14-22 0-4 0-4-3-6h-12zM828 766c-11 4 2 25 25 41 15 10 32 14 36 9 4-4 1-13-9-23-16-18-42-31-52-27zM934 772c-9 5-11 17-4 24 4 4 10 6 15 6 4-1 10-6 13-10a536 536 0 0 1 32 9c20 8 49 25 48 28v8c0 7 2 11 6 14 4 2 6 1 12-1 4-3 4-3 6-1l14 21c6 11 11 18 20 26 13 13 28 21 48 25 10 2 31 2 41 0 8-2 10-4 4-4l-13-2c-24-5-43-14-57-27-9-9-14-16-22-30-7-14-10-19-17-27-5-6-6-7-5-11 1-7-1-13-4-16-3-4-10-4-15 0l-5 2-11-5a179 179 0 0 0-79-19c-2 1-3 0-4-1-1-3-5-8-8-9-4-3-11-2-15 0zM337 776l-5 5c-3 4-4 11-2 15l2 4a237 237 0 0 1-76 43l-5-3c-12-10-23-8-25 5v5h-11l-20-2c-39-4-75 14-96 48l-9 20 9-8c17-18 35-29 55-34 12-3 29-3 44-1 7 2 13 2 24 2l14-1 4 4c5 4 9 6 13 6 7 0 11-6 11-14v-4l8-4c22-11 46-30 61-50l5-6 7-1c4 0 7 0 9-2 4-3 6-7 7-12 0-5 0-6-2-9-6-8-15-11-22-6z"/>
    <path d="M300 779c-7 2-13 10-12 18 2 10 14 16 23 11 16-9 7-33-11-29zM375 790c-3 3-4 6-2 9 2 4 4 5 8 5s7-1 8-5c4-9-8-17-14-9zM900 788c-4 2-7 9-4 13 6 7 16 4 16-5 0-6-6-10-12-8zM1067 793c0 6 29 22 42 24 8 1 7-3-1-9-14-11-41-21-41-15zM470 795c-21 9-45 37-45 52 0 6 2 7 8 7 9-1 21-9 34-23 12-12 18-23 18-31 0-7-6-9-15-5zM804 794c-10 3-1 23 19 42 16 15 30 22 36 16 9-9-16-42-39-54-7-4-13-6-16-4zM964 802c-10 5-13 18-5 25 3 4 6 5 11 5 15 0 21-20 9-28-4-3-11-4-15-2zM270 805l-3 6c0 4 5 9 8 9 4 0 8-3 9-6 1-4 0-9-4-10-4-3-7-2-10 1zM138 808c-10 5-14 18-8 28s21 12 30 5c14-13 6-35-13-35l-9 2zM907 817c-4 2-8 9-8 14 0 15 18 21 28 10l3-3 8 3c20 10 46 28 60 40l6 6-2 4c-4 13 2 24 13 21l6-1c2 0 6 7 10 17 8 23 14 32 25 44 12 12 25 20 41 25 13 4 31 6 42 4 4 0 3 0-8-4-23-8-43-21-55-35-8-10-14-20-19-36-5-14-10-24-15-32-3-4-3-4-1-8v-16c-3-6-11-7-18-3l-4 1-8-6c-21-15-45-26-71-31-9-1-9-1-10-4 0-4-4-9-8-10-4-2-11-2-15 0zM498 820c-13 6-31 30-36 47-5 15 0 21 13 14 11-5 28-26 35-42 3-8 4-18 1-21-3-2-7-1-13 2zM775 819c-8 7 4 34 22 52 20 20 34 16 26-6-9-26-39-55-48-46zM368 820c-10 3-14 15-8 24l2 3-12 11c-13 13-28 25-41 34-13 8-17 10-19 8l-7-4c-6-3-12-3-15 1-3 2-4 8-4 12 1 3 1 3-4 4l-20 2-20 2c-30 6-56 26-70 54-4 9-10 24-9 26l8-9c13-18 31-33 48-40 13-6 21-7 43-8 16-1 23-1 29-3l9-2 5 3c7 4 14 5 18 2 3-3 5-9 4-14v-4l8-5c20-15 38-35 51-58l5-8 4-1c7 0 12-3 14-8 3-6 3-9 0-15-4-7-12-10-19-8zM994 824c-3 4-4 6-1 10 1 3 3 4 7 4s6-2 8-5 1-6-2-9c-2-2-3-3-6-3s-4 1-6 3zM211 827l-19 6c-13 7-15 12-2 10 8 0 21-4 30-8 9-5 13-7 12-9-1-3-10-2-21 1zM403 828c-3 4-3 9 0 13 6 5 15 1 15-6 0-8-9-12-15-7zM871 828c-8 4-4 16 5 16 3 0 8-5 8-9l-3-6c-3-3-6-4-10-2z"/>
    <path d="M325 832c-7 4-10 15-5 22 3 5 7 6 13 6 9 1 15-5 15-15 0-11-12-19-23-13zM1121 833l-6 3c-3 2-8 11-8 15 0 12 12 22 23 20 10-1 18-11 17-21s-8-17-18-18l-8 1zM532 837c-7 5-18 18-24 32-6 11-8 20-8 29 0 14 8 15 21 1 13-13 22-34 23-50 0-8 0-9-2-11s-6-3-10-1zM744 837c-5 3-4 20 4 37 10 22 27 39 34 34 3-2 4-8 3-16-4-27-30-62-41-55zM564 854a88 88 0 0 0-22 59c1 9 3 13 8 14 7 0 20-18 26-39 2-7 2-11 2-20 0-11 0-12-2-15-3-4-7-4-13 1zM710 852c-10 10 1 53 17 70 4 4 5 5 8 5 2 0 4-1 5-3 2-3 2-4 2-15 0-14-2-24-9-39-5-11-14-20-19-20l-4 2zM930 852c-14 8-8 29 8 29 9 0 15-6 15-15 0-12-13-20-23-14zM875 856c-11 5-13 18-5 26 6 6 15 7 21 1l4-3 8 6c19 13 42 35 53 49l4 6-2 4c-3 5-4 12-2 16 2 5 6 6 13 6l6-1 2 8c2 4 3 12 4 17a99 99 0 0 0 98 84l-9-5c-24-13-44-31-54-50-5-10-8-20-10-34s-5-25-9-32l-2-4 2-6c4-8 4-12 1-17-3-4-8-6-15-4l-5 1-6-6c-15-17-43-35-66-43l-9-2v-4c-2-10-13-17-22-13zM1037 857c0 5 18 21 33 28 5 3 11 4 11 2 0-5-19-21-33-28-5-3-11-4-11-2zM305 858c-6 1-8 10-3 15s14 1 14-7c0-5-5-9-11-8zM400 860c-9 5-11 16-5 24l3 4-4 6c-12 18-34 42-49 53l-7 6-5-2c-3-2-6-2-10-2-5 0-6 0-9 2-2 3-2 4-2 10v7l-5 2-18 4c-15 4-22 6-33 12a97 97 0 0 0-52 78v9l6-12c19-37 45-56 81-61 13-3 24-5 32-9l6-3 4 2c5 3 13 4 17 2 5-2 8-10 5-17-1-3-1-3 8-12 18-19 30-38 40-64l3-9h4c5-1 9-4 11-8 7-15-7-29-21-22zM602 860c-5 3-10 15-14 27-3 13-4 34-1 42 4 9 8 11 14 6 15-13 21-66 9-75-3-2-4-2-8 0zM676 859c-8 5-10 32-3 54 6 22 17 32 23 20 7-13 4-45-6-63-5-10-10-14-14-11zM437 862c-6 5-2 15 6 15 5 0 9-3 9-8 0-8-9-12-15-7zM837 862c-8 4-4 16 5 16 3 0 8-5 8-9l-3-6c-3-3-6-4-10-2zM638 864c-6 6-9 16-10 33-1 19 3 35 10 42 3 4 6 4 10 0 6-8 10-24 9-43-1-16-4-27-10-32-3-4-6-4-9 0zM961 876c-8 4-4 16 5 16 3 0 8-5 8-9 0-6-8-11-13-7z"/>
    <path d="M365 877c-8 2-11 8-11 16 1 6 3 9 9 12 7 4 14 2 19-5 4-4 3-13 0-18-4-5-11-8-17-5zM175 883c-13 6-16 21-6 31 8 9 21 9 28 0 6-7 7-15 3-23-4-9-17-12-25-8zM257 888c-12 3-36 17-38 22s9 3 24-4c9-4 16-9 21-13 3-4 4-6 1-6-1-1-1-1-8 1zM477 890c-5 4-4 12 1 15 9 4 17-7 10-14-3-4-8-4-11-1zM800 889c-7 2-8 10-3 14 7 8 19-3 12-11-3-3-7-4-10-3zM836 890c-4 1-9 6-10 11-2 6 0 11 4 15 3 4 4 4 10 5 5 0 7 0 10-2 4-3 5-2 17 11 17 19 33 39 39 52l2 5-2 3c-5 6-6 13-4 18 2 4 7 6 12 6h5l1 5 2 20c1 23 5 36 14 52 6 10 23 27 34 33 9 6 24 12 31 13h5l-9-6c-19-13-35-33-42-49-6-13-7-21-8-43-1-16-1-22-3-30-2-7-2-9-1-10 2-2 6-11 6-15s-2-8-6-10l-8-1h-7l-3-5-23-27c-12-12-29-24-41-30-4-1-4-2-4-6 0-6-3-11-9-14-5-2-7-2-12-1zM440 894c-6 4-8 8-8 14s2 10 6 13l3 2-6 13c-11 21-26 41-39 56l-4 5-5-2c-8-2-14-1-18 3-3 2-3 3-3 8l1 8c1 1 0 2-5 5l-16 7c-17 6-27 12-37 21a105 105 0 0 0-32 85l1 5 2-9c11-34 30-58 54-71l20-7c14-5 20-8 29-14 5-3 5-3 10-2 16 5 25-3 19-17l-2-4 2-3c17-22 30-51 35-76l1-10h4l6-4c9-8 7-21-3-26-6-3-11-2-16 0zM891 895c-15 7-10 29 7 29 16 0 22-22 7-29-6-3-8-2-14 0zM1081 906c-6 3-11 8-13 14-2 7 0 14 6 19 16 15 41-3 31-23-5-9-15-13-24-10zM342 910c-4 3-4 8-1 11 4 6 13 4 15-2 3-10-7-16-14-9zM519 913c-5 4-4 11 2 13 10 5 17-8 9-14-3-3-8-3-11 1zM756 911c-7 4-6 14 1 17 9 2 15-9 8-15-3-3-6-4-10-2z"/>
    <path d="M407 916c-9 4-12 14-8 22 5 11 21 11 27 1 5-8 2-18-6-22-5-2-9-2-13-1zM998 917c0 7 22 31 33 35 4 2 4 2 5 0 2-6-28-37-36-37l-2 2zM791 918c-6 3-10 9-10 16 0 11 12 18 23 13l3-1 6 8c14 18 26 41 34 59l3 10-3 3c-4 5-7 11-7 14 0 7 6 12 13 12 3 0 3 0 3 4v20c-4 29 0 48 12 69 5 8 17 21 25 28l28 15c1 0-3-5-9-10-10-12-21-28-26-39-8-18-9-34-6-57 2-12 2-18 2-28l-1-12 3-3c4-3 7-10 7-13 0-7-6-12-15-12-3 0-4 0-6-5a188 188 0 0 0-50-63l-8-6v-6c0-7-2-12-8-15-5-2-9-3-13-1zM487 920c-13 6-13 23 0 30 1 2 1 2-2 12-7 22-19 47-29 62l-5 8-7-1c-8 0-11 1-15 4-3 3-3 10 0 15l2 3-3 3-22 14a98 98 0 0 0-50 96c2 14 5 26 5 18 0-5 3-19 6-29 6-18 14-33 26-45 8-8 15-13 31-22 13-6 18-10 25-16 4-4 4-4 12-4 9 1 13-1 16-6 2-4 1-6-2-12l-3-6 4-7c11-20 19-48 20-73v-13l4-2c5-3 8-7 8-14 0-5 0-6-3-10-5-6-12-7-18-5zM917 925c-6 5-2 14 6 14 5 0 8-3 8-8 0-8-9-12-14-6zM565 928c-6 5-2 14 6 14s11-9 5-14c-3-4-8-4-11 0zM710 926c-4 2-5 4-5 8 0 9 12 12 16 4 2-3 2-4 1-7-3-6-8-7-12-5zM845 932c-4 2-8 7-9 12 0 4 3 12 8 15 4 3 11 3 16 0 6-4 7-7 7-14 0-6-2-9-7-13-4-3-10-3-15 0zM614 933c-5 3-6 11-1 15 3 3 8 3 11-1 5-4 4-10-2-13-3-2-4-2-8-1zM664 933c-7 3-8 11-4 15 7 6 17-1 15-9-1-4-8-8-11-6z"/>
    <path d="M740 940c-8 5-10 13-6 20 3 8 12 11 20 9 3-1 3-1 9 11a266 266 0 0 1 24 71l-4 3c-4 3-9 10-9 15 0 4 5 10 10 11 4 0 4 1 4 4l-5 25a99 99 0 0 0 49 116l-2-4c-12-15-22-34-26-51s-4-33 2-50l8-36v-9l4-3c14-10 11-24-5-26-2 0-3-2-6-12-8-25-21-47-39-66-5-5-6-6-5-8 2-3 1-10-1-14-3-5-7-8-13-8l-9 2zM535 940c-4 2-6 4-8 8-4 8 0 18 8 22 5 2 5 1 2 17-4 22-11 45-18 62l-4 8h-4c-11 0-18 5-18 12 0 3 3 10 5 11s-6 10-20 21a99 99 0 0 0-31 118l3 6v-11c0-42 14-71 43-93 14-11 19-15 25-23 5-6 5-6 9-6 7 0 12-2 16-6 5-4 4-10-2-16l-3-4 2-7a166 166 0 0 0 7-87l3-4c7-4 9-15 5-21l-5-5c-3-3-11-4-15-2zM306 943c-8 2-22 12-31 21-7 6-8 9-7 10 4 7 46-23 43-30-1-2-1-2-5-1zM457 949c-11 3-14 17-6 25 6 7 15 6 22 0 3-3 3-5 4-10 0-5 0-6-2-9-5-7-11-9-18-7zM225 950c-14 4-19 21-10 32 8 10 24 9 31-1 11-15-3-35-21-31zM389 953c-5 5-1 14 6 14 5 0 9-3 9-8 0-8-10-12-15-6z"/>
    <path d="M690 952c-8 5-11 16-6 23 4 5 8 7 14 7h5l4 12c7 23 12 44 13 63v12l-4 2c-7 4-11 9-11 14s3 8 9 11l3 2-8 21-10 28c-6 29 1 57 19 81 6 7 17 19 19 19l-4-10c-9-18-14-34-15-51-1-18 2-32 12-52 7-14 10-22 12-32l3-7c3-1 10-6 12-9 4-7 1-14-8-18l-5-1-1-9c-3-25-13-50-28-72l-5-9 1-4 2-7c0-12-12-19-23-14zM585 953c-8 4-11 16-5 24 1 2 8 6 11 6 2 0 2 1 2 16 0 23-3 46-8 65l-2 8h-5c-8 2-15 6-16 12 0 4 2 9 6 12l2 2-1 4-10 12c-12 13-15 18-20 25a100 100 0 0 0 3 106l3 3-2-7c-2-11-3-36-1-46 3-23 12-39 31-59 11-12 16-18 20-26 2-4 4-5 6-6 10-2 16-6 17-11 1-4-1-9-6-13l-4-3 2-7c2-11 3-30 2-44s-3-24-7-36c-2-9-2-9-1-11 6-4 8-14 4-21-4-6-14-9-21-5z"/>
    <path d="M637 957c-4 2-7 6-8 13 0 8 5 15 14 17 6 0 5 0 7 13 3 17 4 37 4 52-1 22-2 23-6 25-9 3-13 7-14 12-1 4 1 9 6 12l4 3-3 6-10 16a99 99 0 0 0 7 126l4 3-4-11c-6-18-7-28-7-46 1-12 1-16 3-23 4-12 9-22 18-34 7-10 13-21 16-30 2-4 3-5 7-6l9-6c3-3 4-4 4-8s-4-10-9-12l-3-1v-17c-1-25-6-47-16-68-5-9-5-10-3-12 9-10 1-26-12-26l-8 2zM793 961c-7 5-10 12-6 20 6 11 20 12 27 2 2-2 2-5 2-9 0-6-1-9-7-13-4-3-11-3-16 0zM867 965c-3 3-4 6-1 10 4 8 16 4 16-5 0-3-5-8-9-8l-6 3zM950 968c-3 4 12 29 24 39 16 14 6-12-13-32l-10-8-1 1zM1031 972c-8 3-14 10-14 19 0 19 22 27 35 13 3-4 5-9 4-16-1-6-5-11-10-14-3-2-11-3-15-2zM508 974c-5 3-7 5-8 9-4 16 15 26 26 15 7-6 6-15 0-22-3-3-5-3-10-4-4 0-6 0-9 2zM736 984c-9 8-7 21 5 25 7 3 16 0 19-7 3-6 3-8 0-14-3-5-7-8-14-8-5 0-6 0-10 4zM445 985c-6 3-7 13 0 16 5 2 9 1 12-4 2-5 0-10-5-12h-7zM565 989c-6 4-8 7-8 14s2 11 8 14c17 8 31-16 15-27-4-3-10-3-15-1zM353 995l-15 13c-12 13-16 21-11 21 8 0 36-28 36-36 0-3-3-3-10 2zM683 992c-10 3-13 18-6 26 10 10 27 3 27-11 0-11-10-18-21-15z"/>
    <path d="M622 996c-6 4-7 7-7 14 0 3 0 6 2 8 3 4 8 7 13 7 8 0 13-4 15-12 1-4 1-5-1-10-3-6-7-8-13-9-5 0-6 0-9 2zM812 996c-4 4-4 11 1 14 6 4 13 0 13-8 0-7-9-11-14-6zM281 1011c-6 2-12 9-13 16-1 6 1 13 6 17 16 15 40-3 31-23-4-9-14-13-24-10zM502 1012c-7 4-3 16 5 16 4 0 9-5 9-9 0-7-8-11-14-7zM893 1013c-1 2 3 13 7 23 8 16 17 26 19 22 3-5-13-40-22-45-2-2-3-2-4 0zM752 1019c-6 5-2 15 6 15 5 0 9-3 9-8 0-8-9-12-15-7zM563 1030c-6 5-2 14 6 14 5 0 8-3 8-9 0-7-9-11-15-5zM971 1029c-6 2-12 8-14 14-2 9 2 19 10 23 10 5 22 1 27-9 7-16-7-32-23-28zM416 1033c-10 8-26 32-26 39 0 8 18-10 28-28 4-7 5-13 3-14l-5 3zM690 1033c-4 3-4 8-1 11 4 5 12 5 15-1 4-9-7-17-14-10zM628 1034c-5 3-6 11-1 15 3 3 8 3 11-1 5-5 4-11-2-14h-8zM832 1047l-1 6c0 14 12 44 18 44s-3-35-13-48c-2-3-3-4-4-2zM481 1063c-4 5-9 12-13 22-7 15-9 25-4 23 6-2 20-27 22-39 3-9 1-12-5-6zM345 1063c-6 2-10 7-11 15-2 6 3 16 10 20 4 2 12 3 17 1 3-2 9-7 11-11 4-9-2-22-11-26-4-1-12-1-16 1zM764 1074c-3 7 1 37 6 45 3 5 5 6 6 3 4-11-4-51-10-51l-2 3zM904 1076c-17 3-22 26-7 36 3 2 5 2 11 2 6 1 7 0 11-2 5-4 8-10 8-17 0-12-11-21-23-19zM553 1080c-5 3-15 28-16 42 0 8 0 8 2 8 5 0 17-30 17-44 0-6-1-7-3-6zM693 1089c-5 12-2 49 3 49s8-24 5-41c-2-12-5-15-8-8zM621 1092c-5 12-9 38-6 45 4 10 12-10 13-33 0-12 0-16-3-16l-4 4zM423 1101c-11 3-16 10-16 21 1 10 7 17 18 18 16 1 26-15 19-29-4-7-14-12-22-10zM827 1112l-9 6c-11 11-5 31 12 33 13 1 23-8 22-21s-13-21-25-18zM499 1129a20 20 0 1 0 22 30c6-9 5-18-2-25-6-5-13-7-20-5zM745 1137c-8 4-12 9-12 18 0 16 19 25 32 15 6-4 9-15 6-23-3-6-11-12-19-12l-7 2zM583 1144c-17 4-21 25-8 35 4 3 5 4 11 4 7 0 8-1 12-3 12-8 11-28-2-34-5-2-9-3-14-2zM662 1148c-10 5-15 16-10 26 6 12 21 15 31 6 14-13 5-34-13-34l-8 2z"/>
  </g>
</svg>
