<svg xmlns="http://www.w3.org/2000/svg" class="icon" viewBox="0 0 1024 1024">
  <path fill="#1ca538" d="M793 752s0-1 0 0c0-4-2-6-5-7l-4-2c-4-1-7 0-11 2-5 1-8 3-12 6-2 2-3 5-3 8h-3c-22 3-45 7-67 12 4-11 8-22 15-32v-1c15-8 16-32 7-45-3-4-8-5-11-2l-4 5c-9 11-12 25-9 40v2l-14 35v1l-81 19 2-3 3-5 1-3 9-18 3-1c22-9 25-34 11-51-2-4-7-3-9 0-10 8-14 18-15 30-1 7 1 11-2 17l-11 22-8 16-53 14v-61l14-12 5-3 2 1c24 2 42-24 29-45-2-3-6-3-9-2-15 7-29 18-31 35l-10 8v-48c14-10 30-20 45-28l28 20c6 14 20 22 36 22 7-1 8-10 3-14-6-11-16-19-30-20h-2l-22-16 33-17 12-6 3 1 29 16c6 20 25 32 46 29 3-1 6-6 4-9-7-19-22-29-42-32l-26-13c10-4 18-9 27-14v-1c20-7 43-17 32-41-2-3-6-3-9-2-10 4-19 9-24 19-10 15-21 22-37 30l-42 21c3-14 10-29 11-43 17-14 19-35 7-54-2-4-7-5-10-1a57 57 0 0 0-17 41c1 5 7 10 5 15-2 11-6 21-9 32l-6-6v-2c0-18-15-32-33-32-3 0-7 3-7 7 2 27 32 30 43 51-17 10-34 19-50 30v-97l15-12v-1c8 3 18 3 25-3s12-16 13-27c0-3-1-5-3-6l-5-2c-19 0-40 11-43 31l-3 3v-83c28 12 54 27 80 41h1c4 16 18 27 33 34 4 2 9 1 10-4 4-22-13-41-35-43l-4 1-25-14c14-3 40-13 32-29-6-11-18-12-27-6s-17 16-19 27v1l-36-18c26-8 53-12 79-20 7 9 15 16 23 23 2 20 16 30 34 37 4 1 9-3 8-7-1-17-13-42-33-39l-19-19 12-4 1-1c5 2 11 2 18 0 10-1 19-5 24-12 4-6 5-14 1-19s-11-7-17-7c-15 1-28 10-29 25h-1c-18 8-37 12-56 17v-1l6-15 3-1c13-15 20-31 6-49-2-2-8-2-9 0-10 13-21 31-13 47l-3 8-2 5-1 3v1l2-2-2 2h-1l-1 5c-13 3-27 6-39 11v-53c6-5 12-11 16-18h1c9-1 17-4 23-10 8-7 7-18 2-27-6-9-21 0-26 5-7 6-11 16-11 25l-5 6v-39l5-5 3 1c11-2 22-1 32 0l21 2 3 2c8 3 16 8 24 9 9 0 15-2 21-6l7-4c4-2 5-7 2-10l-4-3c-15-14-35-16-50-1-8 1-18-3-27-3h-16c9-7 18-14 26-23 20 2 37-18 25-38-1-2-5-4-8-3-12 6-31 18-29 33l-34 31v-30c8-4 14-11 20-19 19 5 32-19 22-36-1-2-4-4-7-3-15 5-29 16-27 32l-8 9v-63c12 2 23 8 33 15 8 6 18 8 27 4 4-1 6-5 4-10-7-13-18-16-32-14l-2 1-20-8 11-8c19 0 31-22 26-40-1-4-5-5-8-4-11 1-20 8-24 18l-4 15c0 2-8 6-10 7l-3 1v-46c10-5 11-22 7-31-4-6-10-9-15-9h-2c-6 0-11 3-14 9-5 9-3 26 6 31v46l-3-1-10-7-4-15c-4-10-13-17-23-18-4-1-7 0-9 4-5 18 7 40 26 40l11 8-20 8-1-1c-14-1-26 2-33 14-2 4 0 9 4 10 9 4 19 2 27-4 10-7 21-13 33-15v63l-7-9c1-16-13-28-28-32-3-1-6 1-7 3-10 17 3 41 22 36 6 8 13 14 20 19v30l-34-31c3-14-17-27-29-33-3-1-6 1-8 3-12 19 5 40 26 38 7 9 17 16 25 23h-16c-9 1-19 4-27 3-15-15-35-13-50 1l-4 3c-3 3-2 8 2 10l7 4c6 4 12 6 21 6 8-1 16-6 24-9l3-2 21-2h32l3-1 5 5v39l-5-6c0-10-3-19-10-25-6-5-21-13-27-5-5 9-6 19 2 27 6 6 14 9 23 10h1c4 7 10 13 16 18v53l-39-11-1-5h-1l-2-2 2 2v-1l-1-3-2-5-3-8c8-16-3-34-13-47-2-2-7-2-9 0-12 19-6 35 8 50l2 1 6 15v1c-19-5-37-10-56-17h-1c-2-15-15-24-29-25-6 0-13 1-17 7-4 5-3 13 1 18 5 8 14 12 24 13h18l1 1 11 4-18 19c-20-3-32 22-33 39 0 5 4 8 8 6 18-6 32-17 34-36l23-23c26 8 53 12 79 20-13 5-24 12-36 18v-1c-2-10-10-21-19-27-10-6-21-6-27 5-8 17 18 27 32 30l-26 14c0-1-2-2-3-1-22 3-38 21-35 43 1 5 6 6 10 4 15-8 28-17 33-34h1c26-14 52-29 80-41v81l-4-3c-1-20-23-31-42-31-2 0-4 1-5 3-2 1-4 3-3 6 2 9 6 19 13 26 7 6 17 6 25 3v1l15 12v98l-50-29c11-21 40-24 43-51 0-4-3-7-7-7-18 0-33 14-33 32v2l-7 6-8-32c-1-5 5-10 5-16 1-15-6-29-17-41-3-3-8-2-11 2-11 19-10 40 7 54 2 14 9 29 12 43l-42-21c-16-9-28-15-37-30-5-10-15-14-24-19-3-2-8-1-9 2-12 24 12 34 32 41v1l27 14-26 13c-17 3-32 14-39 33-2 3 1 8 4 9 21 4 40-9 46-29 10-4 19-11 29-15l3-2 12 6 33 17-22 16h-2c-13 1-24 9-30 21-4 1-4 11 4 11 16 1 29-7 36-21l27-20c16 8 31 17 46 27v48l-11-7c-1-17-15-28-30-35-4-2-7-1-9 2-13 20 5 47 28 44h3l4 3c6 3 11 7 15 12v60l-53-14-8-16-11-22c-3-6-1-10-2-17-2-13-6-22-15-30-2-3-7-4-9 0-15 17-11 42 11 51l3 1 9 18 1 3 3 5 1 3-80-19v-1c-5-12-9-24-15-35l1-2c3-14 1-29-9-40l-4-5c-3-3-9-2-11 2-9 13-8 37 7 45v1c6 10 10 21 15 32l-67-12h-4c0-3 0-6-3-8-3-4-7-5-11-6-3-2-7-3-11-2l-4 2c-3 1-6 3-6 6v1c-3 7-4 17 0 24 6 11 18 7 26 0l5-6c1 1 1 2 3 2 44 7 88 15 131 26l-48 24v1c-17-1-32 12-31 30 0 7 9 9 12 4 12-2 24-9 26-21 2-1 3-2 3-4 18-11 39-18 57-29l1-1 86 22v145c0 6 5 8 9 6 4 2 9 0 9-6V824l86-22 1 1c18 11 38 18 57 29l2 4c3 12 15 19 27 21 3 4 12 3 12-4 1-18-14-31-31-30l-1-1c-15-9-32-15-48-24 44-10 88-19 132-26l3-2c1 3 3 4 5 6 7 7 20 11 26 0 6-7 5-17 2-24"/>
</svg>
