<svg xmlns="http://www.w3.org/2000/svg" viewBox="0 0 491 500">
  <g fill="#f5f5f5" fill-rule="evenodd">
    <path d="m381.54 109.97-4.45-8.9h.12l-4.45-8.9h.11l-4.45-8.9h39.88l-4.45 8.89h.11l-4.44 8.9h.11l-4.44 8.9h.12l-6.93 13.87-6.93-13.88h.11zm4.97 0h3.7l-1.85-3.7-1.84 3.7zm8.03-8.9-4.44-8.9h.1l-1.84-3.7-1.84 3.7h.1l-4.44 8.9h12.37zm.64-8.9h3.7l-1.85-3.7-1.85 3.7zm-17.33 0h3.69l-1.85-3.7-1.85 3.7zm24.5 59.43-4.45-8.89h.11l-4.45-8.9h.12l-4.45-8.9h39.87l-4.44 8.9h.11l-4.45 8.9h.12l-4.45 8.9h.1l-6.93 13.88-6.94-13.88h.1zm4.97 0h3.7l-1.85-3.69-1.85 3.7zm8.03-8.89-4.45-8.9h.11l-1.84-3.69-1.85 3.7h.11l-4.44 8.9h12.36zm.64-8.9h3.7l-1.85-3.69-1.85 3.7zm-17.34 0h3.7l-1.84-3.69-1.84 3.7zm24.5-23.83-4.44-8.9h.12l-4.44-8.9h.12l-4.44-8.9h39.88l-4.44 8.9h.12l-4.45 8.9h.12l-4.44 8.9h.11L430 123.86l-6.93-13.88h.11zm4.98 0h3.7L430 106.3l-1.84 3.7zm8.03-8.9-4.44-8.9h.11L430 88.5l-1.84 3.7h.12l-4.45 8.9h12.37zm.64-8.9h3.7l-1.84-3.69-1.84 3.7zm-17.33 0h3.7l-1.85-3.69-1.84 3.7zM340.45 26.7 336 17.8h.11l-4.44-8.9h.1L327.34 0h39.88l-4.45 8.9h.12l-4.45 8.9h.11l-4.44 8.9h.12l-6.93 13.88-6.93-13.88h.11zm4.98 0h3.69l-1.85-3.7-1.85 3.7zm8.02-8.9-4.44-8.9h.1l-1.84-3.7-1.85 3.7h.1l-4.44 8.9h12.36zm.64-8.9h3.7l-1.85-3.7-1.84 3.7zm-17.33 0h3.69l-1.85-3.7-1.85 3.7zm24.5 59.43-4.45-8.9h.11l-4.44-8.9h.12l-4.45-8.9h39.88l-4.44 8.9h.11l-4.44 8.9h.12l-4.45 8.9h.12l-6.94 13.88-6.93-13.88h.12zm4.97 0h3.7l-1.84-3.7-1.84 3.7zm8.03-8.9-4.44-8.9h.12l-1.84-3.69-1.84 3.7h.12l-4.44 8.9h12.36zm.64-8.9h3.7l-1.85-3.69-1.84 3.7zm-17.34 0h3.7l-1.84-3.69-1.84 3.7zm24.5-23.83-4.45-8.9h.12l-4.44-8.9h.12L368.95 0h39.88l-4.45 8.9h.11l-4.45 8.9h.12l-4.45 8.9h.12l-6.94 13.87-6.93-13.88h.11zm4.98 0h3.7L388.9 23l-1.84 3.69zm8.03-8.9-4.45-8.9h.12l-1.84-3.7-1.84 3.69h.12l-4.44 8.9h12.36zm.64-8.9h3.7l-1.85-3.7-1.85 3.7zm-17.33 0h3.7l-1.85-3.7-1.84 3.69zm43.92 17.8-4.45-8.9h.12l-4.45-8.9h.12L409.17 0h39.88l-4.45 8.9h.11l-4.45 8.9h.11l-4.45 8.9h.12l-6.94 13.88-6.93-13.88h.11zm4.98 0h3.7l-1.85-3.7-1.84 3.69zm8.03-8.9-4.45-8.9h.11l-1.84-3.7-1.84 3.69h.12l-4.44 8.9h12.36zm.64-8.9h3.7l-1.85-3.7-1.84 3.69zm-17.33 0h3.7l-1.85-3.7-1.84 3.7zm24.5 59.43-4.44-8.9h.11l-4.44-8.9h.11l-4.45-8.9h39.88l-4.44 8.9h.12l-4.44 8.9h.12l-4.45 8.9h.11l-6.94 13.87L443 68.32h.11zm4.98 0h3.7l-1.85-3.7-1.84 3.69zm8.03-8.9-4.45-8.9h.12l-1.85-3.7-1.85 3.69h.12l-4.44 8.9h12.36zm.64-8.9h3.7l-1.85-3.7-1.85 3.69zm-17.34 0h3.7l-1.84-3.7-1.84 3.69zm24.5-23.84-4.44-8.9h.11l-4.44-8.9h.12L450.78 0h39.88l-4.45 8.9h.11l-4.45 8.9h.11l-4.45 8.9h.11l-6.94 13.87-6.93-13.88h.12zm4.98 0h3.7L470.71 23l-1.85 3.69zm8.02-8.9-4.44-8.9h.11l-1.85-3.7-1.84 3.69h.11l-4.44 8.9h12.36zm.64-8.9h3.7l-1.85-3.7-1.84 3.69zm-17.33 0h3.7l-1.86-3.7-1.84 3.7zM217.87 109.97l-4.45-8.9h.12l-4.45-8.9h.11l-4.44-8.9h39.87l-4.44 8.9h.1l-4.44 8.9h.11l-4.45 8.9h.12l-6.94 13.88-6.93-13.88h.11zm4.97 0h3.7l-1.85-3.7-1.84 3.7zm8.03-8.9-4.44-8.9h.1l-1.84-3.7-1.85 3.7h.12l-4.45 8.9h12.36zm.64-8.9h3.7l-1.85-3.7-1.84 3.7zm-17.33 0h3.69l-1.85-3.7-1.84 3.7zm24.5 59.43-4.45-8.9h.11l-4.45-8.9h.12l-4.45-8.9h39.88l-4.45 8.9h.1l-4.44 8.9h.1l-4.44 8.9h.1l-6.92 13.88-6.94-13.88h.1zm4.97 0h3.7l-1.84-3.7-1.84 3.7zm8.03-8.9-4.44-8.9h.11l-1.84-3.69-1.84 3.7h.11l-4.44 8.9h12.36zm.65-8.9h3.7l-1.84-3.69-1.84 3.7zm-17.33 0h3.7l-1.85-3.69-1.84 3.7zm24.5-23.83-4.44-8.9h.11l-4.45-8.9h.12l-4.44-8.9h39.88l-4.45 8.9h.12l-4.45 8.9h.12l-4.45 8.9h.11l-6.94 13.88-6.93-13.88h.12zm4.98 0h3.7l-1.84-3.7-1.85 3.7zm8.03-8.9-4.44-8.9h.11l-1.85-3.7-1.84 3.7h.11l-4.44 8.9h12.36zm.64-8.9h3.7l-1.85-3.7-1.85 3.7zm-17.33 0h3.7l-1.84-3.7-1.84 3.7zM176.78 26.7l-4.45-8.9h.12L168 8.9h.11L163.67 0h39.87l-4.44 8.9h.1l-4.44 8.9h.1l-4.44 8.9h.1l-6.92 13.88-6.94-13.88h.1zm4.98 0h3.69L183.6 23l-1.85 3.7zm8.02-8.9-4.44-8.9h.1l-1.84-3.7-1.84 3.7h.1l-4.44 8.9h12.37zm.64-8.9h3.7l-1.85-3.7-1.85 3.7zm-17.33 0h3.7l-1.85-3.7-1.85 3.7zm24.5 59.43-4.45-8.9h.1l-4.44-8.9h.1l-4.44-8.9h39.87l-4.45 8.9h.12l-4.45 8.9h.1l-4.44 8.9h.1l-6.91 13.88-6.94-13.88h.12zm4.97 0h3.7l-1.85-3.7-1.85 3.7zm8.03-8.9-4.45-8.9h.1l-1.84-3.69-1.85 3.7h.1l-4.44 8.9h12.36zm.64-8.9h3.69l-1.85-3.69-1.85 3.7zm-17.34 0h3.69l-1.85-3.69-1.85 3.7zm24.5-23.83-4.45-8.9h.1l-4.44-8.9h.1L205.28 0h39.88l-4.45 8.9h.11l-4.45 8.9h.11l-4.45 8.9h.12l-6.94 13.88-6.94-13.88h.12zm4.97 0h3.69L225.2 23l-1.85 3.7zm8.02-8.9-4.45-8.9h.1l-1.83-3.7-1.84 3.7h.1l-4.44 8.9h12.36zm.64-8.9h3.69l-1.85-3.7-1.84 3.7zm-17.34 0h3.69l-1.85-3.7-1.82 3.7zm43.92 17.8-4.45-8.9h.1l-4.44-8.9h.1L245.5 0h39.88l-4.45 8.9h.1l-4.44 8.9h.1l-4.44 8.9h.1l-6.93 13.88-6.94-13.88h.1zm4.97 0h3.69L265.4 23l-1.85 3.7zm8.02-8.9-4.45-8.9h.1l-1.84-3.7-1.84 3.7h.1l-4.44 8.9h12.36zm.64-8.9h3.69l-1.84-3.7-1.84 3.7zm-17.34 0h3.69l-1.85-3.7-1.83 3.7zm24.5 59.43-4.45-8.9h.1l-4.44-8.9h.1l-4.44-8.9h39.87l-4.45 8.9h.1l-4.44 8.9h.1l-4.44 8.9h.11l-6.93 13.88-6.93-13.88h.12zm4.97 0h3.69l-1.85-3.69-1.85 3.69zm8.02-8.9-4.45-8.9h.12l-1.85-3.69-1.85 3.7h.1l-4.44 8.9h12.36zm.64-8.9h3.69l-1.85-3.69-1.85 3.7zm-17.34 0h3.69l-1.85-3.69-1.84 3.7zM300.2 26.7l-4.45-8.9h.11l-4.45-8.9h.12L287.12 0h39.88l-4.45 8.9h.11l-4.44 8.9h.1l-4.44 8.9h.12l-6.93 13.88-6.93-13.88h.12zm4.97 0h3.7l-1.85-3.7-1.83 3.7zm8.03-8.9-4.45-8.9h.12l-1.84-3.7-1.83 3.7h.11l-4.44 8.9h12.36zm.64-8.9h3.7l-1.84-3.7-1.84 3.7zm-17.33 0h3.7l-1.85-3.7-1.84 3.7z"/>
    <path d="m217.87 109.97-4.45-8.9h.12l-4.45-8.9h.12l-4.44-8.9h39.88l-4.44 8.89h.12l-4.44 8.9h.11l-4.45 8.9h.12l-6.93 13.88-6.94-13.88h.12zm4.98 0h3.7l-1.85-3.7-1.84 3.7zm8.03-8.9-4.45-8.9h.1l-1.84-3.7-1.85 3.7h.1l-4.44 8.9h12.36zm.64-8.9h3.69l-1.85-3.7-1.84 3.7zm-17.34 0h3.7l-1.85-3.7-1.85 3.7zm24.5 59.43-4.45-8.89h.12l-4.44-8.9h.12l-4.44-8.9h39.88l-4.44 8.9h.11l-4.44 8.9h.12l-4.45 8.9h.11l-6.94 13.88-6.93-13.88h.11zm4.97 0h3.7l-1.85-3.69-1.85 3.7zm8.03-8.89-4.44-8.9h.11l-1.84-3.69-1.84 3.7h.11l-4.44 8.9h12.36zm.65-8.9h3.7l-1.84-3.69-1.84 3.7zm-17.33 0h3.7l-1.84-3.69-1.84 3.7zm24.5-23.83-4.44-8.9h.11l-4.44-8.9h.12l-4.44-8.9h39.88l-4.44 8.9h.12l-4.45 8.9h.12l-4.45 8.9h.11l-6.93 13.88-6.94-13.88h.12zm4.98 0h3.7l-1.85-3.69-1.85 3.7zm8.03-8.9-4.44-8.9h.11l-1.85-3.69-1.84 3.7h.11l-4.44 8.9h12.36zm.64-8.9h3.7L275 88.5l-1.85 3.7zm-17.33 0h3.7l-1.84-3.69-1.84 3.7zM176.8 26.7l-4.45-8.9h.12L168 8.9h.11L163.67 0h39.87l-4.44 8.9h.1l-4.44 8.9h.1l-4.44 8.9h.1l-6.92 13.88-6.94-13.88h.1zm4.98 0h3.7l-1.85-3.69-1.84 3.7zm8.03-8.9-4.45-8.9h.1l-1.84-3.69-1.85 3.7h.1l-4.44 8.9h12.36zm.64-8.9h3.69l-1.84-3.69-1.85 3.7zm-17.34 0h3.7l-1.85-3.69-1.85 3.69zm24.5 59.44-4.44-8.9h.11l-4.44-8.9h.11l-4.45-8.9h39.88l-4.45 8.9h.12l-4.45 8.9h.1l-4.44 8.89h.1l-6.93 13.87-6.94-13.88h.1zm4.98 0h3.69l-1.84-3.7-1.85 3.7zm8.03-8.9-4.45-8.9h.11l-1.84-3.7-1.85 3.69h.1l-4.44 8.9h12.36zm.64-8.9h3.7l-1.85-3.7-1.85 3.69zm-17.33 0h3.69l-1.85-3.7-1.84 3.69zM218.4 26.7l-4.45-8.9h.11l-4.45-8.9h.12L205.28 0h39.87l-4.45 8.9h.12l-4.45 8.9h.1l-4.44 8.9h.11l-6.93 13.88-6.94-13.88h.12zm4.98 0h3.69l-1.85-3.7-1.85 3.7zm8.02-8.9-4.44-8.9h.1l-1.83-3.7-1.85 3.7h.1l-4.44 8.9h12.36zm.64-8.9h3.7l-1.85-3.7-1.85 3.7zm-17.33 0h3.69l-1.85-3.7-1.85 3.7zm43.9 17.8-4.44-8.9h.1l-4.44-8.9h.1L245.5 0h39.88l-4.45 8.9h.1l-4.44 8.9h.1l-4.44 8.9h.1l-6.93 13.88-6.94-13.88h.1zm4.99 0h3.69l-1.85-3.7-1.85 3.7zm8.02-8.9-4.45-8.9h.1l-1.84-3.7-1.83 3.7h.11l-4.44 8.9h12.36zm.64-8.9h3.69l-1.85-3.7-1.85 3.7zm-17.34 0h3.69l-1.85-3.7-1.85 3.7zm24.49 59.43-4.45-8.9h.1l-4.44-8.9h.1l-4.44-8.9h39.88l-4.45 8.9h.1l-4.44 8.9h.1l-4.44 8.9h.1l-6.92 13.88-6.94-13.87h.1zm4.98 0h3.69l-1.85-3.7-1.85 3.7zm8.02-8.9-4.45-8.9h.1l-1.84-3.69-1.85 3.7h.1l-4.44 8.9h12.37zm.64-8.9h3.69l-1.85-3.69-1.84 3.7zm-17.34 0h3.69l-1.84-3.69-1.85 3.7zm24.5-23.83-4.45-8.9h.1l-4.43-8.9h.1L287.12 0h39.88l-4.45 8.9h.11l-4.44 8.9h.1l-4.44 8.9h.12l-6.93 13.88-6.93-13.88h.12zm4.97 0h3.69l-1.85-3.7-1.85 3.7zm8.02-8.9-4.45-8.9h.12l-1.85-3.7-1.82 3.7h.11l-4.44 8.9h12.36zm.64-8.9h3.69l-1.84-3.7-1.85 3.7zm-17.34 0h3.7l-1.85-3.7-1.85 3.7zm-78.66 435.53-4.44-8.9h.1l-4.44-8.9h.1l-4.44-8.9h39.87l-4.45 8.9h.1l-4.44 8.9h.1l-4.44 8.9h.1l-6.93 13.88-6.93-13.88h.1zm4.98 0h3.69l-1.84-3.7-1.85 3.7zm8.03-8.9-4.45-8.9h.1l-1.84-3.7-1.85 3.7h.1l-4.44 8.9h12.36zm.64-8.9h3.69l-1.85-3.7-1.85 3.7zm-17.34 0h3.69l-1.84-3.7-1.85 3.7zm24.5 59.44-4.45-8.9h.1l-4.44-8.9h.1l-4.44-8.9h39.88l-4.45 8.9h.1l-4.43 8.9h.1l-4.44 8.9h.12l-6.94 13.87-6.94-13.88h.1zm4.97 0h3.69l-1.85-3.7-1.85 3.7zm8.03-8.9-4.45-8.9h.1l-1.83-3.7-1.85 3.7h.1l-4.44 8.9h12.36zm.64-8.9h3.7l-1.85-3.7-1.85 3.7zm-17.34 0h3.69l-1.85-3.7-1.85 3.7zm24.5-23.84-4.45-8.9h.1l-4.44-8.9h.1l-4.44-8.9h39.88l-4.45 8.9h.1l-4.44 8.9h.1l-4.43 8.9h.1l-6.92 13.88-6.93-13.88h.11zm4.98 0h3.69l-1.85-3.7-1.85 3.7zm8.02-8.9-4.45-8.9h.1l-1.83-3.7-1.84 3.7h.1l-4.44 8.9h12.37zm.64-8.9h3.7l-1.84-3.7-1.85 3.7zm-17.33 0h3.69l-1.85-3.7-1.85 3.7zm-79-65.47-4.45-8.9h.1l-4.44-8.9h.1l-4.44-8.9h39.87l-4.44 8.9h.1l-4.44 8.9h.1l-4.44 8.9h.11l-6.94 13.88-6.93-13.88h.1zm4.97 0h3.69l-1.85-3.7-1.85 3.7zm8.03-8.9-4.45-8.9h.1l-1.84-3.7-1.85 3.7h.1l-4.43 8.9h12.36zm.64-8.9h3.69l-1.84-3.7-1.85 3.7zm-17.34 0h3.69l-1.85-3.7-1.85 3.7zm24.5 59.43-4.45-8.9h.1l-4.44-8.9h.1l-4.44-8.9h39.88l-4.44 8.9h.1l-4.44 8.9h.11l-4.45 8.9h.11l-6.93 13.88-6.94-13.88h.12zm4.98 0h3.69l-1.84-3.69-1.85 3.69zm8.02-8.9-4.45-8.9h.1l-1.83-3.69-1.85 3.7h.1l-4.44 8.9h12.36zm.64-8.9h3.69l-1.85-3.69-1.84 3.7zm-17.34 0h3.69l-1.85-3.69-1.85 3.7zm24.5-23.83-4.45-8.9h.1l-4.44-8.9h.11l-4.45-8.9h39.88l-4.45 8.9h.11l-4.45 8.9h.11l-4.44 8.9h.1l-6.92 13.88-6.94-13.88h.12zm4.97 0h3.69l-1.84-3.7-1.85 3.7zm8.03-8.9-4.45-8.9h.11l-1.84-3.7-1.85 3.7h.11l-4.44 8.9h12.36zm.64-8.9h3.7l-1.85-3.7-1.85 3.7zm-17.33 0h3.69l-1.85-3.7-1.85 3.7zm43.91 17.8-4.44-8.9h.11l-4.45-8.9h.11l-4.45-8.9h39.88l-4.45 8.9h.12l-4.45 8.9h.11l-4.45 8.9h.11l-6.94 13.88-6.93-13.88h.1zm4.98 0h3.7l-1.85-3.7-1.85 3.7zm8.03-8.9-4.45-8.9h.11l-1.85-3.7-1.85 3.7h.11l-4.44 8.9h12.36zm.64-8.9h3.7l-1.86-3.7-1.85 3.7zm-17.34 0h3.7l-1.86-3.7-1.85 3.7zm24.5 59.44-4.45-8.9h.11l-4.45-8.9h.11l-4.45-8.9h39.88l-4.45 8.9h.11l-4.45 8.9h.11l-4.45 8.9h.12l-6.94 13.87-6.93-13.87h.11zm4.97 0h3.7l-1.86-3.7-1.84 3.7zm8.02-8.9-4.45-8.9h.11l-1.84-3.7-1.85 3.7h.11l-4.45 8.9h12.36zm.64-8.9h3.7l-1.86-3.7-1.84 3.7zm-17.34 0h3.7l-1.85-3.7-1.85 3.7zm24.5-23.84-4.45-8.9h.11l-4.44-8.89h.12l-4.45-8.9H327l-4.45 8.9h.12l-4.45 8.9h.11l-4.45 8.9h.12l-6.94 13.88-6.93-13.88h.1zm4.98 0h3.7l-1.85-3.69-1.85 3.7zm8.03-8.9-4.45-8.89h.12l-1.85-3.69-1.85 3.7h.11l-4.45 8.9h12.36zm.64-8.89h3.7l-1.85-3.69-1.85 3.7zm-17.34 0h3.7l-1.85-3.69-1.85 3.7zM54.2 109.97l-4.45-8.9h.11l-4.45-8.9h.12l-4.45-8.9h39.88l-4.45 8.9h.1l-4.44 8.9h.1l-4.44 8.9h.1L61 123.85l-6.94-13.88h.11zm4.98 0h3.69l-1.85-3.7-1.85 3.7zm8.02-8.9-4.45-8.9h.11l-1.84-3.7-1.85 3.7h.12l-4.45 8.9h12.37zm.64-8.9h3.7l-1.85-3.7-1.85 3.7zm-17.34 0h3.7l-1.85-3.7-1.85 3.7zM75 151.6l-4.44-8.9h.11l-4.45-8.9h.11l-4.45-8.9h39.88l-4.45 8.9h.11l-4.45 8.9h.11l-4.45 8.9h.11l-6.93 13.88-6.94-13.88H75zm4.98 0h3.7l-1.86-3.69-1.85 3.7zm8.02-8.9-4.45-8.9h.11l-1.85-3.69-1.85 3.7h.11l-4.45 8.9H88zm.64-8.9h3.7l-1.86-3.69-1.85 3.7zm-17.34 0H75l-1.84-3.69-1.85 3.7zm24.5-23.83-4.46-8.9h.11L87 92.17h.11l-4.45-8.9h39.88l-4.45 8.9h.11l-4.45 8.9h.11l-4.45 8.9h.12l-6.94 13.88-6.93-13.88h.11zm4.96 0h3.7l-1.86-3.7-1.85 3.7zm8.02-8.9-4.45-8.9h.11l-1.85-3.7-1.85 3.7h.11l-4.45 8.9h12.36zm.64-8.9h3.7l-1.86-3.7-1.85 3.7zm-17.34 0h3.7l-1.85-3.7-1.85 3.7zM13.1 26.7l-4.44-8.9h.11L4.33 8.9h.11L0 0h39.88l-4.45 8.9h.11l-4.44 8.9h.1l-4.44 8.9h.12l-6.94 13.88-6.93-13.88h.12zm4.98 0h3.69L19.92 23l-1.84 3.7zm8.03-8.9-4.45-8.9h.1l-1.83-3.7-1.84 3.7h.11l-4.45 8.9h12.37zm.64-8.9h3.69L28.6 5.2l-1.84 3.7zM9.4 8.9h3.69l-1.84-3.7-1.84 3.7zm24.5 59.43-4.45-8.9h.11l-4.45-8.9h.11l-4.45-8.9h39.88l-4.45 8.9h.11l-4.44 8.9H52l-4.44 8.9h.11l-6.93 13.88-6.93-13.88h.1zm4.97 0h3.7l-1.85-3.7-1.84 3.7zm8.03-8.9-4.44-8.9h.12l-1.85-3.7-1.84 3.7h.1l-4.45 8.9h12.37zm.64-8.9h3.7l-1.85-3.69-1.85 3.7zm-17.33 0h3.7l-1.84-3.7-1.84 3.7zm24.5-23.83-4.44-8.9h.11l-4.45-8.9h.11L41.61 0h39.88l-4.45 8.9h.11l-4.45 8.9h.12l-4.45 8.9h.12l-6.94 13.88-6.93-13.88h.12zm4.98 0h3.7L61.55 23l-1.85 3.7zm8.03-8.9-4.45-8.9h.11l-1.84-3.7-1.85 3.7h.11l-4.44 8.9h12.36zm.64-8.9h3.7L70.2 5.2l-1.83 3.7zm-17.34 0h3.7l-1.86-3.7-1.84 3.7zm43.92 17.8-4.45-8.9h.12l-4.45-8.9h.11L81.83 0h39.88l-4.45 8.9h.12l-4.45 8.9h.11l-4.44 8.9h.12l-6.93 13.88-6.93-13.88h.11zm4.97 0h3.7l-1.85-3.7-1.85 3.7zm8.03-8.9-4.45-8.9h.12l-1.85-3.7-1.84 3.7h.1l-4.44 8.9h12.37zm.64-8.9h3.7l-1.85-3.7-1.85 3.7zm-17.33 0h3.69L93.1 5.2l-1.84 3.7zm24.5 59.43-4.45-8.9h.11l-4.45-8.9h.12l-4.45-8.9h39.88l-4.45 8.9h.11l-4.45 8.9h.12l-4.45 8.9h.11l-6.93 13.88-6.94-13.88h.11zm4.97 0h3.7l-1.85-3.7-1.85 3.7zm8.03-8.9-4.45-8.9h.11l-1.84-3.69-1.85 3.7h.11l-4.44 8.9h12.36zm.64-8.9h3.69l-1.85-3.69-1.85 3.7zm-17.34 0h3.69l-1.85-3.69-1.85 3.7zm24.5-23.83-4.45-8.9h.1l-4.44-8.9h.1L123.45 0h39.88l-4.45 8.9h.11l-4.44 8.9h.1l-4.44 8.9h.12l-6.94 13.88-6.93-13.88h.11zm4.97 0h3.69l-1.85-3.7-1.85 3.7zm8.03-8.9-4.45-8.9h.1l-1.84-3.7-1.84 3.7h.1l-4.44 8.9h12.36zm.64-8.9h3.69l-1.85-3.7-1.84 3.7zm-17.34 0h3.69l-1.85-3.7-1.84 3.7zM299.7 276.5l-4.45-8.9h.11l-4.44-8.9h.11l-4.44-8.9h39.87l-4.45 8.9h.11l-4.44 8.9h.11l-4.44 8.9h.1l-6.93 13.88-6.93-13.88h.1zm4.98 0h3.7l-1.85-3.7-1.85 3.7zm8.03-8.9-4.45-8.9h.11l-1.85-3.69-1.84 3.7h.1l-4.44 8.9h12.37zm.64-8.9h3.69l-1.85-3.69-1.84 3.7zm-17.34 0h3.7l-1.85-3.69-1.84 3.7zm24.5 59.44-4.45-8.9h.11l-4.44-8.9h.1l-4.44-8.9h39.88l-4.45 8.9h.1l-4.44 8.9h.1l-4.44 8.9h.1l-6.93 13.88-6.94-13.88h.1zm4.97 0h3.7l-1.85-3.7-1.85 3.7zm8.03-8.9-4.45-8.9h.12l-1.85-3.7-1.85 3.7h.11l-4.45 8.9h12.37zm.64-8.9h3.7l-1.86-3.7-1.84 3.7zm-17.34 0h3.7l-1.85-3.7-1.84 3.7zm24.5-23.84-4.45-8.9h.11l-4.44-8.9h.1l-4.44-8.9h39.87l-4.45 8.9h.1l-4.44 8.9h.1l-4.44 8.9h.1l-6.93 13.88-6.94-13.88h.1zm4.98 0h3.7l-1.85-3.7-1.85 3.7zm8.03-8.9-4.45-8.9h.11l-1.84-3.69-1.84 3.7h.12l-4.44 8.9h12.36zm.64-8.9h3.69l-1.85-3.69-1.84 3.7zm-17.34 0h3.7l-1.85-3.69-1.85 3.7zm-79-65.47-4.45-8.9h.11l-4.44-8.9h.11l-4.44-8.9h39.88l-4.45 8.9h.12l-4.45 8.9h.11l-4.44 8.9h.12l-6.93 13.88-6.93-13.88h.12zm4.97 0h3.7l-1.85-3.69-1.84 3.7zm8.03-8.9-4.45-8.9h.11l-1.84-3.69-1.84 3.7h.11l-4.44 8.9h12.37zm.64-8.9h3.7l-1.85-3.69-1.84 3.7zm-17.33 0h3.7l-1.85-3.69-1.84 3.7zm24.5 59.44-4.45-8.9h.12l-4.45-8.9h.12l-4.45-8.9h39.88l-4.45 8.9h.11l-4.45 8.9h.11l-4.44 8.9h.11l-6.93 13.88-6.93-13.88h.12zm4.98 0h3.7l-1.85-3.7-1.84 3.7zm8.03-8.9-4.44-8.9h.12l-1.85-3.7-1.84 3.7h.11l-4.45 8.9h12.37zm.64-8.9h3.7l-1.85-3.7-1.85 3.7zm-17.33 0h3.7l-1.85-3.7-1.84 3.7zm24.5-23.83-4.44-8.9h.11l-4.45-8.9h.11l-4.44-8.9H327l-4.45 8.9h.11l-4.45 8.9h.11l-4.45 8.9h.11l-6.93 13.88-6.93-13.88h.11zm4.98 0h3.7l-1.86-3.7-1.84 3.7zm8.03-8.9-4.44-8.9h.11l-1.85-3.7-1.85 3.7h.11l-4.44 8.9h12.36zm.64-8.9h3.7l-1.84-3.7-1.84 3.7zm-17.33 0h3.7l-1.84-3.7-1.85 3.7zm43.92 17.8-4.45-8.9h.12l-4.45-8.9h.12l-4.45-8.9h39.88l-4.45 8.9h.11l-4.44 8.9h.11l-4.44 8.9h.11l-6.93 13.88-6.93-13.88h.11zm4.98 0h3.7l-1.85-3.7-1.85 3.7zm8.03-8.9-4.45-8.9h.12l-1.85-3.7-1.84 3.7h.11l-4.45 8.9h12.36zm.64-8.9h3.7l-1.85-3.7-1.84 3.7zm-17.33 0h3.7l-1.86-3.7-1.85 3.7zm24.5 59.43-4.45-8.9h.12l-4.45-8.9h.12l-4.45-8.9h39.88l-4.45 8.9h.11l-4.44 8.9h.11l-4.44 8.9h.11l-6.93 13.88-6.94-13.88h.11zm4.97 0h3.7l-1.85-3.7-1.84 3.7zm8.03-8.9-4.44-8.9h.11l-1.84-3.7-1.85 3.7h.12l-4.44 8.9h12.36zm.65-8.9h3.7l-1.86-3.7-1.84 3.7zm-17.34 0h3.7l-1.85-3.7-1.85 3.7zm24.5-23.83-4.45-8.9h.11l-4.44-8.9h.11l-4.45-8.9h39.88l-4.45 8.9h.11l-4.45 8.9h.12l-4.44 8.9h.12l-6.93 13.88-6.94-13.88h.11zm4.97 0h3.7l-1.84-3.7-1.85 3.7zm8.03-8.9-4.45-8.9h.12l-1.84-3.7-1.85 3.7h.12l-4.44 8.9h12.36zm.64-8.9h3.7l-1.85-3.7-1.84 3.7zm-17.34 0h3.7l-1.85-3.7-1.84 3.7zM136.04 276.5l-4.45-8.9h.11l-4.44-8.9h.11l-4.45-8.9h39.88l-4.45 8.9h.12l-4.45 8.9h.11l-4.44 8.9h.12l-6.93 13.88-6.93-13.88h.11zm4.97 0h3.7l-1.85-3.7-1.85 3.7zm8.03-8.9-4.45-8.9h.12l-1.85-3.69-1.85 3.7h.12l-4.45 8.9h12.37zm.64-8.9h3.7l-1.85-3.69-1.85 3.7zm-17.33 0h3.69l-1.85-3.69-1.85 3.7zm24.5 59.44-4.45-8.9h.11l-4.45-8.9h.12l-4.45-8.9h39.87l-4.44 8.9h.11l-4.45 8.9h.12l-4.45 8.9h.1l-6.93 13.88-6.94-13.88h.1zm4.97 0h3.7l-1.85-3.7-1.85 3.7zm8.03-8.9-4.45-8.9h.11l-1.84-3.7-1.85 3.7h.11l-4.44 8.9h12.36zm.64-8.9h3.7l-1.86-3.7-1.84 3.7zm-17.34 0h3.7l-1.85-3.7-1.84 3.7zm24.5-23.84-4.44-8.9h.12l-4.44-8.9h.11l-4.44-8.9h39.88l-4.44 8.9h.12l-4.45 8.9h.12l-4.44 8.9h.11l-6.93 13.88-6.93-13.88h.12zm4.98 0h3.7l-1.84-3.7-1.84 3.7zm8.03-8.9-4.44-8.9h.11l-1.84-3.69-1.84 3.7h.12l-4.45 8.9h12.37zm.64-8.9h3.7l-1.84-3.69-1.84 3.7zm-17.33 0h3.7l-1.85-3.69-1.84 3.7zm-79-65.47-4.45-8.9h.12l-4.44-8.9h.11l-4.44-8.9h39.88l-4.45 8.9h.11l-4.45 8.9h.11l-4.44 8.9h.11l-6.94 13.88-6.93-13.88h.11zm4.97 0h3.7l-1.85-3.69-1.84 3.7zm8.03-8.9-4.44-8.9h.11l-1.84-3.69-1.84 3.7h.12l-4.45 8.9H108zm.64-8.9h3.7l-1.84-3.69-1.84 3.7zm-17.34 0h3.7l-1.84-3.69-1.84 3.7zm24.5 59.44-4.44-8.9h.12l-4.44-8.9h.11l-4.44-8.9h39.88l-4.44 8.9h.11l-4.44 8.9h.12l-4.44 8.9h.11l-6.93 13.88-6.93-13.88h.12zm4.98 0h3.7l-1.84-3.7-1.84 3.7zm8.03-8.9-4.45-8.9h.12l-1.84-3.7-1.85 3.7h.12l-4.44 8.9h12.36zm.64-8.9h3.7l-1.85-3.7-1.84 3.7zm-17.34 0h3.7l-1.84-3.7-1.84 3.7zm24.5-23.83-4.45-8.9h.12l-4.45-8.9h.12l-4.44-8.9h39.88l-4.44 8.9h.11l-4.44 8.9h.11l-4.44 8.9h.12l-6.94 13.88-6.93-13.88h.11zm4.98 0h3.7l-1.85-3.7-1.84 3.7zm8.03-8.9-4.44-8.9h.11l-1.84-3.7-1.84 3.7h.11l-4.44 8.9h12.36zm.64-8.9h3.7l-1.84-3.7-1.85 3.7zm-17.33 0h3.7l-1.85-3.7-1.84 3.7zm43.92 17.8-4.45-8.9h.12l-4.45-8.9h.11l-4.45-8.9h39.88l-4.44 8.9h.12l-4.45 8.9h.11l-4.45 8.9h.12l-6.93 13.88-6.93-13.88h.11zm4.98 0h3.7l-1.84-3.7-1.85 3.7zm8.03-8.9-4.44-8.9h.11l-1.84-3.7-1.84 3.7h.12l-4.44 8.9h12.36zm.64-8.9h3.7l-1.85-3.7-1.84 3.7zm-17.33 0h3.7l-1.85-3.7-1.85 3.7zm24.5 59.43-4.46-8.9h.11l-4.44-8.9h.11l-4.45-8.9h39.88l-4.45 8.9h.12l-4.44 8.9h.11l-4.45 8.9h.11l-6.93 13.88-6.93-13.88h.11zm4.97 0h3.7l-1.85-3.7-1.85 3.7zm8.03-8.9-4.45-8.9h.11l-1.84-3.7-1.84 3.7h.11l-4.44 8.9h12.36zm.64-8.9h3.7l-1.86-3.7-1.85 3.7zm-17.34 0h3.7l-1.86-3.7-1.84 3.7zm24.5-23.83-4.45-8.9h.11l-4.44-8.9h.12l-4.45-8.9h39.87l-4.44 8.9h.11l-4.45 8.9h.12l-4.45 8.9h.12l-6.93 13.88-6.93-13.88h.11zm4.97 0h3.7l-1.86-3.7-1.84 3.7zm8.03-8.9-4.45-8.9h.11l-1.85-3.7-1.84 3.7h.11l-4.45 8.9h12.36zm.64-8.9h3.7l-1.86-3.7-1.85 3.7zm-17.34 0h3.7l-1.86-3.7-1.85 3.7z"/>
  </g>
</svg>
