<svg viewBox="0 0 491 500" xmlns="http://www.w3.org/2000/svg"><g fill="#f5f5f5" fill-rule="evenodd"><path d="m381.54 109.97-4.45-8.9h.12l-4.45-8.9h.11l-4.45-8.9h39.88l-4.45 8.89h.11l-4.44 8.9h.11l-4.44 8.9h.12l-6.93 13.87-6.93-13.88h.11zm4.97 0h3.7l-1.85-3.7-1.84 3.7zm8.03-8.9-4.44-8.9h.1l-1.84-3.7-1.84 3.7h.1l-4.44 8.9h12.37zm.64-8.9h3.7l-1.85-3.7zm-17.33 0h3.69l-1.85-3.7-1.85 3.7zm24.5 59.43-4.45-8.89h.11l-4.45-8.9h.12l-4.45-8.9h39.87l-4.44 8.9h.11l-4.45 8.9h.12l-4.45 8.9h.1l-6.93 13.88-6.94-13.88h.1zm4.97 0h3.7l-1.85-3.69-1.85 3.7zm8.03-8.89-4.45-8.9h.11l-1.84-3.69-1.85 3.7h.11l-4.44 8.9h12.36zm.64-8.9h3.7l-1.85-3.69-1.85 3.7zm-17.34 0h3.7l-1.84-3.69-1.84 3.7zm24.5-23.83-4.44-8.9h.12l-4.44-8.9h.12l-4.44-8.9h39.88l-4.44 8.9h.12l-4.45 8.9h.12l-4.44 8.9h.11l-6.97 13.88-6.93-13.88h.11zm4.98 0h3.7l-1.83-3.68-1.84 3.7zm8.03-8.9-4.44-8.9h.11l-1.83-3.68-1.84 3.7h.12l-4.45 8.9h12.37zm.64-8.9h3.7l-1.84-3.69-1.84 3.7zm-17.33 0h3.7l-1.85-3.69-1.84 3.7zm-79.02-65.48-4.45-8.9h.11l-4.44-8.9h.1l-4.43-8.9h39.88l-4.45 8.9h.12l-4.45 8.9h.11l-4.44 8.9h.12l-6.93 13.88-6.93-13.88h.11zm4.98 0h3.69l-1.85-3.7-1.85 3.7zm8.02-8.9-4.44-8.9h.1l-1.84-3.7-1.85 3.7h.1l-4.44 8.9h12.36zm.64-8.9h3.7l-1.85-3.7-1.84 3.7zm-17.33 0h3.69l-1.85-3.7-1.85 3.7zm24.5 59.43-4.45-8.9h.11l-4.44-8.9h.12l-4.45-8.9h39.88l-4.44 8.9h.11l-4.44 8.9h.12l-4.45 8.9h.12l-6.94 13.88-6.93-13.88h.12zm4.97 0h3.7l-1.84-3.7-1.84 3.7zm8.03-8.9-4.44-8.9h.12l-1.84-3.69-1.84 3.7h.12l-4.44 8.9h12.36zm.64-8.9h3.7l-1.85-3.69-1.84 3.7zm-17.34 0h3.7l-1.84-3.69-1.84 3.7zm24.5-23.83-4.45-8.9h.12l-4.44-8.9h.12l-4.46-8.9h39.88l-4.45 8.9h.11l-4.45 8.9h.12l-4.45 8.9h.12l-6.94 13.87-6.93-13.88h.11zm4.98 0h3.7l-1.84-3.7-1.84 3.69zm8.03-8.9-4.45-8.9h.12l-1.84-3.7-1.84 3.69h.12l-4.44 8.9h12.36zm.64-8.9h3.7l-1.85-3.7zm-17.33 0h3.7l-1.85-3.7-1.84 3.69zm43.92 17.8-4.45-8.9h.12l-4.45-8.9h.12l-4.47-8.9h39.88l-4.45 8.9h.11l-4.45 8.9h.11l-4.45 8.9h.12l-6.94 13.88-6.93-13.88h.11zm4.98 0h3.7l-1.85-3.7-1.84 3.69zm8.03-8.9-4.45-8.9h.11l-1.84-3.7-1.84 3.69h.12l-4.44 8.9h12.36zm.64-8.9h3.7l-1.85-3.7-1.84 3.69zm-17.33 0h3.7l-1.85-3.7-1.84 3.7zm24.5 59.43-4.44-8.9h.11l-4.44-8.9h.11l-4.45-8.9h39.88l-4.44 8.9h.12l-4.44 8.9h.12l-4.45 8.9h.11l-6.94 13.87-6.97-13.88h.11zm4.98 0h3.7l-1.85-3.7-1.84 3.69zm8.03-8.9-4.45-8.9h.12l-1.85-3.7-1.85 3.69h.12l-4.44 8.9h12.36zm.64-8.9h3.7l-1.85-3.7-1.85 3.69zm-17.34 0h3.7l-1.84-3.7-1.84 3.69zm24.5-23.84-4.44-8.9h.11l-4.44-8.9h.12l-4.5-8.89h39.88l-4.45 8.9h.11l-4.45 8.9h.11l-4.45 8.9h.11l-6.94 13.87-6.93-13.88h.12zm4.98 0h3.7l-1.9-3.69-1.85 3.69zm8.02-8.9-4.44-8.9h.11l-1.85-3.7-1.84 3.69h.11l-4.44 8.9h12.36zm.64-8.9h3.7l-1.85-3.7-1.84 3.69zm-17.33 0h3.7l-1.86-3.7zm-242.37 101.08-4.45-8.9h.12l-4.45-8.9h.11l-4.44-8.9h39.87l-4.44 8.9h.1l-4.44 8.9h.11l-4.45 8.9h.12l-6.94 13.88-6.93-13.88zm4.97 0h3.7l-1.85-3.7-1.84 3.7zm8.03-8.9-4.44-8.9h.1l-1.84-3.7-1.85 3.7h.12l-4.45 8.9zm.64-8.9h3.7l-1.85-3.7-1.84 3.7zm-17.33 0h3.69l-1.85-3.7zm24.5 59.43-4.45-8.9h.11l-4.45-8.9h.12l-4.45-8.9h39.88l-4.45 8.9h.1l-4.44 8.9h.1l-4.44 8.9h.1l-6.92 13.88-6.94-13.88h.1zm4.97 0h3.7l-1.84-3.7-1.84 3.7zm8.03-8.9-4.44-8.9h.11l-1.84-3.69-1.84 3.7h.11l-4.44 8.9h12.36zm.65-8.9h3.7l-1.84-3.69-1.84 3.7zm-17.33 0h3.7l-1.85-3.69-1.84 3.7zm24.5-23.83-4.44-8.9h.11l-4.45-8.9h.12l-4.44-8.9h39.88l-4.45 8.9h.12l-4.45 8.9h.12l-4.45 8.9h.11l-6.94 13.88-6.93-13.88h.12zm4.98 0h3.7l-1.84-3.7-1.85 3.7zm8.03-8.9-4.44-8.9h.11l-1.85-3.7-1.84 3.7h.11l-4.44 8.9h12.36zm.64-8.9h3.7l-1.85-3.7zm-17.33 0h3.7l-1.84-3.7-1.84 3.7zm-79.04-65.47-4.45-8.9h.12l-4.45-8.9h.11l-4.44-8.9h39.87l-4.44 8.9h.1l-4.44 8.9h.1l-4.44 8.9h.1l-6.92 13.88-6.94-13.88h.1zm4.98 0h3.69l-1.85-3.7-1.85 3.7zm8.02-8.9-4.44-8.9h.1l-1.84-3.7-1.84 3.7h.1l-4.44 8.9h12.37zm.64-8.9h3.7l-1.85-3.7zm-17.33 0h3.7l-1.85-3.7zm24.5 59.43-4.45-8.9h.1l-4.44-8.9h.1l-4.44-8.9h39.87l-4.45 8.9h.12l-4.45 8.9h.1l-4.44 8.9h.1l-6.91 13.88-6.94-13.88h.12zm4.97 0h3.7l-1.85-3.7zm8.03-8.9-4.45-8.9h.1l-1.84-3.69-1.85 3.7h.1l-4.44 8.9h12.36zm.64-8.9h3.69l-1.85-3.69-1.85 3.7zm-17.34 0h3.69l-1.85-3.69-1.85 3.7zm24.5-23.83-4.45-8.9h.1l-4.44-8.9h.1l-4.42-8.9h39.88l-4.45 8.9h.11l-4.45 8.9h.11l-4.45 8.9h.12l-6.94 13.88-6.94-13.88zm4.97 0h3.69l-1.85-3.7-1.85 3.7zm8.02-8.9-4.45-8.9h.1l-1.83-3.7-1.84 3.7h.1l-4.44 8.9zm.64-8.9h3.69l-1.85-3.7zm-17.34 0h3.69l-1.85-3.7-1.82 3.7zm43.92 17.8-4.45-8.9h.1l-4.44-8.9h.1l-4.41-8.9h39.88l-4.45 8.9h.1l-4.44 8.9h.1l-4.44 8.9h.1l-6.93 13.88-6.94-13.88h.1zm4.97 0h3.69l-1.86-3.7-1.85 3.7zm8.02-8.9-4.45-8.9h.1l-1.84-3.7-1.84 3.7h.1l-4.44 8.9h12.36zm.64-8.9h3.69l-1.84-3.7-1.84 3.7zm-17.34 0h3.69l-1.85-3.7-1.83 3.7zm24.5 59.43-4.45-8.9h.1l-4.44-8.9h.1l-4.44-8.9h39.87l-4.45 8.9h.1l-4.44 8.9h.1l-4.44 8.9h.11l-6.93 13.88-6.93-13.88h.12zm4.97 0h3.69l-1.85-3.69-1.85 3.69zm8.02-8.9-4.45-8.9h.12l-1.85-3.69-1.85 3.7h.1l-4.44 8.9h12.36zm.64-8.9h3.69l-1.85-3.69-1.85 3.7zm-17.34 0h3.69l-1.85-3.69-1.84 3.7zm24.52-23.83-4.45-8.9h.11l-4.45-8.9h.12l-4.41-8.9h39.88l-4.45 8.9h.11l-4.44 8.9h.1l-4.44 8.9h.12l-6.93 13.88-6.93-13.88h.12zm4.97 0h3.7l-1.85-3.7-1.83 3.7zm8.03-8.9-4.45-8.9h.12l-1.84-3.7-1.83 3.7h.11l-4.44 8.9h12.36zm.64-8.9h3.7l-1.84-3.7-1.84 3.7zm-17.33 0h3.7l-1.85-3.7-1.84 3.7z"/><path d="m217.87 109.97-4.45-8.9h.12l-4.45-8.9h.12l-4.44-8.9h39.88l-4.44 8.89h.12l-4.44 8.9h.11l-4.45 8.9h.12l-6.93 13.88-6.94-13.88h.12zm4.98 0h3.7l-1.85-3.7-1.84 3.7zm8.03-8.9-4.45-8.9h.1l-1.84-3.7-1.85 3.7h.1l-4.44 8.9h12.36zm.64-8.9h3.69l-1.85-3.7zm-17.34 0h3.7l-1.85-3.7zm24.5 59.43-4.45-8.89h.12l-4.44-8.9h.12l-4.44-8.9h39.88l-4.44 8.9h.11l-4.44 8.9h.12l-4.45 8.9h.11l-6.94 13.88-6.93-13.88h.11zm4.97 0h3.7l-1.85-3.69-1.85 3.7zm8.03-8.89-4.44-8.9h.11l-1.84-3.69-1.84 3.7h.11l-4.44 8.9h12.36zm.65-8.9h3.7l-1.84-3.69-1.84 3.7zm-17.33 0h3.7l-1.84-3.69-1.84 3.7zm24.5-23.83-4.44-8.9h.11l-4.44-8.9h.12l-4.44-8.9h39.88l-4.44 8.9h.12l-4.45 8.9h.12l-4.45 8.9h.11l-6.93 13.88-6.94-13.88h.12zm4.98 0h3.7l-1.85-3.69-1.85 3.7zm8.03-8.9-4.44-8.9h.11l-1.85-3.69-1.84 3.7h.11l-4.44 8.9h12.36zm.64-8.9h3.7l-1.85-3.68-1.85 3.7zm-17.33 0h3.7l-1.84-3.69-1.84 3.7zm-79.02-65.48-4.45-8.9h.12l-4.47-8.9h.11l-4.44-8.9h39.87l-4.44 8.9h.1l-4.44 8.9h.1l-4.44 8.9h.1l-6.92 13.88-6.94-13.88h.1zm4.98 0h3.7l-1.85-3.69-1.84 3.7zm8.03-8.9-4.45-8.9h.1l-1.84-3.69-1.85 3.7h.1l-4.44 8.9h12.36zm.64-8.9h3.69l-1.84-3.69-1.85 3.7zm-17.34 0h3.7l-1.85-3.69zm24.5 59.44-4.44-8.9h.11l-4.44-8.9h.11l-4.45-8.9h39.88l-4.45 8.9h.12l-4.45 8.9h.1l-4.44 8.89h.1l-6.93 13.87-6.94-13.88h.1zm4.98 0h3.69l-1.84-3.7zm8.03-8.9-4.45-8.9h.11l-1.84-3.7-1.85 3.69h.1l-4.44 8.9h12.36zm.64-8.9h3.7l-1.85-3.7-1.85 3.69zm-17.33 0h3.69l-1.85-3.7-1.84 3.69zm24.47-23.84-4.45-8.9h.11l-4.45-8.9h.12l-4.45-8.9h39.87l-4.45 8.9h.12l-4.45 8.9h.1l-4.44 8.9h.11l-6.93 13.88-6.94-13.88h.12zm4.98 0h3.69l-1.85-3.7-1.85 3.7zm8.02-8.9-4.44-8.9h.1l-1.83-3.7-1.85 3.7h.1l-4.44 8.9zm.64-8.9h3.7l-1.85-3.7zm-17.33 0h3.69l-1.85-3.7-1.85 3.7zm43.9 17.8-4.44-8.9h.1l-4.44-8.9h.1l-4.43-8.9h39.88l-4.45 8.9h.1l-4.44 8.9h.1l-4.44 8.9h.1l-6.93 13.88-6.94-13.88h.1zm4.99 0h3.69l-1.85-3.7-1.85 3.7zm8.02-8.9-4.45-8.9h.1l-1.84-3.7-1.83 3.7h.11l-4.44 8.9h12.36zm.64-8.9h3.69l-1.85-3.7-1.85 3.7zm-17.34 0h3.69l-1.85-3.7-1.85 3.7zm24.49 59.43-4.45-8.9h.1l-4.44-8.9h.1l-4.44-8.9h39.88l-4.45 8.9h.1l-4.44 8.9h.1l-4.44 8.9h.1l-6.92 13.88-6.94-13.87h.1zm4.98 0h3.69l-1.85-3.7-1.85 3.7zm8.02-8.9-4.45-8.9h.1l-1.84-3.69-1.85 3.7h.1l-4.44 8.9h12.37zm.64-8.9h3.69l-1.85-3.69-1.84 3.7zm-17.34 0h3.69l-1.84-3.69-1.85 3.7zm24.5-23.83-4.45-8.9h.1l-4.43-8.9h.1l-4.41-8.9h39.88l-4.45 8.9h.11l-4.44 8.9h.1l-4.44 8.9h.12l-6.93 13.88-6.93-13.88h.12zm4.97 0h3.69l-1.85-3.7-1.85 3.7zm8.02-8.9-4.45-8.9h.12l-1.85-3.7-1.82 3.7h.11l-4.44 8.9h12.36zm.64-8.9h3.69l-1.84-3.7zm-17.34 0h3.7l-1.85-3.7zm-78.66 435.53-4.44-8.9h.1l-4.44-8.9h.1l-4.44-8.9h39.87l-4.45 8.9h.1l-4.44 8.9h.1l-4.44 8.9h.1l-6.93 13.88-6.93-13.88h.1zm4.98 0h3.69l-1.84-3.7zm8.03-8.9-4.45-8.9h.1l-1.84-3.7-1.85 3.7h.1l-4.44 8.9h12.36zm.64-8.9h3.69l-1.85-3.7-1.85 3.7zm-17.34 0h3.69l-1.84-3.7zm24.5 59.44-4.45-8.9h.1l-4.44-8.9h.1l-4.44-8.9h39.88l-4.45 8.9h.1l-4.43 8.9h.1l-4.44 8.9h.12l-6.94 13.87-6.94-13.88h.1zm4.97 0h3.69l-1.85-3.7-1.85 3.7zm8.03-8.9-4.45-8.9h.1l-1.83-3.7-1.85 3.7h.1l-4.44 8.9h12.36zm.64-8.9h3.7l-1.85-3.7zm-17.34 0h3.69l-1.85-3.7-1.85 3.7zm24.5-23.84-4.45-8.9h.1l-4.44-8.9h.1l-4.44-8.9h39.88l-4.45 8.9h.1l-4.44 8.9h.1l-4.43 8.9h.1l-6.92 13.88-6.93-13.88h.11zm4.98 0h3.69l-1.85-3.7-1.85 3.7zm8.02-8.9-4.45-8.9h.1l-1.83-3.7-1.84 3.7h.1l-4.44 8.9h12.37zm.64-8.9h3.7l-1.84-3.7-1.85 3.7zm-17.33 0h3.69l-1.85-3.7-1.85 3.7zm-79-65.47-4.45-8.9h.1l-4.44-8.9h.1l-4.44-8.9h39.87l-4.44 8.9h.1l-4.44 8.9h.1l-4.44 8.9h.11l-6.94 13.88-6.93-13.88h.1zm4.97 0h3.69l-1.85-3.7-1.85 3.7zm8.03-8.9-4.45-8.9h.1l-1.84-3.7-1.85 3.7h.1l-4.43 8.9h12.36zm.64-8.9h3.69l-1.84-3.7zm-17.34 0h3.69l-1.85-3.7-1.85 3.7zm24.5 59.43-4.45-8.9h.1l-4.44-8.9h.1l-4.44-8.9h39.88l-4.44 8.9h.1l-4.44 8.9h.11l-4.45 8.9h.11l-6.93 13.88-6.94-13.88h.12zm4.98 0h3.69l-1.84-3.69zm8.02-8.9-4.45-8.9h.1l-1.83-3.69-1.85 3.7h.1l-4.44 8.9h12.36zm.64-8.9h3.69l-1.85-3.69-1.84 3.7zm-17.34 0h3.69l-1.85-3.69-1.85 3.7zm24.5-23.83-4.45-8.9h.1l-4.44-8.9h.11l-4.45-8.9h39.88l-4.45 8.9h.11l-4.45 8.9h.11l-4.44 8.9h.1l-6.92 13.88-6.94-13.88h.12zm4.97 0h3.69l-1.84-3.7zm8.03-8.9-4.45-8.9h.11l-1.84-3.7-1.85 3.7h.11l-4.44 8.9zm.64-8.9h3.7l-1.85-3.7zm-17.33 0h3.69l-1.85-3.7-1.85 3.7zm43.91 17.8-4.44-8.9h.11l-4.45-8.9h.11l-4.45-8.9h39.88l-4.45 8.9h.12l-4.45 8.9h.11l-4.45 8.9h.11l-6.94 13.88-6.93-13.88h.1zm4.98 0h3.7l-1.85-3.7zm8.03-8.9-4.45-8.9h.11l-1.85-3.7-1.85 3.7h.11l-4.44 8.9h12.36zm.64-8.9h3.7l-1.86-3.7-1.85 3.7zm-17.34 0h3.7l-1.86-3.7-1.85 3.7zm24.5 59.44-4.45-8.9h.11l-4.45-8.9h.11l-4.45-8.9h39.88l-4.45 8.9h.11l-4.45 8.9h.11l-4.45 8.9h.12l-6.94 13.87-6.93-13.87h.11zm4.97 0h3.7l-1.86-3.7zm8.02-8.9-4.45-8.9h.11l-1.84-3.7-1.85 3.7h.11l-4.45 8.9h12.36zm.64-8.9h3.7l-1.86-3.7zm-17.34 0h3.7l-1.85-3.7zm24.5-23.84-4.45-8.9h.11l-4.44-8.89h.12l-4.45-8.9h39.93l-4.45 8.9h.12l-4.45 8.9h.11l-4.45 8.9h.12l-6.94 13.88-6.93-13.88h.1zm4.98 0h3.7l-1.85-3.69-1.85 3.7zm8.03-8.9-4.45-8.89h.12l-1.85-3.69-1.85 3.7h.11l-4.45 8.9h12.36zm.64-8.89h3.7l-1.85-3.69-1.85 3.7zm-17.34 0h3.7l-1.85-3.69-1.85 3.7zm-242.29-233.4-4.45-8.9h.11l-4.45-8.9h.12l-4.45-8.9h39.88l-4.45 8.9h.1l-4.44 8.9h.1l-4.44 8.9h.1l-6.93 13.88-6.94-13.88h.11zm4.98 0h3.69l-1.85-3.7-1.85 3.7zm8.02-8.9-4.45-8.9h.11l-1.84-3.7-1.85 3.7h.12l-4.45 8.9h12.37zm.64-8.9h3.7l-1.85-3.7zm-17.34 0h3.7l-1.85-3.7zm24.5 59.43-4.44-8.9h.11l-4.45-8.9h.11l-4.45-8.9h39.88l-4.45 8.9h.11l-4.45 8.9h.11l-4.45 8.9h.11l-6.93 13.88-6.94-13.88zm4.98 0h3.7l-1.86-3.69-1.85 3.7zm8.02-8.9-4.45-8.9h.11l-1.85-3.69-1.85 3.7h.11l-4.45 8.9h12.38zm.64-8.9h3.7l-1.86-3.69-1.85 3.7zm-17.34 0h3.7l-1.84-3.69-1.85 3.7zm24.5-23.83-4.46-8.9h.11l-4.45-8.9h.11l-4.45-8.9h39.88l-4.45 8.9h.11l-4.45 8.9h.11l-4.45 8.9h.12l-6.94 13.88-6.93-13.88h.11zm4.96 0h3.7l-1.86-3.7-1.85 3.7zm8.02-8.9-4.45-8.9h.11l-1.85-3.7-1.85 3.7h.11l-4.45 8.9h12.36zm.64-8.9h3.7l-1.86-3.7-1.85 3.7zm-17.34 0h3.7l-1.85-3.7zm-78.98-65.47-4.44-8.9h.11l-4.44-8.9h.11l-4.44-8.9h39.88l-4.45 8.9h.11l-4.44 8.9h.1l-4.44 8.9h.12l-6.94 13.88-6.93-13.88h.12zm4.98 0h3.69l-1.85-3.7zm8.03-8.9-4.45-8.9h.1l-1.83-3.7-1.84 3.7h.11l-4.45 8.9h12.37zm.64-8.9h3.69l-1.84-3.7-1.84 3.7zm-17.35 0h3.69l-1.84-3.7-1.84 3.7zm24.5 59.43-4.45-8.9h.11l-4.45-8.9h.11l-4.45-8.9h39.88l-4.45 8.9h.11l-4.44 8.9h.13l-4.44 8.9h.11l-6.93 13.88-6.93-13.88h.1zm4.97 0h3.7l-1.85-3.7-1.84 3.7zm8.03-8.9-4.44-8.9h.12l-1.85-3.7-1.84 3.7h.1l-4.45 8.9h12.37zm.64-8.9h3.7l-1.85-3.69-1.85 3.7zm-17.33 0h3.7l-1.84-3.7-1.84 3.7zm24.5-23.83-4.44-8.9h.11l-4.45-8.9h.11l-4.43-8.9h39.88l-4.45 8.9h.11l-4.45 8.9h.12l-4.45 8.9h.12l-6.94 13.88-6.93-13.88h.12zm4.98 0h3.7l-1.84-3.7-1.85 3.7zm8.03-8.9-4.45-8.9h.11l-1.84-3.7-1.85 3.7h.11l-4.44 8.9zm.64-8.9h3.7l-1.86-3.7-1.83 3.7zm-17.34 0h3.7l-1.86-3.7zm43.92 17.8-4.45-8.9h.12l-4.45-8.9h.11l-4.44-8.9h39.88l-4.45 8.9h.12l-4.45 8.9h.11l-4.44 8.9h.12l-6.93 13.88-6.93-13.88h.11zm4.97 0h3.7l-1.85-3.7zm8.03-8.9-4.45-8.9h.12l-1.85-3.7-1.84 3.7h.1l-4.44 8.9h12.37zm.64-8.9h3.7l-1.85-3.7zm-17.33 0h3.69l-1.84-3.7-1.84 3.7zm24.5 59.43-4.45-8.9h.11l-4.45-8.9h.12l-4.45-8.9h39.88l-4.45 8.9h.11l-4.45 8.9h.12l-4.45 8.9h.11l-6.93 13.88-6.94-13.88h.11zm4.97 0h3.7l-1.85-3.7zm8.03-8.9-4.45-8.9h.11l-1.84-3.69-1.85 3.7h.11l-4.44 8.9h12.36zm.64-8.9h3.69l-1.85-3.69-1.85 3.7zm-17.34 0h3.69l-1.85-3.69-1.85 3.7zm24.5-23.83-4.45-8.9h.1l-4.44-8.9h.1l-4.41-8.9h39.88l-4.45 8.9h.11l-4.44 8.9h.1l-4.44 8.9h.12l-6.94 13.88-6.93-13.88h.11zm4.97 0h3.69l-1.85-3.7-1.85 3.7zm8.03-8.9-4.45-8.9h.1l-1.84-3.7-1.84 3.7h.1l-4.44 8.9h12.36zm.64-8.9h3.69l-1.85-3.7zm-17.34 0h3.69l-1.85-3.7zm166.85 267.6-4.45-8.9h.11l-4.44-8.9h.11l-4.44-8.9h39.87l-4.45 8.9h.11l-4.44 8.9h.11l-4.44 8.9h.1l-6.93 13.88-6.93-13.88h.1zm4.98 0h3.7l-1.85-3.7zm8.03-8.9-4.45-8.9h.11l-1.85-3.69-1.84 3.7h.1l-4.44 8.9h12.37zm.64-8.9h3.69l-1.85-3.69-1.84 3.7zm-17.34 0h3.7l-1.85-3.69-1.84 3.7zm24.5 59.44-4.45-8.9h.11l-4.44-8.9h.1l-4.44-8.9h39.88l-4.45 8.9h.1l-4.44 8.9h.1l-4.44 8.9h.1l-6.93 13.88-6.94-13.88h.1zm4.97 0h3.7l-1.85-3.7zm8.03-8.9-4.45-8.9h.12l-1.85-3.7-1.85 3.7h.11l-4.45 8.9zm.64-8.9h3.7l-1.86-3.7zm-17.34 0h3.7l-1.85-3.7-1.84 3.7zm24.5-23.84-4.45-8.9h.11l-4.44-8.9h.1l-4.44-8.9h39.87l-4.45 8.9h.1l-4.44 8.9h.1l-4.44 8.9h.1l-6.93 13.88-6.94-13.88h.1zm4.98 0h3.7l-1.85-3.7zm8.03-8.9-4.45-8.9h.11l-1.84-3.69-1.84 3.7h.12l-4.44 8.9h12.36zm.64-8.9h3.69l-1.85-3.69-1.84 3.7zm-17.34 0h3.7l-1.85-3.69-1.85 3.7zm-79-65.47-4.45-8.9h.11l-4.44-8.9h.11l-4.44-8.9h39.88l-4.45 8.9h.12l-4.45 8.9h.11l-4.44 8.9h.12l-6.93 13.88-6.93-13.88h.12zm4.97 0h3.7l-1.85-3.69-1.84 3.7zm8.03-8.9-4.45-8.9h.11l-1.84-3.69-1.84 3.7h.11l-4.44 8.9h12.37zm.64-8.9h3.7l-1.85-3.69-1.84 3.7zm-17.33 0h3.7l-1.85-3.69-1.84 3.7zm24.5 59.44-4.45-8.9h.12l-4.45-8.9h.12l-4.45-8.9h39.88l-4.45 8.9h.11l-4.45 8.9h.11l-4.44 8.9h.11l-6.93 13.88-6.93-13.88h.12zm4.98 0h3.7l-1.85-3.7-1.84 3.7zm8.03-8.9-4.44-8.9h.12l-1.85-3.7-1.84 3.7h.11l-4.45 8.9h12.37zm.64-8.9h3.7l-1.85-3.7zm-17.33 0h3.7l-1.85-3.7-1.84 3.7zm24.5-23.83-4.44-8.9h.11l-4.45-8.9h.11l-4.44-8.9h39.86l-4.45 8.9h.11l-4.45 8.9h.11l-4.45 8.9h.11l-6.93 13.88-6.93-13.88h.11zm4.98 0h3.7l-1.86-3.7zm8.03-8.9-4.44-8.9h.11l-1.85-3.7-1.85 3.7h.11l-4.44 8.9zm.64-8.9h3.7l-1.84-3.7-1.84 3.7zm-17.33 0h3.7l-1.84-3.7-1.85 3.7zm43.92 17.8-4.45-8.9h.12l-4.45-8.9h.12l-4.45-8.9h39.88l-4.45 8.9h.11l-4.44 8.9h.11l-4.44 8.9h.11l-6.93 13.88-6.93-13.88h.11zm4.98 0h3.7l-1.85-3.7zm8.03-8.9-4.45-8.9h.12l-1.85-3.7-1.84 3.7h.11l-4.45 8.9zm.64-8.9h3.7l-1.85-3.7-1.84 3.7zm-17.33 0h3.7l-1.86-3.7-1.85 3.7zm24.5 59.43-4.45-8.9h.12l-4.45-8.9h.12l-4.45-8.9h39.88l-4.45 8.9h.11l-4.44 8.9h.11l-4.44 8.9h.11l-6.93 13.88-6.94-13.88h.11zm4.97 0h3.7l-1.85-3.7-1.84 3.7zm8.03-8.9-4.44-8.9h.11l-1.84-3.7-1.85 3.7h.12l-4.44 8.9h12.36zm.65-8.9h3.7l-1.86-3.7zm-17.34 0h3.7l-1.85-3.7zm24.5-23.83-4.45-8.9h.11l-4.44-8.9h.11l-4.45-8.9h39.88l-4.45 8.9h.11l-4.45 8.9h.12l-4.44 8.9h.12l-6.93 13.88-6.94-13.88h.11zm4.97 0h3.7l-1.84-3.7-1.85 3.7zm8.03-8.9-4.45-8.9h.12l-1.84-3.7-1.85 3.7h.12l-4.44 8.9h12.36zm.64-8.9h3.7l-1.85-3.7-1.84 3.7zm-17.34 0h3.7l-1.85-3.7-1.84 3.7zm-242.38 101.06-4.45-8.9h.11l-4.44-8.9h.11l-4.45-8.9h39.88l-4.45 8.9h.12l-4.45 8.9h.11l-4.44 8.9h.12l-6.93 13.88-6.93-13.88h.11zm4.97 0h3.7l-1.85-3.7zm8.03-8.9-4.45-8.9h.12l-1.85-3.69-1.85 3.7h.12l-4.45 8.9h12.37zm.64-8.9h3.7l-1.85-3.69-1.85 3.7zm-17.33 0h3.69l-1.85-3.69-1.85 3.7zm24.5 59.44-4.45-8.9h.11l-4.45-8.9h.12l-4.45-8.9h39.87l-4.44 8.9h.11l-4.45 8.9h.12l-4.45 8.9h.1l-6.93 13.88-6.94-13.88h.1zm4.97 0h3.7l-1.85-3.7zm8.03-8.9-4.45-8.9h.11l-1.84-3.7-1.85 3.7h.11l-4.44 8.9zm.64-8.9h3.7l-1.86-3.7zm-17.34 0h3.7l-1.85-3.7-1.84 3.7zm24.5-23.84-4.44-8.9h.12l-4.44-8.9h.11l-4.44-8.9h39.88l-4.44 8.9h.12l-4.45 8.9h.12l-4.44 8.9h.11l-6.93 13.88-6.93-13.88h.12zm4.98 0h3.7l-1.84-3.7-1.84 3.7zm8.03-8.9-4.44-8.9h.11l-1.84-3.69-1.84 3.7h.12l-4.45 8.9h12.37zm.64-8.9h3.7l-1.84-3.69-1.84 3.7zm-17.33 0h3.7l-1.85-3.69-1.84 3.7zm-79-65.47-4.45-8.9h.12l-4.44-8.9h.11l-4.44-8.9h39.88l-4.45 8.9h.11l-4.45 8.9h.11l-4.44 8.9h.11l-6.94 13.88-6.93-13.88h.11zm4.97 0h3.7l-1.85-3.69-1.84 3.7zm8.03-8.9-4.44-8.9h.11l-1.84-3.69-1.84 3.7h.12l-4.45 8.9h12.37zm.64-8.9h3.7l-1.84-3.69-1.84 3.7zm-17.34 0h3.7l-1.84-3.69-1.84 3.7zm24.5 59.44-4.44-8.9h.12l-4.44-8.9h.11l-4.44-8.9h39.88l-4.44 8.9h.11l-4.44 8.9h.12l-4.44 8.9h.11l-6.93 13.88-6.93-13.88h.12zm4.98 0h3.7l-1.84-3.7-1.84 3.7zm8.03-8.9-4.45-8.9h.12l-1.84-3.7-1.85 3.7h.12l-4.44 8.9h12.36zm.64-8.9h3.7l-1.85-3.7-1.84 3.7zm-17.34 0h3.7l-1.84-3.7-1.84 3.7zm24.5-23.83-4.45-8.9h.12l-4.45-8.9h.12l-4.44-8.9h39.88l-4.44 8.9h.11l-4.44 8.9h.11l-4.44 8.9h.12l-6.94 13.88-6.93-13.88h.11zm4.98 0h3.7l-1.85-3.7-1.84 3.7zm8.03-8.9-4.44-8.9h.11l-1.84-3.7-1.84 3.7h.11l-4.44 8.9h12.36zm.64-8.9h3.7l-1.84-3.7-1.85 3.7zm-17.33 0h3.7l-1.85-3.7-1.84 3.7zm43.92 17.8-4.45-8.9h.12l-4.45-8.9h.11l-4.45-8.9h39.88l-4.44 8.9h.12l-4.45 8.9h.11l-4.45 8.9h.12l-6.93 13.88-6.93-13.88h.11zm4.98 0h3.7l-1.84-3.7-1.85 3.7zm8.03-8.9-4.44-8.9h.11l-1.84-3.7-1.84 3.7h.12l-4.44 8.9h12.36zm.64-8.9h3.7l-1.85-3.7-1.84 3.7zm-17.33 0h3.7l-1.85-3.7zm24.5 59.43-4.46-8.9h.11l-4.44-8.9h.11l-4.45-8.9h39.88l-4.45 8.9h.12l-4.44 8.9h.11l-4.45 8.9h.11l-6.93 13.88-6.93-13.88zm4.97 0h3.7l-1.85-3.7zm8.03-8.9-4.45-8.9h.11l-1.84-3.7-1.84 3.7h.11l-4.44 8.9h12.36zm.64-8.9h3.7l-1.86-3.7-1.85 3.7zm-17.34 0h3.7l-1.86-3.7zm24.5-23.83-4.45-8.9h.11l-4.44-8.9h.12l-4.45-8.9h39.87l-4.44 8.9h.11l-4.45 8.9h.12l-4.45 8.9h.12l-6.93 13.88-6.93-13.88h.11zm4.97 0h3.7l-1.86-3.7zm8.03-8.9-4.45-8.9h.11l-1.85-3.7-1.84 3.7h.11l-4.45 8.9h12.36zm.64-8.9h3.7l-1.86-3.7-1.85 3.7zm-17.34 0h3.7l-1.86-3.7-1.85 3.7z"/></g></svg>