<svg xmlns="http://www.w3.org/2000/svg" width="500" height="500">
  <g fill="#FFF" fill-rule="nonzero">
    <path d="M333.214 230.424c-3.297 2.22-8.244 3.885-14.29 3.885-9.343 0-18.137-1.11-26.931-3.885-2.198-.555-3.847-1.11-4.947-1.11-1.648 0-2.198 1.11-2.198 3.33v5.55c0 1.665.55 2.775 1.1 3.885.549.555 1.648 1.665 3.297 2.22 8.794 3.885 18.687 5.55 29.68 5.55 11.541 0 20.335-2.775 27.48-8.325 7.145-5.55 10.443-12.764 10.443-22.199 0-6.66-1.649-11.654-4.947-16.094-3.297-3.885-8.793-7.77-16.488-10.545l-15.39-6.104c-6.045-2.22-10.442-4.44-12.091-6.66-2.199-2.22-3.298-4.44-3.298-8.325 0-8.324 6.046-12.764 18.687-12.764 7.145 0 14.29 1.11 20.886 3.33 2.198.555 3.847 1.11 4.397 1.11 1.649 0 2.748-1.11 2.748-3.33v-5.55c0-1.665-.55-2.775-1.1-3.885-.549-1.11-1.648-1.665-3.297-2.22-8.244-2.775-16.489-4.44-24.733-4.44-10.443 0-19.237 2.775-25.832 7.77-6.595 4.995-9.893 12.21-9.893 20.534 0 12.765 7.145 22.2 21.435 27.749l16.489 6.105c5.496 2.22 8.793 3.884 10.992 6.104 2.198 2.22 2.748 4.44 2.748 7.77 0 4.44-1.649 8.325-4.947 10.544ZM244.848 150.784v74.767c-9.444 6.184-18.889 9.557-28.333 9.557-6.111 0-10.556-1.687-13.334-5.06-2.777-3.372-3.889-8.432-3.889-15.74v-63.524c0-2.811-1.11-3.935-3.888-3.935h-11.667c-2.778 0-3.889 1.124-3.889 3.935v69.708c0 9.557 2.222 17.427 7.222 22.486 5 5.06 12.222 7.87 21.667 7.87 12.778 0 25.555-4.497 37.778-13.491l1.11 6.746c0 1.686.556 2.248 1.667 2.81.556.563 1.667.563 3.334.563h8.333c2.778 0 3.889-1.125 3.889-3.936v-92.756c0-2.811-1.111-3.935-3.889-3.935h-11.667c-3.333 0-4.444 1.686-4.444 3.935ZM138.999 247.29h11.887c2.83 0 3.962-1.119 3.962-3.915v-69.892c0-9.505-2.264-16.774-7.358-21.807-5.095-5.032-11.887-7.827-21.51-7.827-13.019 0-26.604 4.473-39.623 13.978-4.528-9.505-13.018-13.978-25.471-13.978s-24.906 4.473-37.359 12.86l-1.132-6.15c0-1.678-.566-2.237-1.698-2.796-.566-.56-1.698-.56-2.83-.56H8.81c-2.83 0-3.962 1.119-3.962 3.914v92.818c0 2.795 1.132 3.914 3.962 3.914h11.887c2.83 0 3.962-1.119 3.962-3.914V168.45c9.623-5.592 19.246-8.947 29.434-8.947 5.66 0 9.623 1.678 11.887 5.033 2.264 3.355 3.962 7.828 3.962 14.537v64.301c0 2.796 1.132 3.914 3.963 3.914H85.79c2.83 0 3.963-1.118 3.963-3.914v-74.924c10.188-6.15 19.811-8.947 29.434-8.947 5.66 0 9.622 1.678 11.886 5.033 2.265 3.355 3.963 7.828 3.963 14.537v64.301c0 2.796 1.132 3.914 3.962 3.914ZM445.618 321.99c-61.394 25.891-128.42 38.837-189.25 38.837-90.12 0-177.422-24.765-247.827-65.853-1.127-.563-2.253-1.125-3.38-1.125-3.943 0-6.196 4.502-2.253 8.442 65.336 59.099 152.076 94.558 247.827 94.558 68.716 0 148.133-21.388 202.768-61.913 9.575-6.754 1.69-16.885-7.885-12.945ZM443.292 169.423c4.94-5.585 12.624-8.378 23.601-8.378 5.489 0 10.978.559 15.917 2.234 1.647.559 2.196.559 3.294.559 1.646 0 2.744-1.117 2.744-3.91v-5.585c0-1.675-.549-3.35-1.098-3.91-.549-.558-1.646-1.675-2.744-2.233-7.135-1.676-14.27-3.351-20.857-3.351-15.369 0-26.895 4.468-35.677 13.962-8.233 8.936-12.624 22.34-12.624 39.096 0 16.755 3.842 29.601 12.075 38.537 8.233 8.936 19.76 13.405 35.128 13.405 8.233 0 15.917-1.117 21.955-3.91 1.647-.559 2.744-1.117 3.293-2.234.549-.559.549-2.234.549-3.91v-5.585c0-2.792-1.098-3.91-2.744-3.91-.55 0-1.647 0-2.745.56-6.037 1.675-12.075 2.792-17.564 2.792-10.428 0-18.112-2.793-23.052-8.378-4.94-5.585-7.136-14.521-7.136-26.25v-2.792c.55-12.288 2.745-21.224 7.685-26.809Z"/>
    <path d="M466.984 375.099c29.211-24.665 37.076-75.676 30.897-83.524-2.81-3.363-16.291-6.726-33.143-6.726-17.976 0-39.323 3.923-55.614 15.135-5.055 3.363-3.932 7.847 1.124 7.287 17.414-2.242 56.736-6.727 64.04 2.242 6.74 8.97-7.865 45.966-14.606 62.222-1.685 5.045 2.247 6.727 7.302 3.364ZM390.048 147.849h-11.4c-2.714 0-3.8 1.11-3.8 3.888v92.223c0 2.777 1.086 3.889 3.8 3.889h11.4c2.714 0 3.8-1.112 3.8-3.89v-92.222c0-2.222-1.086-3.888-3.8-3.888ZM393.893 108.277c-2.363-2.286-5.909-3.428-10.045-3.428s-7.09 1.142-9.455 3.428c-2.363 2.286-3.545 5.143-3.545 8.572 0 3.428 1.182 6.857 3.545 8.571 2.364 2.286 5.319 3.429 9.455 3.429s7.09-1.143 9.455-3.429c2.363-2.286 3.545-5.143 3.545-8.571 0-3.429-.59-6.858-2.955-8.572Z"/>
  </g>
</svg>