<svg xmlns="http://www.w3.org/2000/svg" viewBox="0 0 500 500">
  <path fill="#fff" fill-rule="nonzero" d="M388.203 263.89c-.219-40.14 17.938-70.437 54.688-92.75-20.563-29.421-51.625-45.609-92.641-48.78-38.828-3.063-81.266 22.64-96.797 22.64-16.406 0-54.031-21.547-83.562-21.547C108.859 124.437 44 172.125 44 269.141c0 28.656 5.25 58.26 15.75 88.812 14 40.14 64.531 138.578 117.25 136.938 27.563-.657 47.031-19.579 82.906-19.579 34.781 0 52.828 19.579 83.563 19.579 53.156-.766 98.875-90.235 112.219-130.485-71.313-33.578-67.485-98.437-67.485-100.515ZM326.297 84.298c29.86-35.438 27.125-67.703 26.25-79.297-26.36 1.531-56.875 17.938-74.266 38.172-19.14 21.656-30.406 48.453-28 78.64 28.547 2.188 54.578-12.468 76.016-37.515Z"/>
</svg>