<svg xmlns="http://www.w3.org/2000/svg" viewBox="0 0 500 500">
  <g fill="#fff" fill-rule="nonzero">
    <path d="M422.925 274.425c0-95-77.425-172.425-172.425-172.425-95 0-172.425 77.425-172.425 172.425 0 43.938 16.625 85.975 46.787 118.037 4.038 4.276 10.688 4.513 15.2.476l18.525-17.575c4.276-4.038 4.513-10.688.476-14.963-21.85-23.275-33.963-53.912-33.963-85.737 0-69.113 56.287-125.4 125.4-125.4s125.4 56.287 125.4 125.4c0 32.062-12.112 62.462-33.962 85.737-4.038 4.275-3.8 10.925.475 14.963l18.524 17.575c4.275 4.037 11.163 3.8 15.2-.476 30.163-32.3 46.788-74.1 46.788-118.037"/>
    <path d="M488 273.475c0-23.512-3.563-46.55-10.45-68.875-1.9-5.462-7.838-8.55-13.3-6.887l-24.462 7.6c-5.7 1.662-8.788 7.6-7.125 13.3 5.462 17.812 8.312 36.1 8.312 54.862 0 33.25-9.025 65.55-25.888 94.05-3.087 4.988-1.424 11.638 3.8 14.488l21.85 13.062c4.988 3.088 11.638 1.425 14.725-3.563C476.837 356.125 488 315.275 488 273.476m-402.088 94.05c-16.862-28.263-25.887-60.8-25.887-94.05 0-18.763 2.85-37.288 8.313-54.863 1.662-5.7-1.425-11.638-7.125-13.3l-24.463-7.6c-5.7-1.663-11.637 1.425-13.3 6.887C16.563 226.925 13 249.963 13 273.475c0 41.8 11.4 82.65 32.538 118.275 3.087 4.988 9.5 6.65 14.725 3.563l21.85-13.063c4.987-3.087 6.65-9.738 3.8-14.725z"/>
  </g>
</svg>
