<svg xmlns="http://www.w3.org/2000/svg" viewBox="0 0 500 500">
  <path fill="#fff" fill-rule="nonzero" d="M304.638 495c-78.747 0-141.59-62.046-141.59-142.386a142.508 142.508 0 0 1 36.996-96.244L103.8 352.614l-50.511-50.51 108.596-107.392c14.7-14.7 22.254-33.81 22.254-54.88V5h71.193v134.832c0 41.364-14.7 76.358-43.344 105.003l-3.185 3.185a141.794 141.794 0 0 1 95.835-36.995c80.748 0 142.407 64.026 142.407 141.59A141.753 141.753 0 0 1 304.638 495Zm0-218.744c-43.344 0-77.154 35.79-77.154 76.358 0 41.752 34.198 77.175 77.175 77.175 42.814.159 77.68-34.361 77.95-77.175 0-42.16-35.014-76.358-77.97-76.358Z"/>
</svg>