<svg viewBox="0 0 500 500" xmlns="http://www.w3.org/2000/svg"><path d="m302.076 378.72h83.854v-25.402h-83.892v25.402zm-188.025 0h83.816v-25.402h-83.835v25.402h.076zm-94.051 0h83.854v-25.402h-83.854zm188.025 0h83.95v-25.402h-83.95zm188.12 0h83.855v-25.402h-83.854v25.402zm0-33.051h83.855v-25.306h-83.854v25.69-.384zm-188.1 0h84.14v-25.306h-84.16v25.69-.192zm-188.026 0h83.95v-25.306h-83.969v25.69-.192l.02-.192zm94.108 0h83.95v-25.306h-83.969v25.69l.039-.192zm188.409 0h83.95v-25.306h-84.334v25.69l.326-.192zm0-32.974h83.95v-25.306h-84.334v25.497h.326zm-187.93 0h83.567v-25.306h-84.065v25.497h.307l.192-.191zm-94.031 0h83.567v-25.306h-84.142v25.497h.307l.268-.191zm188.025 0h83.95v-25.306h-84.333v25.497h.306zm188.313 0h83.087v-25.306h-83.854v25.497h.517zm0-32.975h83.087v-25.516h-83.854v25.42h.517zm-188.026 0h83.625v-25.516h-84.334v25.42h.633zm-188.024 0h83.47v-25.516h-84.333v25.42h.575zm282.325 0h83.95v-25.516h-84.909v25.42h.844zm0-32.974h83.95v-25.496h-84.909v25.305h.844l.115.192zm-282.325 0h83.47v-25.306h-84.333v25.306zm188.024 0h83.95v-25.306h-84.812v25.306h.863zm188.026 0h83.087v-25.496h-83.854v25.459l.517-.039.25.077zm-188.888-33.185h83.95v-25.42h-83.95zm188.12-.038h83.855v-25.403h-83.854v25.402zm-188.12-33.032h83.95v-25.44h-83.95zm188.12 0h83.855v-25.44h-83.854v25.44zm0-33.07h83.855v-25.421h-83.854v25.42z" fill="#fff"/></svg>