<svg xmlns="http://www.w3.org/2000/svg" viewBox="0 0 500 500">
  <path fill="#fff" fill-rule="nonzero" d="M389.055 237.625H495V175.77H389.055v61.854Zm0-147.927v61.82H495v-61.82H389.055Zm0 233.992H495v-61.83H389.055v61.829ZM5 409.788h105.945v-61.82H5v61.82Zm128.004 0h105.937v-61.82H133.004v61.82Zm128.047 0h105.945v-61.82H261.059l-.008 61.82Zm128.004 0H495v-61.82H389.055v61.82ZM261.059 323.69h105.937v-61.83H261.059v61.829Zm-128.047 0h105.929v-61.83H133.004l.008 61.829Zm0-86.065h105.929V175.77H133.004l.008 61.854Z"/>
</svg>