<svg xmlns="http://www.w3.org/2000/svg" viewBox="0 0 500 500">
  <path fill="#fff" d="M302.076 378.72h83.854v-25.402h-83.892v25.402h.038zm-188.025 0h83.816v-25.402h-83.835v25.402h.076-.057zm-94.051 0h83.854v-25.402H20v25.402zm188.025 0h83.95v-25.402h-83.95v25.402zm188.12 0H480v-25.402h-83.854v25.402zm0-33.051H480v-25.306h-83.854v25.69-.384zm-188.1 0h84.14v-25.306h-84.16v25.69-.192l.02-.192zm-188.026 0h83.95v-25.306H20v25.69-.192l.02-.192zm94.108 0h83.95v-25.306h-83.969v25.69l.039-.192-.02-.192zm188.409 0h83.95v-25.306h-84.334v25.69l.326-.192.058-.192zm0-32.974h83.95v-25.306h-84.334v25.497h.326l.058-.191zm-187.93 0h83.567v-25.306h-84.065v25.497h.307l.192-.191zm-94.031 0h83.567v-25.306H20v25.497h.307l.268-.191zm188.025 0h83.95v-25.306h-84.333v25.497h.306l.077-.191zm188.313 0H480v-25.306h-83.854v25.497h.517l.25-.191zm0-32.975H480v-25.516h-83.854v25.42h.517l.25.096zm-188.026 0h83.625v-25.516h-84.334v25.42h.633l.076.096zm-188.024 0h83.47v-25.516H20v25.42h.575l.288.096zm282.325 0h83.95v-25.516h-84.909v25.42h.844l.115.096zm0-32.974h83.95V221.25h-84.909v25.305h.844l.115.192zm-282.325 0h83.47V221.44H20v25.306h.863zm188.024 0h83.95V221.44h-84.812v25.306h.863zm188.026 0H480V221.25h-83.854v25.459l.517-.039.25.077zm-188.888-33.185h83.95v-25.42h-83.95v25.42zm188.12-.038H480V188.12h-83.854v25.402zm-188.12-33.032h83.95v-25.44h-83.95v25.44zm188.12 0H480v-25.44h-83.854v25.44zm0-33.07H480V122h-83.854v25.42z"/>
</svg>
