<svg xmlns="http://www.w3.org/2000/svg" width="500" height="500">
  <g fill="#FFF" fill-rule="nonzero">
    <path d="M194.902 450.072c-12.549-3.465-29.636-9.062-37.913-12.793-30.703-13.593-67.815-43.977-65.679-54.105.267-2.665 9.612-10.66 20.291-17.857 10.68-7.196 18.956-13.593 18.69-13.86-.535-.266-12.816 1.067-27.233 2.933-20.559 2.931-28.835 3.198-35.777.8-6.14-2.133-18.956-2.4-38.18-1.067C9.346 355.19 0 354.923 0 353.057c0-1.6 9.345-8.795 20.825-15.992 14.684-9.594 22.16-16.258 25.364-22.92 2.67-5.331 11.214-14.127 21.092-21.323l23.495-17.057c6.408-4.798 6.14-4.798-16.82-1.066-29.903 5.064-35.777 3.73-38.18-8.796-2.402-12.526.534-46.375 5.607-66.631 5.607-22.122 25.364-60.768 40.583-79.691a215.78 215.78 0 0 1 114.27-70.896c19.49-4.53 29.37-5.33 52.063-4.264 34.442 1.599 52.864 6.396 84.636 21.855 25.898 12.793 58.737 40.512 73.956 62.367 7.208 10.128 7.208 10.927 2.67 16.79-2.403 3.466-12.282 12.527-21.627 20.257-18.689 14.925-18.155 15.991 4.54 9.861 17.888-4.797 35.776-5.064 39.514-.533 1.335 1.6 3.47 6.93 4.271 11.727 1.068 4.531 3.738 9.062 5.874 9.862 3.738 1.332 28.568-1.333 48.86-5.33 13.883-2.933 9.61 3.464-12.015 18.39-10.146 6.929-25.631 19.722-34.442 28.251-8.81 8.529-23.495 20.522-32.573 26.653-20.29 13.592-22.427 16.258-9.344 13.326 16.82-3.998 37.912-2.932 39.781 1.866 2.67 6.93-6.675 38.38-17.888 61.3-20.099 40.849-53.525 73.653-94.781 93.018a187.717 187.717 0 0 1-134.83 15.991Zm83.567-148.188 41.917-25.32c42.452-25.32 41.918-24.52 18.423-21.855-24.563 2.932-30.437.8-33.641-13.06l-2.403-10.128-18.155-1.332c-24.83-1.866-28.034-6.663-14.15-20.79 5.34-5.596 9.878-10.927 9.878-11.726 0-.8-5.34-3.998-12.014-7.196-24.296-11.461-61.14-3.998-76.36 15.191l-5.606 7.197 16.286.8c22.16 1.065 21.36 5.596-5.34 26.652-16.019 12.793-21.091 18.123-19.757 21.588 1.602 5.597-10.946 18.124-32.84 31.983-7.742 4.798-13.616 9.329-13.349 9.595 1.335 1.066 87.306-11.194 112.403-15.991 13.082-2.399 24.563-3.732 25.364-2.666 1.068.8-2.403 4.798-7.476 8.796-5.073 3.998-12.282 9.861-16.02 13.326l-6.674 6.13 12.815-1.066c8.544-.8 17.622-4.264 26.7-10.128Z"/>
    <path d="M233.388 252.487c-1.001-2.213 0-5.655 2.253-7.868 5.256-5.163 12.264-2.213 11.263 4.671-1.002 6.885-11.263 9.343-13.516 3.197Z"/>
  </g>
</svg>