<svg viewBox="0 0 500 500" xmlns="http://www.w3.org/2000/svg"><path d="m293.654 227.707c-2.247-4.365-4.977-8.545-8.63-12.2-3.612-3.597-7.78-6.37-12.186-8.66-6.854-3.553-14.404-5.643-22.338-5.643-13.04 0-25.295 5.076-34.51 14.29-15.37 15.37-18.114 38.46-8.63 56.832 2.247 4.365 4.977 8.545 8.63 12.2 3.627 3.625 7.864 6.313 12.33 8.517 18.298 9 41.887 6.298 56.703-8.518 15.37-15.37 18.115-38.46 8.63-56.832v.014zm-22.324 43.153c-5.744 5.76-13.294 8.632-20.844 8.632s-15.086-2.872-20.83-8.63c-11.518-11.504-11.518-30.173 0-41.676 5.744-5.758 13.294-8.63 20.83-8.63s15.086 2.87 20.844 8.63c11.518 11.503 11.518 30.172 0 41.675zm140.04-181.23c-42.967-42.97-100.1-66.63-160.87-66.63s-117.902 23.66-160.87 66.63c-42.97 42.967-66.63 100.1-66.63 160.87s23.66 117.902 66.63 160.87c42.967 42.97 100.1 66.63 160.87 66.63s117.902-23.66 160.87-66.63c42.97-42.967 66.63-100.1 66.63-160.87s-23.66-117.902-66.63-160.87zm-204.777 225.152c6.754 4.593 14.233 7.792 22.04 10.053l-40.922 106.03c-22.46-7.78-43.35-19.694-61.72-35.477l80.61-80.608zm-101.45 59.76c-15.783-18.37-27.698-39.257-35.476-61.722l106.072-40.935c2.23 7.707 5.41 15.17 10.05 22.01l-80.64 80.65h-.014zm112.186-70.51c-4.2-2.587-8.19-5.502-11.76-9.07-3.6-3.613-6.53-7.594-9.09-11.76-15.018-24.485-12.1-56.932 9.083-78.103 12-12 27.952-18.62 44.93-18.62 11.93 0 23.275 3.426 33.17 9.54 4.196 2.59 8.19 5.503 11.76 9.072 3.61 3.596 6.51 7.59 9.086 11.757 15.015 24.485 12.1 56.932-9.086 78.104-12 12-27.952 18.612-44.93 18.612-11.93 0-23.26-3.427-33.17-9.54zm55.41-128.708 40.9-106.014c22.335 7.792 43.095 19.65 61.37 35.362l-80.609 80.608c-6.655-4.53-14.006-7.67-21.67-9.94v-.02zm42.48 30.813 80.65-80.65c15.71 18.272 27.57 39.045 35.36 61.37l-106.06 40.935c-2.232-7.58-5.375-14.916-9.94-21.656h-.013z" fill="currentColor"/></svg>