<svg fill="currentColor" role="img" viewBox="0 0 24 24" xmlns="http://www.w3.org/2000/svg"><title>Ektoplazm</title><path d="M1.133 8.908a.2.2 0 0 1-.084.022c-.067 0-.326.13-.461.234-1.03.785-.583 2.446.7 2.595.144.015.155.033.155.226 0 .183-.02.223-.109.223a.5.5 0 0 0-.121.02c-.038.011-.113.034-.169.049-.7.195-1.2 1.055-.999 1.713.013.037.038.124.058.192.237.833 1.845 1.332 1.867.578.007-.268.002-.274-.19-.206-.461.164-1.017-.126-1.19-.622-.233-.67.512-1.387 1.19-1.145.208.073.195.132.195-.79 0-.916.013-.86-.184-.797-.703.235-1.442-.494-1.194-1.176.093-.248.359-.505.6-.574l.206-.06a.4.4 0 0 1 .144-.01c.15.03.244.055.3.081.112.054.128.027.128-.228 0-.257-.007-.268-.153-.319-.096-.033-.64-.038-.69-.006m1.8.004c-.038.038-.038 6.112 0 6.15.035.035.398.035.434 0 .02-.02.026-.197.026-.663 0-.724.003-.73.151-.651.23.126.292.308.292.86 0 .51-.015.48.269.48.283 0 .268.036.257-.534-.014-.7-.07-.877-.333-1.05q-.115-.074.005-.161c.135-.1.248-.31.296-.548.034-.163.047-3.839.014-3.879s-.441-.044-.48-.004c-.02.02-.028.472-.028 1.9 0 2.176.012 2.076-.257 2.287-.183.146-.175.248-.181-2.063-.002-1.5-.011-2.1-.029-2.122-.033-.038-.399-.04-.436-.002m2.614 0c-.02.02-.027.281-.027 1.037 0 1.079.002 1.063-.11 1.063-.096 0-.111.036-.111.266s.015.266.113.266c.108 0 .106-.01.115 1.176.009 1.28.01 1.298.181 1.637.233.463.698.849.836.691a1.7 1.7 0 0 0 .195-.39c0-.017-.062-.08-.138-.137-.228-.173-.465-.472-.496-.629a1 1 0 0 0-.031-.124c-.033-.104-.029-2.164.004-2.198.018-.017.124-.026.328-.026.368 0 .355.009.355-.266s.013-.266-.355-.266c-.396 0-.354.124-.354-1.063 0-.756-.007-1.017-.027-1.037-.035-.036-.443-.036-.478 0m2.864.013c-.354.217-.345.698.013.88a.499.499 0 0 0 .674-.676c-.113-.224-.476-.332-.687-.204m.388.306c.18.204-.073.452-.277.272-.104-.093-.104-.175-.002-.276.104-.105.184-.102.279.004m2.193-.292a.87.87 0 0 0-.43.556c-.03.166-.044 5.525-.01 5.562.032.04.44.045.48.005.02-.02.026-.209.026-.707 0-.747.003-.764.125-.709.292.133.715-.137.815-.518.03-.122.03-3.534 0-3.656-.12-.454-.634-.726-1.006-.533m.392.505c.122.135.118.057.118 1.834s.004 1.7-.118 1.832c-.062.07-.128.064-.208-.022-.122-.129-.118-.053-.118-1.81s-.004-1.682.118-1.812c.08-.084.146-.091.208-.022m1.56-.528c-.033.04-.02 4.859.015 5.054.045.25.065.312.149.476.379.727 1.783.964 1.8.303.007-.263-.008-.292-.123-.237-.477.226-1.115-.055-1.256-.551l-.058-.193c-.011-.04-.02-1.017-.02-2.448 0-1.823-.007-2.388-.027-2.408-.04-.04-.447-.036-.48.004m3.316.007c-.05.06-.195.354-.195.401 0 .05.049.095.169.155.252.129.46.44.507.762.015.106.015.106-.224.106-.272 0-.308.014-.472.18a.8.8 0 0 0-.21.363c-.031.122-.031 3.534 0 3.658.11.434.321.54 1.059.54.62 0 .62 0 .531-.133-.104-.157-.106-.164-.121-2.459-.016-2.21-.023-2.386-.105-2.627-.181-.54-.773-1.134-.939-.946m.403 1.967c.111.118.111.111.111 1.835 0 1.597 0 1.612-.046 1.705-.096.189-.187.222-.29.111-.11-.12-.107-.064-.107-1.823 0-1.188.007-1.68.024-1.713.087-.166.215-.214.308-.115m1.555-1.978c-.037.038-.035.403.003.436.02.016.188.027.46.03.475.006.472.004.4.431l-.092.532c-.01.077-.03.2-.044.272-.011.073-.033.195-.044.27a70 70 0 0 0-.133.794l-.044.266-.045.265-.044.266-.044.266-.045.266c-.01.073-.033.195-.044.27l-.044.266c-.014.07-.031.188-.045.261l-.044.266-.044.266c-.011.073-.031.19-.044.26-.04.247-.065.456-.054.476.02.03 1.414.022 1.445-.01.035-.035.035-.398 0-.433-.018-.018-.138-.027-.397-.027-.407 0-.438-.009-.407-.126.006-.036.024-.12.035-.19l.042-.26c.013-.073.033-.193.044-.266.014-.073.034-.193.045-.266.013-.073.033-.192.044-.266.013-.073.033-.195.044-.272a33 33 0 0 0 .089-.52c.029-.176.06-.368.089-.532.01-.069.03-.189.044-.266.011-.076.033-.2.044-.277l.044-.266c.014-.069.034-.186.045-.26.013-.072.033-.192.044-.265.013-.073.033-.193.044-.266.014-.073.034-.193.045-.266.013-.073.033-.192.044-.266.013-.073.033-.192.044-.265.031-.182.062-.373.08-.472.027-.153.047-.149-.786-.149-.552 0-.754.007-.774.027m2.393 0c-.038.038-.038 6.112 0 6.15.036.035.443.035.479 0 .02-.02.026-.6.026-2.475.002-2.68-.004-2.547.13-2.789.094-.17.402-.381.555-.381.037 0 .09-.011.122-.024.13-.06.124-.17.124 2.126 0 1.602.006 2.105.026 2.125.038.038.403.035.437-.002.017-.022.026-.525.03-1.724.01-1.65.014-1.777.08-1.996.058-.184.304-.412.505-.47l.202-.06c.148-.046.137-.26.137 2.836 0 2.154.007 2.814.027 2.834.035.035.443.035.479 0 .048-.049.037-6.028-.012-6.073-.104-.093-.531-.141-.73-.081-.04.01-.111.033-.156.044a2 2 0 0 0-.274.115c-.229.109-.264.102-.264-.033 0-.233-.755-.195-1.26.062-.138.068-.158.06-.158-.064 0-.138-.394-.23-.505-.12m-19.369.96c-.19.099-.323.351-.268.506a.4.4 0 0 1 .027.118c0 .281.576.423.815.202.423-.395-.062-1.093-.574-.827m.377.332c.168.193-.104.44-.29.262a.197.197 0 0 1 .14-.339c.066 0 .095.015.15.077m6.67-.08q-.456.176-.571.515c-.06.172-.036 2.663.026 2.784.178.348.738.6 1.1.494l.179-.048c.203-.056.531-.348.562-.503.007-.033.022-.091.034-.129.04-.122.028-2.417-.012-2.53-.177-.505-.802-.782-1.318-.582m.499.476a.63.63 0 0 1 .279.242c.053.09.066 2.128.013 2.281-.137.39-.766.36-.866-.046-.042-.169-.042-2.016 0-2.151.08-.257.341-.406.574-.326m-7.555 2.623c-.451.277-.283.935.24.935.427 0 .662-.463.396-.787-.15-.183-.458-.257-.636-.148m.322.26c.192.099.16.347-.054.4-.077.018-.234-.122-.234-.21 0-.131.177-.248.288-.19m12.59-.24c-.182.124-.25.241-.25.428 0 .45.566.669.868.336.378-.42-.156-1.079-.619-.764m.375.288c.11.108.11.17-.002.281-.162.16-.42-.033-.31-.232.07-.135.203-.155.312-.05m-6.028.615c-.093.028-.312.245-.312.308a.4.4 0 0 1-.027.117c-.137.383.55.729.846.423.375-.385-.002-1.012-.507-.848m.306.356c.168.193-.104.439-.29.262a.197.197 0 0 1 .139-.34c.066 0 .095.016.15.078m13.306-.34c-.328.123-.42.548-.18.812.149.166.588.166.736 0 .366-.399-.049-1.006-.556-.813m.326.324c.128.121.04.338-.138.338a.204.204 0 0 1-.2-.197c0-.18.21-.266.338-.141"/></svg>