<svg viewBox="0 0 500 500" xmlns="http://www.w3.org/2000/svg"><g fill="#fff"><path d="m353.41 25h-206.82c-67.046 0-121.59 54.545-121.59 121.59v206.82c0 67.046 54.545 121.59 121.59 121.59h206.82c67.046 0 121.59-54.545 121.59-121.59v-206.82c0-67.046-54.545-121.59-121.59-121.59zm85.235 328.41c0 47-38.235 85.235-85.234 85.235h-206.821c-47 0-85.235-38.235-85.235-85.234v-206.821c0-47 38.235-85.235 85.234-85.235h206.82c47 0 85.23 38.235 85.23 85.234v206.82z"/><path d="m351.582 237.146c-3.227-21.575-13.153-41.13-28.706-56.55-15.553-15.422-35.273-25.266-57.03-28.464-9.906-1.457-19.95-1.457-29.855 0-26.88 3.954-50.61 18.053-66.8 39.702-16.19 21.648-22.91 48.254-18.93 74.915 3.99 26.66 18.21 50.18 40.04 66.24 17.73 13.03 38.74 19.88 60.41 19.88 5.02 0 10.08-.37 15.14-1.11 26.89-3.96 50.62-18.06 66.81-39.7 16.2-21.65 22.92-48.26 18.93-74.92zm-91.115 78.654c-17.2 2.533-34.364-1.734-48.33-12.006-13.967-10.272-23.063-25.322-25.613-42.377s1.748-34.075 12.107-47.924c10.36-13.85 25.54-22.87 42.74-25.398 3.17-.466 6.36-.7 9.55-.7s6.38.234 9.55.7c28.57 4.2 50.61 26.056 54.85 54.385 5.27 35.207-19.34 68.1-54.84 73.32zm117.23-189.563c-3.414-3.385-8.14-5.325-12.963-5.325-4.824 0-9.55 1.94-12.963 5.325-3.41 3.385-5.37 8.063-5.37 12.854 0 4.79 1.96 9.47 5.37 12.86 3.42 3.39 8.14 5.33 12.97 5.33s9.55-1.94 12.97-5.32c3.415-3.386 5.37-8.07 5.37-12.854 0-4.782-1.955-9.47-5.37-12.852z"/></g></svg>