<svg xmlns="http://www.w3.org/2000/svg" viewBox="0 0 500 500">
  <path fill="#fff" d="M43.189 416.488c3.94 2.19 10.07 2.19 16.199 2.19 14.447 0 28.457-3.942 28.457-24.529V121.704h71.799V400.28c0 53.438-20.577 79.719-94.127 79.719-8.318 0-16.199 0-24.517-2.19 2.189 0 2.189-61.322 2.189-61.322zM159.644 80.53H88.282V20.96h71.8v59.57h-.438zM443.011 329.346c-22.405 41.187-55.354 61.343-102.8 61.343-78.2 0-112.906-63.534-112.906-137.146 0-77.994 36.903-139.337 117.299-139.337 43.053 0 84.35 24.537 96.65 65.725V20h18.452v364.555h-18.452v-55.21h1.757zm-2.196-73.612c0-61.344-30.753-120.934-98.408-120.934-69.852 0-98.408 57.4-98.408 120.934 0 61.343 30.752 120.934 98.408 120.934 67.655 0 98.408-61.344 98.408-120.934z"/>
</svg>
