<svg xmlns="http://www.w3.org/2000/svg" viewBox="0 0 500 500">
  <g fill="#fff" fill-rule="nonzero">
    <path d="M296.816 348.655c-13.388 12.615-30.139 22.188-46.884 28.278-18.418-6.09-33.491-15.657-46.89-28.278h93.774"/>
    <path d="M107.599 95.974c35.164-39.145 85.4-63.499 142.333-63.499 56.939 0 107.169 24.36 142.332 63.499 15.073-3.913 30.151-6.525 46.89-6.955v63.934c23.438 15.221 40.189 42.617 40.189 73.5 0 30.885-16.751 57.845-40.188 73.072l-1.679 1.73c-10.042 93.941-90.418 166.136-187.544 166.136-98.794 0-179.17-73.5-189.218-167.872-23.442-15.227-40.193-42.622-40.193-73.071 0-30.878 16.745-58.274 40.193-73.066V89.013c16.746.436 31.812 3.048 46.885 6.96zm55.26 24.359c26.794-13.486 55.255-21.317 87.073-21.317 31.823 0 60.278 7.831 87.078 21.317 5.024-3.919 11.715-7.402 18.412-10.874-26.788-25.659-65.303-41.316-105.49-41.316-40.188 0-78.703 15.657-105.502 41.758 5.03 2.595 13.4 6.513 18.43 10.432zm0 43.487c-18.424-15.657-40.193-27.395-65.314-33.49v149.614c0 83.503 68.666 150.485 152.387 150.485 83.727 0 150.714-66.976 150.714-150.92v-149.18c-23.443 6.531-45.224 17.834-63.63 33.491-25.121-17.398-55.26-27.395-87.079-27.395-31.823 0-61.957 9.997-87.078 27.395z"/>
    <path d="M296.816 279.944c25.127-3.042 68.666-2.607 68.666-2.607-1.673 7.826 0 30.002-25.115 43.923-3.351 2.171-13.4 5.649-23.442 6.09-23.443.865-56.933 1.306-56.933 1.306 6.685-26.536 15.055-46.535 36.824-48.712M203.041 279.944c20.103 2.177 30.151 22.176 36.842 48.706 0 0-33.49-.435-56.933-1.306-10.048-.435-20.09-3.919-23.448-6.09-25.115-13.92-23.436-36.097-25.115-43.923 0 .006 43.55-.43 68.654 2.613M293.477 399.544c-11.722 7.832-26.8 12.18-43.545 12.18-16.74 0-31.818-4.348-45.212-12.18 0 0 1.673-4.783 3.345-8.702 3.352-4.783 6.697-6.084 6.697-6.084 10.049 3.037 23.437 4.778 35.164 4.778 11.715 0 23.442-1.741 35.164-4.778 0 0 3.35 1.736 6.702 6.955 1.685 4.36 1.685 7.831 1.685 7.831"/>
  </g>
</svg>
