<svg xmlns="http://www.w3.org/2000/svg" width="500" height="500">
  <g fill="none" fill-rule="evenodd">
    <path d="m125.945 130.431-.234.222c6.146 11.97 56.267 58.577 56.746 58.147 72.909-65.067 123.251 2.138 128.278-.467 0 0 57.902-58.197 57.668-58.602-14.294-24.446-132.653-106.806-242.458.7Z"/>
    <path fill="#FFF" fill-rule="nonzero" d="M253.743 230.637c8.482 3.626 12.42 13.44 8.795 21.922-3.624 8.482-13.438 12.42-21.92 8.798-8.483-3.623-12.423-13.436-8.801-21.92 3.633-8.475 13.441-12.412 21.926-8.8"/>
    <path d="m125.945 130.431-.234.222c6.146 11.97 56.267 58.577 56.746 58.147 72.909-65.067 123.251 2.138 128.278-.467 0 0 57.902-58.197 57.668-58.602-14.294-24.446-132.653-106.806-242.458.7Z"/>
    <path d="M312.739 219.65c-12.575-31.299-45.51-49.354-78.66-43.123-33.149 6.23-57.28 35.012-57.632 68.74-.352 33.728 23.171 63.008 56.183 69.93 33.012 6.923 66.317-10.44 79.543-41.468a70.192 70.192 0 0 0 .566-54.08Z"/>
    <path d="M310.735 188.333s57.902-58.197 57.668-58.602c-14.294-24.446-132.653-106.806-242.458.7l-.234.222c6.146 11.97 56.267 58.577 56.746 58.147 72.909-65.067 123.251 2.138 128.278-.467Z"/>
    <path d="m388.88 362.025 30.837 30.837a228.73 228.73 0 0 0 18.73-25.405c67.08-105.654 35.807-245.682-69.847-312.76-105.655-67.08-245.683-35.807-312.761 69.847-66.923 105.467-35.643 245.814 69.835 312.761 83.024 52.696 190.552 45.866 266.241-16.912l-30.899-30.85a183.672 183.672 0 0 0 27.863-27.518Z"/>
    <path fill="#FFF" fill-rule="nonzero" d="m488.2 434.233-42.919-42.944a240.861 240.861 0 0 0 9.218-13.52c72.663-114.438 38.667-266.708-75.784-339.37a245.814 245.814 0 0 0-339.383 75.796c-72.675 114.464-38.69 266.72 75.71 339.383 84.689 53.75 193.52 50.735 275.103-7.62l43.128 43.14 9.76 9.771 9.758-9.758 35.41-35.398 9.758-9.758-9.759-9.722Zm-45.13 37.351-51.155-51.19c-75.7 62.761-183.227 69.572-266.24 16.862C20.244 370.31-11.06 230.011 55.838 124.544 99.23 56.198 175.789 16.192 256.675 19.598c80.886 3.405 153.811 49.704 191.305 121.456 37.494 71.753 33.86 158.057-9.532 226.403a228.73 228.73 0 0 1-18.731 25.405l51.018 51.043-27.666 27.68Z"/>
    <path fill="#FFF" fill-rule="nonzero" d="M318.712 317.154c7.624-7.658 19.98-7.658 27.606 0l41.47 41.685c4.64-5.7 8.943-11.67 12.884-17.879 54.066-85.609 28.853-199.065-56.316-253.41-85.168-54.347-198.04-29.003-252.107 56.606-53.937 85.452-28.685 199.145 56.29 253.41 65.653 41.912 150.503 37.462 211.459-11.089l-41.286-41.512a19.68 19.68 0 0 1-5.745-13.905 19.68 19.68 0 0 1 5.745-13.906ZM125.31 128.881l.233-.222c109.517-107.78 227.566-25.21 241.822-.702.233.406-57.516 58.75-57.516 58.75-5.014 2.612-55.225-64.764-127.942.468-.478.431-50.419-46.293-56.597-58.294Zm121.126 186.515c-31.124.016-58.576-20.483-67.55-50.438-8.975-29.956 2.652-62.283 28.608-79.546 25.957-17.262 60.103-15.376 84.022 4.64 23.92 20.018 31.952 53.43 19.767 82.218-10.962 26.225-36.548 43.24-64.847 43.126Z"/>
  </g>
</svg>