<svg viewBox="0 0 500 500" xmlns="http://www.w3.org/2000/svg"><path d="m237.281 173.017-.052.105-.123-.063-39.913 9.524 57.618-113.8-17.32-4.48-209.808 156.06.74 62.286 56.444 35.796 158.225-37.431-42.258 119.022 50.453 35.375 221.075-152.54v-67.056l-102.372-74.465-132.71 31.667zm15.785-83.883 24.941 3.033-36.234 71.934 129.866-30.99 108.361 78.821v74.943l-228.748 157.833-59.557-41.757 39.51-111.284-147.712 34.945-62.658-39.737-.835-70.31 215.864-160.565 30.043 7.772-12.84 25.362zm-3.666 7.242-37.954 74.961 20.677-4.934 34.235-67.965z" fill="#fff"/></svg>