<svg xmlns="http://www.w3.org/2000/svg" viewBox="0 0 500 500">
  <path fill="#fff" fill-rule="nonzero" d="m90.29 249.652 4.441 49.765-4.44 52.292c-.23 1.914-1.685 3.37-3.37 3.37-1.684 0-3.215-1.456-3.215-3.37l-4.287-52.292 4.287-49.765c0-1.685 1.455-3.216 3.216-3.216 1.684 0 3.139 1.531 3.369 3.216Zm16.385-34.913c-2.144 0-3.598 1.684-3.828 3.828l-3.828 80.85 3.828 52.292c.23 2.144 1.684 3.829 3.828 3.829 1.914 0 3.598-1.685 3.598-3.829l4.441-52.292-4.44-80.85c0-2.144-1.685-3.828-3.599-3.828Zm19.523-18.452c-2.373 0-4.057 1.685-4.287 4.058l-3.369 99.532 3.369 51.909c.23 2.373 1.914 4.058 4.287 4.058 2.144 0 4.058-1.685 4.058-4.058l4.058-51.91-4.058-99.53c0-2.374-1.914-4.059-4.058-4.059Zm-115.685 73.96c-1.072 0-1.685.842-1.915 1.914L5 299.417l3.598 26.797c.23 1.072.843 1.914 1.914 1.914 1.072 0 1.685-.842 1.915-1.914l4.287-26.797-4.287-27.256c-.23-1.072-.843-1.914-1.915-1.914ZM28.58 253.48a1.895 1.895 0 0 0-1.914 1.914l-4.9 44.023 4.9 42.952c0 1.301.842 2.143 1.914 2.143s1.914-.842 2.144-1.914l5.512-43.18-5.512-44.024c-.23-1.072-1.072-1.914-2.144-1.914Zm19.37-8.728c-1.301 0-2.373 1.071-2.526 2.526l-4.44 52.14 4.44 50.377c.23 1.302 1.302 2.374 2.527 2.374a2.385 2.385 0 0 0 2.373-2.374l5.283-50.378-5.283-52.139c0-1.455-1.072-2.526-2.373-2.526Zm19.37-1.685c-1.454 0-2.755 1.072-2.755 2.756l-4.441 53.594 4.44 51.91c0 1.684 1.302 2.756 2.757 2.756s2.756-1.072 2.986-2.756l4.9-51.91-4.9-53.594c-.23-1.684-1.531-2.756-2.986-2.756Zm184.823-84.908c-.842-.612-2.144-1.071-3.216-1.071-1.684 0-3.215.612-4.287 1.454-1.455 1.302-2.374 3.216-2.527 5.13v.612l-2.526 135.286 1.301 24.883 1.302 24.27c.23 3.599 3.215 6.585 6.814 6.585 3.598 0 6.584-2.986 6.584-6.585l2.986-49.153-2.986-135.898c-.306-2.297-1.531-4.44-3.445-5.513Zm-20.442 11.714c-1.072-.612-2.144-1.071-3.37-1.071-1.224 0-2.373.459-3.368 1.071-1.684 1.072-2.756 2.986-2.756 5.13l-.23 1.302-2.144 123.112s0 .23 2.374 50.225v.23c0 1.301.46 2.526 1.301 3.598 1.302 1.455 2.986 2.374 4.9 2.374 1.685 0 3.216-.842 4.288-1.914 1.301-1.072 1.914-2.527 1.914-4.288l.23-5.13 2.373-44.865-2.526-124.644c-.23-2.144-1.302-4.058-2.986-5.13ZM146.41 187.1c-2.374 0-4.44 2.144-4.44 4.67l-3.37 107.647 3.37 51.45c.229 2.527 2.143 4.44 4.44 4.44 2.526 0 4.44-1.913 4.67-4.44l3.828-51.45-3.828-107.647c-.153-2.526-2.067-4.67-4.67-4.67Zm288.41 48.081c-8.268 0-16.154 1.685-23.427 4.67-4.9-54.206-50.378-96.774-105.886-96.774-13.628 0-26.797 2.526-38.511 7.196-4.67 1.685-5.972 3.37-5.972 7.044v191.177c0 3.828 2.986 6.584 6.584 7.043h167.136c33.152 0 60.178-26.796 60.178-59.948.077-33.381-26.95-60.408-60.101-60.408Zm-227.16-46.167c-3.216 0-5.742 2.527-5.972 5.972l-2.526 104.66 2.526 50.226c.23 3.215 2.756 5.742 5.972 5.742 3.216 0 5.742-2.526 5.742-5.742l2.986-50.225-2.986-104.661c-.23-3.445-2.526-5.972-5.742-5.972Zm-41.038-5.972c-2.526 0-4.9 2.374-4.9 5.13l-2.986 111.245 2.986 51.22c.23 2.757 2.374 4.9 4.9 4.9 2.757 0 4.9-2.143 5.13-4.9l3.369-51.22-3.369-111.245c-.23-2.756-2.373-5.13-5.13-5.13Zm20.443 2.603c-2.986 0-5.283 2.374-5.283 5.283l-2.986 108.49 2.986 50.837c.23 2.986 2.373 5.283 5.283 5.283a5.293 5.293 0 0 0 5.282-5.283l3.216-50.838-3.216-108.489c0-2.986-2.296-5.283-5.282-5.283Z"/>
</svg>