<svg xmlns="http://www.w3.org/2000/svg" viewBox="0 0 500 500">
  <path fill="#fff" fill-rule="nonzero" d="M250 5C114.756 5 5 114.756 5 250s109.756 245 245 245 245-109.756 245-245S385.244 5 250 5Zm99.482 360.486c-4.15 0-6.718-1.284-10.57-3.557-61.646-37.145-133.368-38.725-204.2-24.203-3.853.988-8.891 2.568-11.756 2.568-9.583 0-15.61-7.606-15.61-15.609 0-10.175 6.027-15.016 13.436-16.596 80.91-17.881 163.597-16.3 234.133 25.883 6.027 3.853 9.583 7.31 9.583 16.3 0 8.99-7.014 15.214-15.016 15.214Zm26.574-64.807c-5.137 0-8.594-2.272-12.15-4.149-61.745-36.552-153.817-51.272-235.714-29.044-4.742 1.284-7.311 2.568-11.757 2.568-10.57 0-19.165-8.594-19.165-19.165 0-10.57 5.137-17.585 15.313-20.45 27.463-7.705 55.52-13.435 96.617-13.435 64.115 0 126.056 15.905 174.858 44.95 8.002 4.742 11.164 10.867 11.164 19.461-.099 10.67-8.397 19.264-19.166 19.264Zm30.625-75.278c-5.137 0-8.298-1.284-12.743-3.853-70.34-41.986-196.1-52.062-277.503-29.34-3.556.988-8.002 2.568-12.743 2.568-13.04 0-23.019-10.175-23.019-23.314 0-13.436 8.299-21.043 17.19-23.611 34.774-10.176 73.697-15.016 116.079-15.016 72.116 0 147.691 15.016 202.915 47.221 7.705 4.446 12.744 10.571 12.744 22.327 0 13.436-10.867 23.018-22.92 23.018Z"/>
</svg>