<svg xmlns="http://www.w3.org/2000/svg" viewBox="0 0 500 500">
  <path fill="#fff" fill-rule="nonzero" d="M355.176 341.992c0-8.203-3.223-11.426-8.79-14.941-37.792-22.559-81.738-33.692-130.956-33.692-28.711 0-56.25 3.809-84.082 9.961-6.739 1.465-12.305 5.86-12.305 15.235 0 7.324 5.566 14.355 14.355 14.355 2.637 0 7.325-1.465 10.84-2.344 22.852-4.687 46.875-7.91 71.192-7.91 43.066 0 83.789 10.547 116.308 30.176 3.516 2.05 5.86 3.223 9.668 3.223 7.324 0 13.77-5.86 13.77-14.063zm28.125-62.988c0-7.91-2.93-13.477-10.254-17.871-44.824-26.66-101.66-41.309-160.547-41.309-37.793 0-63.574 5.274-88.77 12.305-9.375 2.637-14.062 9.082-14.062 18.75s7.91 17.578 17.578 17.578c4.102 0 6.445-1.172 10.84-2.344 20.508-5.566 45.117-9.668 73.535-9.668 55.664 0 106.348 14.649 142.969 36.328 3.223 1.758 6.445 3.809 11.133 3.809 9.96 0 17.578-7.91 17.578-17.578zm31.64-72.656c0-10.84-4.687-16.407-11.718-20.508-50.684-29.59-120.118-43.36-186.328-43.36-38.965 0-74.708 4.395-106.641 13.77-8.203 2.344-15.82 9.375-15.82 21.68 0 12.011 9.082 21.386 21.093 21.386 4.395 0 8.496-1.464 11.72-2.343 28.417-7.91 59.179-10.84 89.94-10.84 60.938 0 124.22 13.476 164.942 37.793 4.101 2.344 7.031 3.515 11.719 3.515 11.132 0 21.093-8.789 21.093-21.093zM475 250c0 124.219-100.781 225-225 225S25 374.219 25 250 125.781 25 250 25s225 100.781 225 225z"/>
</svg>
