<svg xmlns="http://www.w3.org/2000/svg" viewBox="0 0 500 500">
  <path fill="#fff" fill-rule="nonzero" d="M464.75 210.89a201.034 201.034 0 0 1-117.495-37.563v171.04c-.024 64.87-40.299 122.917-101.057 145.647-60.757 22.73-129.242 5.371-171.838-43.555C31.765 397.533 24 327.311 54.88 270.261c30.878-57.05 93.916-88.95 158.172-80.042v86.027c-29.454-9.265-61.526 1.45-79.498 26.556-17.972 25.108-17.773 58.921.494 83.815 18.266 24.894 50.462 35.23 79.805 25.618 29.342-9.61 49.185-36.99 49.185-67.867V10h84.218a115.973 115.973 0 0 0 1.78 21.217 116.93 116.93 0 0 0 51.594 76.773 116.212 116.212 0 0 0 64.121 19.275v83.625Z"/>
</svg>