<svg xmlns="http://www.w3.org/2000/svg" viewBox="0 0 500 500">
  <path fill="#fff" fill-rule="nonzero" d="M483.962 131.724c-5.617-21.147-22.164-37.802-43.174-43.454C402.706 78 250 78 250 78S97.295 78 59.212 88.27c-21.01 5.653-37.557 22.307-43.174 43.454C5.834 170.054 5.834 250.026 5.834 250.026s0 79.972 10.204 118.302c5.617 21.147 22.164 37.107 43.174 42.76C97.295 421.357 250 421.357 250 421.357s152.705 0 190.788-10.27c21.01-5.653 37.557-21.613 43.174-42.76 10.204-38.33 10.204-118.302 10.204-118.302s0-79.972-10.204-118.302Zm-283.905 190.91V177.417l127.631 72.61-127.631 72.607Z"/>
</svg>