<svg viewBox="0 0 500 500" xmlns="http://www.w3.org/2000/svg"><path d="m483.962 131.724c-5.617-21.147-22.164-37.802-43.174-43.454-38.082-10.27-190.788-10.27-190.788-10.27s-152.705 0-190.788 10.27c-21.01 5.653-37.557 22.307-43.174 43.454-10.204 38.33-10.204 118.302-10.204 118.302s0 79.972 10.204 118.302c5.617 21.147 22.164 37.107 43.174 42.76 38.083 10.269 190.788 10.269 190.788 10.269s152.705 0 190.788-10.27c21.01-5.653 37.557-21.613 43.174-42.76 10.204-38.33 10.204-118.302 10.204-118.302s0-79.972-10.204-118.302zm-283.905 190.91v-145.217l127.631 72.61z" fill="currentColor"/></svg>